<?xml version="1.0" standalone="no"?>
<!DOCTYPE svg PUBLIC "-//W3C//DTD SVG 1.1//EN" "http://www.w3.org/Graphics/SVG/1.1/DTD/svg11.dtd" >
<svg>
<metadata>
Created by FontForge 20090622 at Wed Jul 26 13:18:04 2017
 By deploy user
Copyright 2017 Bobby Tannam. This is a webfont and may not be downloaded or installed on a computer.
</metadata>
<defs>
<font id="Chariot-Light" horiz-adv-x="558" >
  <font-face 
    font-family="Chariot Light"
    font-weight="234"
    font-stretch="expanded"
    units-per-em="1000"
    panose-1="0 0 0 0 0 0 0 0 0 0"
    ascent="810"
    descent="-190"
    x-height="500"
    cap-height="690"
    bbox="-227 -239 2071 1117"
    underline-thickness="0"
    underline-position="0"
    unicode-range="U+0020-U+FB02"
  />
<missing-glyph horiz-adv-x="500" 
d="M50 -190v1000h400v-1000h-400zM100 -140h300v900h-300v-900z" />
    <glyph glyph-name=".notdef" horiz-adv-x="500" 
d="M50 -190v1000h400v-1000h-400zM100 -140h300v900h-300v-900z" />
    <glyph glyph-name=".null" horiz-adv-x="0" 
 />
    <glyph glyph-name="nonmarkingreturn" horiz-adv-x="333" 
 />
    <glyph glyph-name="space" unicode=" " horiz-adv-x="207" 
 />
    <glyph glyph-name="exclam" unicode="!" horiz-adv-x="231" 
d="M86 690h58v-174l-19 -305h-19l-20 305v174zM84 0v114h62v-114h-62z" />
    <glyph glyph-name="quotedbl" unicode="&#x22;" horiz-adv-x="341" 
d="M223 456l-7 106v128h53v-128l-8 -106h-38zM80 456l-7 106v128h53v-128l-8 -106h-38z" />
    <glyph glyph-name="numbersign" unicode="#" horiz-adv-x="601" 
d="M385 245l28 200h-196l-28 -200h196zM350 0l28 196h-196l-28 -196h-34l28 196h-99v49h105l29 200h-97v49h103l28 196h35l-28 -196h196l28 196h34l-28 -196h97v-49h-104l-28 -200h95v-49h-102l-28 -196h-34z" />
    <glyph glyph-name="dollar" unicode="$" horiz-adv-x="580" 
d="M242 389l35 -7l31 284q-8 1 -22 1q-69 0 -118.5 -39.5t-49.5 -104.5q0 -52 33 -87.5t91 -46.5zM295 23q73 0 127.5 41t54.5 112q0 50 -32.5 87.5t-102.5 51.5l-36 7l-32 -298q7 -1 21 -1zM295 -11q-17 0 -25 1l-13 -125h-31l14 128q-81 13 -133.5 59t-53.5 113q0 25 7 49
l53 15q-9 -24 -9 -52q1 -56 40 -96t99 -53l32 300l-47 10q-74 15 -117.5 62t-43.5 114q0 82 63 134.5t157 52.5q16 0 24 -1l11 100h31l-11 -104q71 -13 118 -56t47 -107q0 -22 -8 -46l-52 -15q9 29 9 51q0 52 -33 88t-85 50l-31 -285l45 -9q91 -18 133.5 -67t42.5 -114
q0 -89 -66.5 -143t-166.5 -54z" />
    <glyph glyph-name="percent" unicode="%" horiz-adv-x="787" 
d="M343 519v-5q0 -82 -41 -133t-108 -51q-68 0 -109.5 51t-41.5 133v5q0 81 41.5 131t109.5 50q67 0 108 -50.5t41 -130.5zM194 0h-44l445 690h44zM298 513v7q0 69 -28 110.5t-76 41.5t-76 -41.5t-28 -110.5v-7q0 -70 28 -112.5t76 -42.5t76 42.5t28 112.5zM743 178v-4
q0 -83 -41 -133.5t-108 -50.5t-108.5 50.5t-41.5 133.5v4q0 81 41.5 131.5t108.5 50.5t108 -50.5t41 -131.5zM698 172v7q0 69 -28 111t-76 42q-47 0 -75.5 -42t-28.5 -111v-7q0 -70 28.5 -112t75.5 -42q48 0 76 42t28 112z" />
    <glyph glyph-name="ampersand" unicode="&#x26;" horiz-adv-x="723" 
d="M283 410q56 27 92 68t36 89q0 42 -30 72t-74 30q-43 0 -71.5 -31t-28.5 -76q0 -58 76 -152zM274 23q99 0 180 91l-200 244q-142 -80 -142 -186q0 -65 46 -107t116 -42zM624 -8q-39 0 -72.5 23t-75.5 73q-99 -99 -216 -99q-90 0 -149.5 49t-59.5 127q0 122 183 218
q-84 104 -84 174q0 60 43.5 102t109.5 42q62 0 103.5 -38.5t41.5 -95.5q0 -56 -40.5 -102.5t-104.5 -78.5l185 -227q66 99 66 218q0 35 -9 67l55 -13q7 -28 7 -53q0 -135 -94 -250l13 -16q36 -44 59 -60.5t51 -16.5q37 0 75 32l8 -41q-45 -34 -95 -34z" />
    <glyph glyph-name="quotesingle" unicode="'" horiz-adv-x="198" 
d="M80 456l-7 106v128h53v-128l-8 -106h-38z" />
    <glyph glyph-name="parenleft" unicode="(" horiz-adv-x="369" 
d="M346 787q-95 -78 -147 -199t-52 -256q0 -136 51.5 -257t147.5 -198l-26 -13q-111 81 -170.5 204t-59.5 264t60 263.5t171 204.5z" />
    <glyph glyph-name="parenright" unicode=")" horiz-adv-x="369" 
d="M23 -123q95 78 147 199t52 256q0 136 -51.5 257t-147.5 198l26 13q111 -81 170.5 -204t59.5 -264t-60 -263.5t-171 -204.5z" />
    <glyph glyph-name="asterisk" unicode="*" horiz-adv-x="406" 
d="M289 394l-42 57l-44 82l-43 -82l-42 -57l-37 27l41 57l66 68l-92 16l-69 22l14 43l70 -22l82 -39l-13 89v71h47v-71l-13 -89l82 39l69 22l14 -43l-69 -22l-91 -16l66 -68l41 -57z" />
    <glyph glyph-name="plus" unicode="+" horiz-adv-x="600" 
d="M526 326h-206v-204h-40v204h-206v38h206v204h40v-204h206v-38z" />
    <glyph glyph-name="comma" unicode="," horiz-adv-x="216" 
d="M76 -124q-17 0 -33 7l7 39q11 -8 24 -8q14 0 23 11t9 29v46h-29v114h62v-165q0 -34 -17.5 -53.5t-45.5 -19.5z" />
    <glyph glyph-name="hyphen" unicode="-" horiz-adv-x="346" 
d="M57 246v39h232v-39h-232z" />
    <glyph glyph-name="period" unicode="." horiz-adv-x="216" 
d="M77 0v114h62v-114h-62z" />
    <glyph glyph-name="slash.add_1" unicode="/" horiz-adv-x="500" 
 />
    <glyph glyph-name="zero" unicode="0" horiz-adv-x="623" 
d="M566 348v-6q0 -157 -69.5 -255t-184.5 -98q-116 0 -185.5 98t-69.5 255v6q0 157 69.5 255t185.5 98q115 0 184.5 -98t69.5 -255zM508 341v8q0 144 -53 231t-143 87t-143.5 -86.5t-53.5 -231.5v-8q0 -145 53.5 -231.5t143.5 -86.5t143 87t53 231z" />
    <glyph glyph-name="one" unicode="1" horiz-adv-x="378" 
d="M268 0h-54v609q-68 -98 -176 -118v56q144 21 200 143h30v-690z" />
    <glyph glyph-name="two" unicode="2" horiz-adv-x="545" 
d="M496 0h-446v23l223 215q80 77 116 137t36 125v2q0 75 -44.5 120t-109.5 45q-72 0 -119 -52t-47 -134v-2q0 -43 13 -80l-55 15q-12 34 -12 72v2q0 95 61.5 154t158.5 59q91 0 151.5 -53t60.5 -144v-2q0 -72 -41.5 -138t-129.5 -141l-202 -177h386v-46z" />
    <glyph glyph-name="three" unicode="3" horiz-adv-x="569" 
d="M282 -11q-98 0 -163.5 51t-65.5 136v2q0 36 13 70l54 14q-12 -36 -12 -77v-3q0 -74 50.5 -116.5t124.5 -42.5q76 0 126 42.5t50 113.5v2q0 73 -52.5 117t-133.5 44h-60v33h58q73 0 120.5 40t47.5 107v2q0 65 -44 104t-111 39q-68 0 -115.5 -38.5t-47.5 -107.5v-3
q0 -32 10 -69l-54 14q-10 32 -10 62v2q0 79 63.5 126.5t153.5 47.5q92 0 152.5 -47.5t60.5 -125.5v-2q0 -68 -46.5 -111.5t-123.5 -55.5q86 -12 138 -58.5t52 -120.5v-2q0 -84 -67 -136.5t-168 -52.5z" />
    <glyph glyph-name="four" unicode="4" horiz-adv-x="566" 
d="M366 231v427l-294 -427h294zM535 188h-115v-188h-54v188h-333v44l314 458h73v-459h115v-43z" />
    <glyph glyph-name="five" unicode="5" horiz-adv-x="565" 
d="M282 -11q-94 0 -158 54t-64 131q0 19 7 47l55 14q-8 -27 -8 -53q0 -67 49 -113t119 -46q74 0 124.5 55t50.5 147t-48.5 146.5t-120.5 54.5q-56 0 -100.5 -30t-63.5 -81h-39l44 375h355l-5 -46h-323l-35 -304q20 55 70.5 87.5t114.5 32.5q90 0 149.5 -63t59.5 -170
q0 -105 -65.5 -171.5t-167.5 -66.5z" />
    <glyph glyph-name="six" unicode="6" horiz-adv-x="588" 
d="M536 221q0 -100 -68.5 -166t-165.5 -66q-64 0 -116.5 33t-82.5 90q-46 79 -46 204v10q0 180 72.5 277.5t190.5 97.5q81 0 139.5 -42.5t58.5 -114.5q0 -23 -5 -39l-55 -15q6 21 6 44q0 60 -42.5 96.5t-103.5 36.5q-91 0 -147.5 -87.5t-56.5 -255.5q0 -37 1 -59
q14 81 71 130.5t135 49.5q91 0 153 -64t62 -160zM303 23q73 0 124 56t51 136v3q0 81 -49.5 137t-123.5 56q-75 0 -127 -56.5t-52 -136.5v-1q0 -78 53 -136t124 -58z" />
    <glyph glyph-name="seven" unicode="7" horiz-adv-x="513" 
d="M234 0h-60q3 182 67 338.5t193 305.5h-409v46h460v-22q-125 -151 -186.5 -310.5t-64.5 -357.5z" />
    <glyph glyph-name="eight" unicode="8" horiz-adv-x="591" 
d="M295 -11q-104 0 -174 51.5t-70 136.5v3q0 67 48 114t125 63q-65 16 -106 59.5t-41 104.5v3q0 79 63.5 128t154.5 49q92 0 155.5 -49t63.5 -128v-3q0 -61 -41 -104.5t-106 -59.5q77 -16 125 -63t48 -114v-3q0 -85 -70.5 -136.5t-174.5 -51.5zM457 519v3q0 66 -47.5 105.5
t-114.5 39.5q-66 0 -113 -39.5t-47 -105.5v-3q0 -67 46.5 -107t113.5 -40q68 0 115 40t47 107zM482 179v4q0 71 -54.5 114t-132.5 43q-77 0 -131 -43t-54 -114v-4q0 -71 53 -113.5t132 -42.5q80 0 133.5 42.5t53.5 113.5z" />
    <glyph glyph-name="nine" unicode="9" horiz-adv-x="588" 
d="M285 667q-73 0 -124 -56t-51 -136v-3q0 -81 49.5 -137t123.5 -56q75 0 127 56.5t52 136.5v1q0 78 -53 136t-124 58zM268 -11q-81 0 -139.5 42.5t-58.5 114.5q0 23 5 39l55 15q-6 -21 -6 -44q0 -60 42.5 -96.5t103.5 -36.5q91 0 147.5 87.5t56.5 255.5q0 37 -1 59
q-14 -81 -71 -130.5t-135 -49.5q-91 0 -153 64t-62 160q0 100 68.5 166t165.5 66q64 0 116.5 -33t82.5 -90q46 -79 46 -204v-10q0 -180 -72.5 -277.5t-190.5 -97.5z" />
    <glyph glyph-name="colon" unicode=":" horiz-adv-x="216" 
d="M77 383v114h62v-114h-62zM77 0v114h62v-114h-62z" />
    <glyph glyph-name="semicolon" unicode=";" horiz-adv-x="216" 
d="M77 383v114h62v-114h-62zM76 -124q-17 0 -33 7l7 39q11 -8 24 -8q14 0 23 11t9 29v46h-29v114h62v-165q0 -34 -17.5 -53.5t-45.5 -19.5z" />
    <glyph glyph-name="less" unicode="&#x3c;" horiz-adv-x="600" 
d="M523 105l-446 193v57l446 192v-43l-413 -177l413 -178v-44z" />
    <glyph glyph-name="equal" unicode="=" horiz-adv-x="600" 
d="M74 421v39h452v-39h-452zM74 230v39h452v-39h-452z" />
    <glyph glyph-name="greater" unicode="&#x3e;" horiz-adv-x="600" 
d="M77 105v44l413 178l-413 177v43l446 -192v-57z" />
    <glyph glyph-name="question" unicode="?" horiz-adv-x="548" 
d="M285 667q-76 0 -125 -42t-49 -108q0 -34 11 -70l-53 13q-10 33 -10 63q0 77 63.5 127.5t163.5 50.5q96 0 155 -50t59 -129q0 -44 -21.5 -78t-52 -56l-60.5 -44.5t-51.5 -57t-21.5 -79.5h-38q0 44 14 79.5t35 56.5t46 42l46 38t35 43t14 58q0 62 -44 102.5t-116 40.5z
M244 0v115h60v-115h-60z" />
    <glyph glyph-name="at" unicode="@" horiz-adv-x="843" 
d="M404 -113q-149 0 -251.5 96.5t-102.5 249.5q0 89 33.5 163t89.5 120.5t125 72t143 25.5q150 0 251 -85.5t101 -229.5q0 -108 -52 -176t-124 -68q-45 0 -71.5 26t-24.5 68q-22 -44 -58 -69t-80 -25q-65 0 -105 46t-40 121q0 95 50.5 158.5t126.5 63.5q50 0 84 -29t45 -80
l15 102h44l-35 -250h1l-5 -32q-4 -32 12.5 -52.5t44.5 -20.5q51 0 89 61t38 155q0 134 -89 210.5t-218 76.5q-65 0 -126 -23t-110.5 -66t-79.5 -111.5t-30 -151.5q0 -142 90 -230t221 -88q99 0 196 52l12 -24q-97 -56 -210 -56zM397 81q59 0 99.5 56.5t40.5 141.5
q0 62 -31.5 100.5t-81.5 38.5q-59 0 -99.5 -57t-40.5 -140q0 -63 31.5 -101.5t81.5 -38.5z" />
    <glyph glyph-name="A" unicode="A" horiz-adv-x="627" 
d="M450 242l-146 405l-145 -405h291zM537 0l-74 204h-318l-73 -204h-43l250 690h68l251 -690h-61z" />
    <glyph glyph-name="B" unicode="B" horiz-adv-x="617" 
d="M322 653h-174v-277h165q88 0 133.5 35.5t45.5 102.5t-43 103t-127 36zM329 339h-181v-302h190q87 0 133 41t46 111q0 68 -48 109t-140 41zM89 0v690h236q109 0 167 -43t58 -128q0 -134 -158 -160q87 -12 135.5 -56.5t48.5 -117.5q0 -87 -61.5 -136t-172.5 -49h-253z" />
    <glyph glyph-name="C" unicode="C" horiz-adv-x="683" 
d="M568 248l57 -15q4 -20 4 -44q0 -88 -73.5 -144t-183.5 -56q-137 0 -224 95.5t-87 258.5v4q0 162 87 258t223 96q108 0 180.5 -56.5t72.5 -145.5q0 -25 -5 -45l-57 -15q7 27 7 53q0 77 -57.5 125t-140.5 48q-108 0 -178 -85.5t-70 -232.5v-5q0 -147 70 -232t180 -85
q85 0 143.5 48t58.5 126q0 24 -7 49z" />
    <glyph glyph-name="D" unicode="D" horiz-adv-x="685" 
d="M291 653h-143v-616h143q127 0 199 79t72 226v6q0 147 -72 226t-199 79zM89 0v690h204q153 0 241.5 -90t88.5 -254v-3q0 -163 -88.5 -253t-241.5 -90h-204z" />
    <glyph glyph-name="E" unicode="E" horiz-adv-x="565" 
d="M89 0v690h419v-37h-360v-275h318v-37h-318v-304h371v-37h-430z" />
    <glyph glyph-name="F" unicode="F" horiz-adv-x="539" 
d="M465 337h-317v-337h-59v690h415v-37h-356v-279h317v-37z" />
    <glyph glyph-name="G" unicode="G" horiz-adv-x="693" 
d="M589 0l-7 197q-19 -96 -78.5 -152t-149.5 -56q-124 0 -208.5 96.5t-84.5 257.5v5q0 160 88 256.5t224 96.5q105 0 178.5 -54t73.5 -142q0 -20 -6 -44l-56 -15q7 25 7 50q0 76 -58 122.5t-140 46.5q-107 0 -178 -85.5t-71 -230.5v-7q0 -147 68.5 -231t171.5 -84
q94 0 153 71t59 186v7h-219v37h272v-328h-39z" />
    <glyph glyph-name="H" unicode="H" horiz-adv-x="696" 
d="M548 0v342h-400v-342h-59v690h59v-310h400v310h59v-690h-59z" />
    <glyph glyph-name="I" unicode="I" horiz-adv-x="237" 
d="M148 690v-690h-59v690h59z" />
    <glyph glyph-name="J" unicode="J" horiz-adv-x="560" 
d="M65 271l58 15q-15 -43 -15 -79q0 -79 42 -130.5t113 -51.5q74 0 114.5 55t40.5 153v457h58v-454q0 -117 -56 -182t-157 -65q-94 0 -153 58t-59 150q0 34 14 74z" />
    <glyph glyph-name="K" unicode="K" horiz-adv-x="610" 
d="M520 0l-250 358l-122 -133v-225h-59v690h59v-410l375 410h50l-264 -288l281 -402h-70z" />
    <glyph glyph-name="L" unicode="L" horiz-adv-x="535" 
d="M89 0v690h59v-653h353v-37h-412z" />
    <glyph glyph-name="M" unicode="M" horiz-adv-x="837" 
d="M386 0l-257 645v-645h-40v690h82l250 -628l245 628h82v-690h-58v645l-252 -645h-52z" />
    <glyph glyph-name="N" unicode="N" horiz-adv-x="693" 
d="M529 0l-399 640v-640h-41v690h76l398 -635v635h41v-690h-75z" />
    <glyph glyph-name="O" unicode="O" horiz-adv-x="735" 
d="M368 -11q-136 0 -221.5 96.5t-85.5 257.5v4q0 161 85.5 257.5t221.5 96.5q135 0 220.5 -96.5t85.5 -257.5v-4q0 -161 -85.5 -257.5t-220.5 -96.5zM368 25q109 0 177 85.5t68 231.5v6q0 146 -68 231.5t-177 85.5t-177 -85.5t-68 -231.5v-6q0 -146 68 -231.5t177 -85.5z
" />
    <glyph glyph-name="P" unicode="P" horiz-adv-x="606" 
d="M314 653h-167v-334h167q92 0 141.5 43.5t49.5 121.5v4q0 79 -49 122t-142 43zM317 282h-170v-282h-58v690h228q116 0 182 -52t66 -150v-3q0 -99 -66 -151t-182 -52z" />
    <glyph glyph-name="Q" unicode="Q" horiz-adv-x="735" 
d="M496 -173q-66 0 -107.5 45t-41.5 118q-128 8 -207 103.5t-79 249.5v4q0 161 85.5 257.5t221.5 96.5q135 0 220.5 -96.5t85.5 -257.5v-4q0 -156 -80.5 -252t-209.5 -102q1 -49 31.5 -79.5t79.5 -30.5q56 0 104 39l13 -53q-56 -38 -116 -38zM368 25q109 0 177 85.5
t68 231.5v6q0 146 -68 231.5t-177 85.5t-177 -85.5t-68 -231.5v-6q0 -146 68 -231.5t177 -85.5z" />
    <glyph glyph-name="R" unicode="R" horiz-adv-x="629" 
d="M333 653h-185v-305h178q88 0 136.5 39.5t48.5 111.5v4q0 71 -46.5 110.5t-131.5 39.5zM313 311h-165v-311h-59v690h253q105 0 166.5 -47t61.5 -136v-2q0 -74 -45.5 -118.5t-127.5 -56.5q70 -9 105.5 -47t41.5 -81t16.5 -103.5t31.5 -96.5v-2h-62q-15 27 -23.5 65.5
t-11.5 70.5t-13 65.5t-26 56.5t-52 38t-91 15z" />
    <glyph glyph-name="S" unicode="S" horiz-adv-x="599" 
d="M65 214l56 15q-8 -26 -8 -52q0 -68 56.5 -110t137.5 -42q78 0 131.5 40.5t53.5 110.5q0 49 -32.5 86t-105.5 51l-116 23q-80 16 -124 63t-44 115q0 83 64.5 135t162.5 52q95 0 161 -46t66 -122q0 -22 -8 -46l-56 -15q8 26 8 51q0 65 -50 103.5t-122 38.5
q-73 0 -122.5 -39.5t-49.5 -103.5q0 -51 33 -85t95 -46l112 -22q95 -19 138.5 -68t43.5 -115q0 -90 -67.5 -143.5t-172.5 -53.5q-103 0 -175.5 49t-72.5 128q0 22 7 48z" />
    <glyph glyph-name="T" unicode="T" horiz-adv-x="589" 
d="M563 653h-240v-653h-58v653h-240v37h538v-37z" />
    <glyph glyph-name="U" unicode="U" horiz-adv-x="671" 
d="M545 690h40v-452q0 -117 -67 -183t-183 -66q-115 0 -182.5 66t-67.5 183v452h60v-446q0 -99 52.5 -156.5t146.5 -57.5q93 0 147 57.5t54 156.5v446z" />
    <glyph glyph-name="V" unicode="V" horiz-adv-x="628" 
d="M281 0l-252 690h62l233 -647l232 647h43l-251 -690h-67z" />
    <glyph glyph-name="W" unicode="W" horiz-adv-x="952" 
d="M225 0l-195 690h60l177 -643l181 643h71l183 -642l176 642h44l-192 -690h-69l-186 638l-180 -638h-70z" />
    <glyph glyph-name="X" unicode="X" horiz-adv-x="601" 
d="M501 0l-209 313l-214 -313h-47l237 345l-231 345h69l203 -304l210 304h47l-232 -336l237 -354h-70z" />
    <glyph glyph-name="Y" unicode="Y" horiz-adv-x="588" 
d="M323 290v-290h-58v290l-240 400h65l214 -361l216 361h43z" />
    <glyph glyph-name="Z" unicode="Z" horiz-adv-x="567" 
d="M522 0h-474v32l396 621h-386v37h454v-32l-395 -621h405v-37z" />
    <glyph glyph-name="bracketleft" unicode="[" horiz-adv-x="324" 
d="M77 -135v935h219v-32h-167v-871h167v-32h-219z" />
    <glyph glyph-name="backslash" unicode="\" horiz-adv-x="359" 
d="M46 800l313 -935h-46l-313 935h46z" />
    <glyph glyph-name="bracketright" unicode="]" horiz-adv-x="324" 
d="M28 -135v32h167v871h-167v32h219v-935h-219z" />
    <glyph glyph-name="asciicircum" unicode="^" horiz-adv-x="446" 
d="M350 362l-126 296l-127 -296h-44l142 328h58l140 -328h-43z" />
    <glyph glyph-name="underscore" unicode="_" horiz-adv-x="514" 
d="M45 -67v39h424v-39h-424z" />
    <glyph glyph-name="grave" unicode="`" horiz-adv-x="420" 
d="M259 597h-29l-103 129h66z" />
    <glyph glyph-name="a" unicode="a" horiz-adv-x="538" 
d="M219 23q74 0 121 57.5t47 136.5v59l-128 -27q-151 -32 -151 -124q0 -47 33 -74.5t78 -27.5zM201 -11q-62 0 -106 35.5t-44 96.5q0 118 195 157l141 28v26q0 71 -32.5 108.5t-96.5 37.5q-55 0 -95.5 -29t-40.5 -81q0 -22 9 -44l-54 10q-7 26 -7 38q0 64 55 101.5t134 37.5
q88 0 134.5 -47.5t46.5 -134.5v-218q0 -84 48 -84q22 0 39 16l5 -28q-18 -21 -57 -21q-42 0 -65.5 31t-23.5 88v13h1v8q-19 -65 -69 -105t-117 -40z" />
    <glyph glyph-name="b" unicode="b" horiz-adv-x="579" 
d="M316 -11q-66 0 -116.5 39.5t-70.5 114.5v-143h-50v726h53v-364q22 72 71.5 110.5t113.5 38.5q90 0 150.5 -69t60.5 -190v-4q0 -121 -60.5 -190t-151.5 -69zM300 23q74 0 122 58.5t48 164.5v7q0 106 -48 165t-122 59q-73 0 -121.5 -59.5t-48.5 -164.5v-7
q0 -104 48.5 -163.5t121.5 -59.5z" />
    <glyph glyph-name="c" unicode="c" horiz-adv-x="534" 
d="M425 316q5 16 5 37q0 55 -42.5 89.5t-101.5 34.5q-80 0 -128.5 -62t-48.5 -162v-6q0 -100 49 -162t130 -62q61 0 103 33.5t42 88.5q0 20 -4 36l52 -13q4 -13 4 -29q0 -66 -57.5 -108t-139.5 -42q-103 0 -170 70.5t-67 188.5v4q0 118 66 188.5t169 70.5q81 0 138 -42.5
t57 -108.5q0 -20 -3 -31z" />
    <glyph glyph-name="d" unicode="d" horiz-adv-x="579" 
d="M109 246q0 -106 48 -164.5t122 -58.5q73 0 121.5 59.5t48.5 163.5v7q0 105 -48.5 164.5t-121.5 59.5q-74 0 -122 -59t-48 -165v-7zM450 0v143q-20 -75 -70.5 -114.5t-116.5 -39.5q-91 0 -151.5 69t-60.5 190v4q0 121 60.5 190t150.5 69q64 0 113.5 -38.5t71.5 -110.5v364
h53v-726h-50z" />
    <glyph glyph-name="e" unicode="e" horiz-adv-x="555" 
d="M281 477q-70 0 -118 -52.5t-53 -147.5h336q-4 97 -49 148.5t-116 51.5zM499 164q-1 -77 -62.5 -126t-147.5 -49q-100 0 -169 69.5t-69 189.5v4q0 120 66 189.5t164 69.5t161 -68t63 -188v-11h-396q1 -105 53 -163t127 -58q66 0 113 43.5t41 111.5z" />
    <glyph glyph-name="f" unicode="f" horiz-adv-x="375" 
d="M351 467h-166v-467h-53v467h-104v33h104v76q0 80 37 120.5t100 40.5q56 0 99 -34l-9 -40q-33 38 -85 38q-89 0 -89 -126v-75h166v-33z" />
    <glyph glyph-name="g" unicode="g" horiz-adv-x="538" 
d="M414 337v3q0 61 -42 100t-105 39t-106 -39t-43 -100v-3q0 -62 42.5 -100.5t106.5 -38.5q63 0 105 38.5t42 100.5zM511 -56q0 -39 -21.5 -68.5t-58 -45.5t-78 -23.5t-86.5 -7.5q-106 0 -168 34.5t-62 89.5q0 38 32.5 65.5t86.5 38.5q-42 7 -67 29t-25 54q0 30 23 52t63 33
q-87 48 -87 143v2q0 76 58.5 123.5t145.5 47.5q64 0 113 -26q5 46 34 74t69 28q22 0 46 -10l-9 -44q-20 10 -40 10q-30 0 -55.5 -19t-31.5 -47q77 -49 77 -137v-2q0 -77 -57.5 -124t-145.5 -47q-52 0 -95 17q-62 -12 -62 -57q0 -26 24.5 -41.5t64.5 -15.5h131
q86 0 133.5 -34t47.5 -92zM268 -169q48 0 89 9.5t70.5 34t29.5 60.5q0 39 -35.5 64.5t-101.5 25.5h-97q-57 0 -95 -26.5t-38 -65.5q0 -45 47 -73.5t131 -28.5z" />
    <glyph glyph-name="h" unicode="h" horiz-adv-x="564" 
d="M132 272v-272h-53v726h52l-1 -367q17 70 66 111t120 41q77 0 124.5 -51t47.5 -149v-311h-53v308q0 77 -38 119.5t-102 42.5q-74 0 -118.5 -53.5t-44.5 -144.5z" />
    <glyph glyph-name="i" unicode="i" horiz-adv-x="212" 
d="M77 608v118h58v-118h-58zM79 0v500h54v-500h-54z" />
    <glyph glyph-name="j" unicode="j" horiz-adv-x="212" 
d="M77 608v118h58v-118h-58zM21 -201q-42 0 -82 26l8 38q33 -27 66 -27t49.5 25t16.5 67v572h54v-572q0 -59 -29.5 -94t-82.5 -35z" />
    <glyph glyph-name="k" unicode="k" horiz-adv-x="494" 
d="M415 0l-178 275l-105 -106v-169h-53v726h53v-508l280 282h49l-187 -188l203 -312h-62z" />
    <glyph glyph-name="l" unicode="l" horiz-adv-x="212" 
d="M79 0v726h54v-726h-54z" />
    <glyph glyph-name="m" unicode="m" horiz-adv-x="920" 
d="M132 272v-272h-53v500h51l-1 -145q17 72 66 114t121 42q67 0 113 -40t56 -118q16 73 65.5 115.5t122.5 42.5q77 0 124.5 -51t47.5 -149v-311h-53v308q0 77 -38 119.5t-102 42.5q-75 0 -119 -53.5t-44 -144.5l-1 2v-274h-53v308q0 77 -38 119.5t-102 42.5
q-74 0 -118.5 -53.5t-44.5 -144.5z" />
    <glyph glyph-name="n" unicode="n" horiz-adv-x="563" 
d="M132 272v-272h-53v500h51l-1 -145q17 72 66 114t121 42q77 0 124.5 -51t47.5 -149v-311h-53v308q0 77 -38 119.5t-102 42.5q-74 0 -118.5 -53.5t-44.5 -144.5z" />
    <glyph glyph-name="o" unicode="o" horiz-adv-x="563" 
d="M282 -11q-99 0 -165 69.5t-66 189.5v4q0 120 66 189.5t165 69.5q98 0 164.5 -69.5t66.5 -189.5v-4q0 -120 -66.5 -189.5t-164.5 -69.5zM282 23q74 0 123 58.5t49 164.5v7q0 106 -49 165t-123 59q-75 0 -124 -59t-49 -165v-7q0 -106 49 -164.5t124 -58.5z" />
    <glyph glyph-name="p" unicode="p" horiz-adv-x="579" 
d="M300 23q74 0 122 58.5t48 164.5v7q0 106 -48 165t-122 59q-73 0 -121.5 -60t-48.5 -164v-7q0 -104 48.5 -163.5t121.5 -59.5zM317 -11q-64 0 -113.5 38.5t-71.5 109.5v-327h-53v690h50v-144q21 75 71 115t116 40q91 0 151.5 -69t60.5 -190v-4q0 -121 -60.5 -190
t-150.5 -69z" />
    <glyph glyph-name="q" unicode="q" horiz-adv-x="579" 
d="M447 -190v327q-22 -71 -71.5 -109.5t-113.5 -38.5q-90 0 -150.5 69t-60.5 190v4q0 121 60.5 190t151.5 69q66 0 116 -40t71 -115v144h50v-690h-53zM109 246q0 -106 48 -164.5t122 -58.5q73 0 121.5 59.5t48.5 163.5v7q0 104 -48.5 164t-121.5 60q-74 0 -122 -59t-48 -165
v-7z" />
    <glyph glyph-name="r" unicode="r" horiz-adv-x="373" 
d="M132 248v-248h-53v500h50v-143q14 69 49 111.5t92 42.5q46 0 83 -30l-10 -53q-38 33 -82 33q-65 0 -97 -60.5t-32 -152.5z" />
    <glyph glyph-name="s" unicode="s" horiz-adv-x="492" 
d="M58 157l50 13q-5 -14 -5 -35q0 -52 43.5 -82.5t104.5 -30.5q59 0 100 28t41 75q0 80 -108 99l-86 16q-64 12 -99.5 46.5t-35.5 85.5q0 61 51 100t130 39q75 0 128.5 -35t54.5 -95q0 -17 -5 -32l-52 -14q6 16 6 36q-1 51 -39.5 79t-93.5 28t-92 -27t-37 -71q0 -74 94 -92
l87 -16q147 -27 147 -139q0 -66 -54.5 -105t-136.5 -39t-140 37.5t-58 98.5q0 15 5 32z" />
    <glyph glyph-name="t" unicode="t" horiz-adv-x="382" 
d="M347 20q-45 -31 -96 -31q-53 0 -86 35.5t-33 110.5v332h-104v33h104v155h53v-155h154v-33h-154v-332q0 -54 21.5 -82t57.5 -28q40 0 78 32z" />
    <glyph glyph-name="u" unicode="u" horiz-adv-x="564" 
d="M434 0l1 145q-17 -72 -66 -114t-121 -42q-77 0 -124.5 51t-47.5 149v311h53v-308q0 -77 38 -119.5t102 -42.5q74 0 118.5 53.5t44.5 144.5v272h53v-500h-51z" />
    <glyph glyph-name="v" unicode="v" horiz-adv-x="480" 
d="M210 0l-189 500h57l170 -457l170 457h40l-188 -500h-60z" />
    <glyph glyph-name="w" unicode="w" horiz-adv-x="750" 
d="M173 0l-149 500h56l134 -461l136 461h63l138 -460l135 460h40l-149 -500h-66l-137 456l-135 -456h-66z" />
    <glyph glyph-name="x" unicode="x" horiz-adv-x="479" 
d="M389 0l-156 221l-166 -221h-44l186 249l-180 251h67l150 -213l158 213h44l-178 -241l186 -259h-67z" />
    <glyph glyph-name="y" unicode="y" horiz-adv-x="482" 
d="M110 -201q-50 0 -86 30l11 49q33 -30 77 -30q29 0 54.5 19.5t39.5 56.5l22 58l-207 518h59l176 -446l166 446h39l-219 -586q-44 -115 -132 -115z" />
    <glyph glyph-name="z" unicode="z" horiz-adv-x="454" 
d="M414 0h-373v30l305 436h-295v34h357v-30l-305 -436h311v-34z" />
    <glyph glyph-name="braceleft" unicode="{" horiz-adv-x="418" 
d="M390 -136h-78q-86 0 -130 39t-44 106q0 47 33.5 119.5t33.5 104.5q0 43 -33 62.5t-84 19.5h-35v33h35q50 0 82.5 20t32.5 63q0 31 -32.5 104t-32.5 120q0 67 44 106t130 39h78v-31h-67q-63 0 -97 -31.5t-34 -84.5q0 -41 31 -111.5t31 -101.5q0 -47 -32 -74.5t-83 -33.5
q51 -6 83 -33.5t32 -74.5q0 -32 -31 -102t-31 -111q0 -53 33.5 -84.5t97.5 -31.5h67v-31z" />
    <glyph glyph-name="bar" unicode="|" horiz-adv-x="237" 
d="M95 -135v935h47v-935h-47z" />
    <glyph glyph-name="braceright" unicode="}" horiz-adv-x="418" 
d="M28 -136v31h67q64 0 97.5 31.5t33.5 84.5q0 41 -31 111t-31 102q0 47 32 74.5t83 33.5q-51 6 -83 33.5t-32 74.5q0 31 31 101.5t31 111.5q0 53 -34 84.5t-97 31.5h-67v31h78q86 0 130 -39t44 -106q0 -47 -32.5 -120t-32.5 -104q0 -43 32.5 -63t82.5 -20h35v-33h-35
q-51 0 -84 -19.5t-33 -62.5q0 -32 33.5 -104.5t33.5 -119.5q0 -67 -44 -106t-130 -39h-78z" />
    <glyph glyph-name="asciitilde" unicode="~" horiz-adv-x="538" 
d="M166 411q34 0 63 -17t46.5 -38t43.5 -38t55 -17q32 0 51 23t19 59v22h29v-34q0 -50 -28 -82.5t-73 -32.5q-28 0 -51.5 11.5t-40.5 27.5l-33.5 32t-37 27.5t-44.5 11.5q-32 0 -51.5 -23t-19.5 -58v-22h-29v34q0 49 28 81.5t73 32.5z" />
    <glyph glyph-name="exclamdown" unicode="&#xa1;" horiz-adv-x="228" 
d="M144 499v-114h-62v114h62zM142 -191h-58v174l19 305h19l20 -305v-174z" />
    <glyph glyph-name="cent" unicode="&#xa2;" horiz-adv-x="526" 
d="M259 249l24 228q-78 0 -126 -62.5t-48 -162.5v-5q0 -82 34 -140.5t93 -76.5zM287 249l-24 -225q7 -1 22 -1q58 0 99 33.5t41 88.5q0 20 -4 36l52 -13q4 -13 4 -29q0 -66 -56 -108t-137 -42q-17 0 -25 1l-13 -125h-28l14 129q-82 18 -131.5 85t-49.5 169v4q0 118 65 188
t166 70h5l13 124h28l-13 -126q68 -8 113 -49t45 -100q0 -20 -3 -31l-53 -13q5 16 5 38q0 48 -31.5 80.5t-79.5 41.5z" />
    <glyph glyph-name="sterling" unicode="&#xa3;" horiz-adv-x="579" 
d="M520 46v-46h-459v23q59 57 88 105t29 99q0 29 -9 56h-108v33h96q-5 12 -19.5 40.5t-21.5 45t-14 44t-7 54.5q0 88 61 144.5t152 56.5q90 0 150 -49t60 -124q0 -34 -9 -63l-55 -14q11 39 11 70q0 64 -45 105t-112 41t-111.5 -44.5t-44.5 -114.5q0 -45 32 -112.5t36 -79.5
h218v-32h-210q3 -15 3 -33q0 -53 -28 -101t-82 -104h399z" />
    <glyph glyph-name="currency" unicode="&#xa4;" horiz-adv-x="548" 
d="M462 120l-68 70q-48 -39 -119 -39q-70 0 -120 39l-68 -70l-29 29l70 68q-38 47 -38 114q0 68 39 116l-70 68l28 28l68 -70q51 40 120 40q68 0 119 -40l68 71l28 -28l-71 -68q40 -50 40 -117q0 -68 -39 -115l70 -68zM138 331q0 -64 38.5 -106.5t97.5 -42.5q58 0 97 42.5
t39 106.5q0 66 -38.5 108.5t-97.5 42.5t-97.5 -42t-38.5 -109z" />
    <glyph glyph-name="yen" unicode="&#xa5;" horiz-adv-x="604" 
d="M502 161h-172v-161h-57v161h-171v32h171v85h-171v33h160l-224 379h63l210 -359l211 359h44l-225 -379h161v-33h-172v-85h172v-32z" />
    <glyph glyph-name="brokenbar" unicode="&#xa6;" horiz-adv-x="237" 
d="M95 421v379h47v-379h-47zM95 -135v379h47v-379h-47z" />
    <glyph glyph-name="section" unicode="&#xa7;" horiz-adv-x="617" 
d="M347 124q35 -13 52 -22q52 7 85 36t33 75q0 84 -113 124l-144 50q-22 8 -33 13q-55 -4 -90 -33.5t-35 -76.5q0 -79 100 -115zM304 -201q-81 0 -139.5 44t-58.5 115q0 17 6 32l50 14q-6 -18 -6 -36q0 -62 44 -99t105 -37q60 0 101 31.5t41 86.5q0 85 -111 124l-145 51
q-140 49 -140 151q0 56 41.5 92.5t110.5 44.5q-81 49 -81 132q0 69 51 112.5t131 43.5q75 0 128.5 -41.5t54.5 -111.5q0 -17 -4 -32l-52 -14q5 15 5 36q-1 62 -39.5 96t-93.5 34q-56 0 -93 -31.5t-37 -82.5q0 -82 97 -116l146 -51q153 -54 153 -160q0 -57 -41 -92.5
t-108 -44.5q78 -51 78 -131q0 -74 -55 -117t-139 -43z" />
    <glyph glyph-name="dieresis" unicode="&#xa8;" horiz-adv-x="420" 
d="M258 597v129h44v-129h-44zM118 597v129h44v-129h-44z" />
    <glyph glyph-name="copyright" unicode="&#xa9;" horiz-adv-x="0" 
 />
    <glyph glyph-name="ordfeminine" unicode="&#xaa;" horiz-adv-x="0" 
d="M363 460h-123v-460h-135v460h-84v78h84v69q0 88 45 135.5t130 47.5q101 0 150 -75l-55 -78q-33 58 -75 58q-32 0 -46 -20t-14 -65v-72h123v-78z" />
    <glyph glyph-name="guillemotleft" unicode="&#xab;" horiz-adv-x="487" 
d="M440 58l-203 182v35l203 182v-53l-164 -146l164 -147v-53zM242 58l-203 182v35l203 182v-53l-164 -146l164 -147v-53z" />
    <glyph glyph-name="logicalnot" unicode="&#xac;" horiz-adv-x="600" 
d="M526 149h-41v183h-411v39h452v-222z" />
    <glyph glyph-name="registered" unicode="&#xae;" horiz-adv-x="0" 
 />
    <glyph glyph-name="macron" unicode="&#xaf;" horiz-adv-x="420" 
d="M87 675h246v-36h-246v36z" />
    <glyph glyph-name="degree" unicode="&#xb0;" horiz-adv-x="375" 
d="M33 545q0 66 44 110t110 44q67 0 111 -44.5t44 -109.5t-44 -109t-111 -44t-110.5 44t-43.5 109zM73 545q0 -52 32.5 -88t81.5 -36t82 36t33 88q0 53 -33 89t-82 36t-81.5 -36t-32.5 -89z" />
    <glyph glyph-name="plusminus" unicode="&#xb1;" horiz-adv-x="600" 
d="M526 332h-206v-197h-40v197h-206v39h206v197h40v-197h206v-39zM74 0v39h452v-39h-452z" />
    <glyph glyph-name="acute" unicode="&#xb4;" horiz-adv-x="420" 
d="M190 597h-29l66 129h66z" />
    <glyph glyph-name="paragraph" unicode="&#xb6;" horiz-adv-x="588" 
d="M335 0h-50v277h-2q-121 0 -190 53.5t-69 152.5v3q0 98 69 151t190 53h230v-690h-50v656h-128v-656zM279 311h6v345h-6q-96 0 -148.5 -45t-52.5 -125v-4q0 -80 52.5 -125.5t148.5 -45.5z" />
    <glyph glyph-name="periodcentered" unicode="&#xb7;" horiz-adv-x="213" 
d="M77 254v114h62v-114h-62z" />
    <glyph glyph-name="cedilla" unicode="&#xb8;" horiz-adv-x="420" 
d="M218 -201q-62 0 -116 40l13 25q47 -38 98 -38q32 0 51 13t19 36q0 22 -15 35.5t-40 13.5q-33 0 -66 -24l-21 11l39 89v1h26v-1l-35 -79q29 27 71 27q35 0 57.5 -20t22.5 -53q0 -35 -28.5 -55.5t-75.5 -20.5z" />
    <glyph glyph-name="onesuperior" unicode="&#xb9;" horiz-adv-x="637" 
d="M589 224q0 -107 -77 -171.5t-185 -64.5q-129 0 -201 97.5t-72 250.5v1q0 164 78 264.5t211 100.5q93 0 160.5 -42t67.5 -107q0 -22 -7 -39l-126 -33q6 21 6 43q0 47 -28.5 76.5t-75.5 29.5q-70 0 -110 -80.5t-40 -225.5v-33q17 71 65.5 108.5t119.5 37.5q90 0 152 -59
t62 -154zM329 61q53 0 87.5 44t34.5 105v4q0 62 -33.5 105t-91.5 43q-59 0 -92.5 -43t-33.5 -105v-1q0 -62 38 -107t91 -45z" />
    <glyph glyph-name="ordmasculine" unicode="&#xba;" horiz-adv-x="403" 
d="M383 460h-143v-460h-135v460h-84v78h84v57q0 93 50 144t139 51q73 0 117.5 -34.5t44.5 -104.5l-103 -30q-4 34 -21.5 54t-40.5 20q-51 0 -51 -91v-66h143v-78z" />
    <glyph glyph-name="guillemotright" unicode="&#xbb;" horiz-adv-x="487" 
d="M47 58v53l164 147l-164 146v53l203 -182v-35zM245 58v53l164 147l-164 146v53l203 -182v-35z" />
    <glyph glyph-name="onequarter" unicode="&#xbc;" horiz-adv-x="640" 
d="M35 350q0 83 75 131.5t213 48.5q119 0 195.5 -35t76.5 -89q0 -12 -8 -30l-219 -23q5 20 5 26q0 18 -15 28.5t-40 10.5q-24 0 -38.5 -9.5t-14.5 -24.5q0 -30 45 -38l111 -17q189 -30 189 -163q0 -87 -77 -134t-221 -47q-130 0 -207.5 39.5t-77.5 96.5q0 15 9 27l222 18
q-5 -8 -5 -23q0 -20 17.5 -33t46.5 -13q26 0 41 10t15 26q0 30 -49 39l-103 17q-186 32 -186 161z" />
    <glyph glyph-name="onehalf" unicode="&#xbd;" horiz-adv-x="755" 
d="M592 92v8q-67 -112 -214 -112q-146 0 -237 99t-91 279q0 183 94.5 281.5t254.5 98.5q121 0 200 -58t79 -148q0 -30 -10 -60l-135 -27q8 33 8 68q0 60 -40.5 96.5t-101.5 36.5q-88 0 -142.5 -73.5t-54.5 -213.5q0 -142 53 -214.5t145 -72.5q78 0 124 51t46 134v12h-184v90
h308v-367h-89z" />
    <glyph glyph-name="threequarters" unicode="&#xbe;" horiz-adv-x="0" 
d="M592 92v8q-67 -112 -214 -112q-146 0 -237 99t-91 279q0 183 94.5 281.5t254.5 98.5q124 0 201.5 -55.5t77.5 -138.5q0 -35 -6 -57l-136 -28q5 37 5 60q0 57 -39.5 92t-102.5 35q-88 0 -142.5 -73.5t-54.5 -213.5q0 -142 53 -214.5t145 -72.5q78 0 124 51t46 134v12h-184
v90h308v-367h-89z" />
    <glyph glyph-name="questiondown" unicode="&#xbf;" horiz-adv-x="550" 
d="M308 499v-115h-60v115h60zM267 -168q76 0 125 42t49 108q0 34 -11 70l53 -13q10 -33 10 -63q0 -77 -63.5 -127.5t-163.5 -50.5q-96 0 -155 50t-59 129q0 44 21.5 78t52 56l60.5 44.5t51.5 57t21.5 79.5h38q0 -44 -14 -79.5t-35 -56.5t-46 -42l-46 -38t-35 -43t-14 -58
q0 -62 44 -102.5t116 -40.5z" />
    <glyph glyph-name="Agrave" unicode="&#xc0;" horiz-adv-x="616" 
d="M322 788h-29l-103 129h66zM450 242l-146 405l-145 -405h291zM537 0l-74 204h-318l-73 -204h-43l250 690h68l251 -690h-61z" />
    <glyph glyph-name="Aacute" unicode="&#xc1;" horiz-adv-x="616" 
d="M322 788h-29l66 129h66zM450 242l-146 405l-145 -405h291zM537 0l-74 204h-318l-73 -204h-43l250 690h68l251 -690h-61z" />
    <glyph glyph-name="Acircumflex" unicode="&#xc2;" horiz-adv-x="616" 
d="M400 788l-92 103l-92 -103h-34l95 130h62l95 -130h-34zM450 242l-146 405l-145 -405h291zM537 0l-74 204h-318l-73 -204h-43l250 690h68l251 -690h-61z" />
    <glyph glyph-name="Atilde" unicode="&#xc3;" horiz-adv-x="616" 
d="M168 799v20q0 43 20.5 69.5t55.5 26.5q22 0 40.5 -13t29 -28.5t26.5 -28.5t33 -13q23 0 36.5 18.5t13.5 49.5v10h25v-19q0 -43 -20.5 -70t-54.5 -27q-22 0 -40.5 13t-29.5 29t-27 29t-33 13q-22 0 -36 -19t-14 -50v-10h-25zM450 242l-146 405l-145 -405h291zM537 0
l-74 204h-318l-73 -204h-43l250 690h68l251 -690h-61z" />
    <glyph glyph-name="Adieresis" unicode="&#xc4;" horiz-adv-x="616" 
d="M356 788v129h44v-129h-44zM216 788v129h44v-129h-44zM450 242l-146 405l-145 -405h291zM537 0l-74 204h-318l-73 -204h-43l250 690h68l251 -690h-61z" />
    <glyph glyph-name="Aring" unicode="&#xc5;" horiz-adv-x="616" 
d="M308 785q-42 0 -70 22t-28 57t28 57t70 22q41 0 69.5 -22t28.5 -57t-28 -57t-70 -22zM308 804q27 0 44 17t17 43t-17 43t-44 17t-44 -17t-17 -43t17 -43t44 -17zM450 242l-146 405l-145 -405h291zM537 0l-74 204h-318l-73 -204h-43l250 690h68l251 -690h-61z" />
    <glyph glyph-name="AE" unicode="&#xc6;" horiz-adv-x="890" 
d="M450 242l-146 405l-145 -405h291zM537 0l-74 204h-318l-73 -204h-43l250 690h553v-39h-471l99 -272h331v-39h-317l110 -301h260v-39h-307z" />
    <glyph glyph-name="Ccedilla" unicode="&#xc7;" horiz-adv-x="675" 
d="M385 -201q-62 0 -116 40l13 25q48 -38 98 -38q32 0 51 13t19 36q0 22 -15 35.5t-40 13.5q-33 0 -66 -24l-21 11l35 79q-125 11 -203.5 105t-78.5 248v4q0 162 87 258t223 96q108 0 180.5 -56.5t72.5 -145.5q0 -25 -5 -45l-57 -15q7 27 7 53q0 77 -57.5 125t-140.5 48
q-108 0 -178 -85.5t-70 -232.5v-5q0 -147 70 -232t180 -85q85 0 143.5 48t58.5 126q0 24 -7 49l57 -15q4 -20 4 -44q0 -88 -73.5 -144t-183.5 -56h-4l-30 -68q29 27 71 27q35 0 57.5 -20t22.5 -53q0 -35 -28.5 -55.5t-75.5 -20.5z" />
    <glyph glyph-name="Egrave" unicode="&#xc8;" horiz-adv-x="554" 
d="M308 788h-29l-103 129h66zM89 0v690h419v-37h-360v-275h318v-37h-318v-304h371v-37h-430z" />
    <glyph glyph-name="Eacute" unicode="&#xc9;" horiz-adv-x="554" 
d="M308 788h-29l66 129h66zM89 0v690h419v-37h-360v-275h318v-37h-318v-304h371v-37h-430z" />
    <glyph glyph-name="Ecircumflex" unicode="&#xca;" horiz-adv-x="554" 
d="M385 788l-92 103l-92 -103h-34l95 130h62l95 -130h-34zM89 0v690h419v-37h-360v-275h318v-37h-318v-304h371v-37h-430z" />
    <glyph glyph-name="Edieresis" unicode="&#xcb;" horiz-adv-x="554" 
d="M341 788v129h44v-129h-44zM201 788v129h44v-129h-44zM89 0v690h419v-37h-360v-275h318v-37h-318v-304h371v-37h-430z" />
    <glyph glyph-name="Igrave" unicode="&#xcc;" horiz-adv-x="232" 
d="M131 788h-29l-103 129h66zM148 690v-690h-59v690h59z" />
    <glyph glyph-name="Iacute" unicode="&#xcd;" horiz-adv-x="232" 
d="M131 788h-29l66 129h66zM148 690v-690h-59v690h59z" />
    <glyph glyph-name="Icircumflex" unicode="&#xce;" horiz-adv-x="232" 
d="M208 788l-92 103l-92 -103h-34l95 130h62l95 -130h-34zM148 690v-690h-59v690h59z" />
    <glyph glyph-name="Idieresis" unicode="&#xcf;" horiz-adv-x="232" 
d="M164 788v129h44v-129h-44zM24 788v129h44v-129h-44zM148 690v-690h-59v690h59z" />
    <glyph glyph-name="Eth" unicode="&#xd0;" horiz-adv-x="687" 
d="M381 338h-211v-301h143q127 0 199 79t72 226v6q0 147 -72 226t-199 79h-143v-277h211v-38zM111 0v338h-97v38h97v314h204q153 0 241.5 -90t88.5 -254v-3q0 -163 -88.5 -253t-241.5 -90h-204z" />
    <glyph glyph-name="Ntilde" unicode="&#xd1;" horiz-adv-x="681" 
d="M212 799v20q0 43 20.5 69.5t55.5 26.5q22 0 40.5 -13t29 -28.5t26.5 -28.5t33 -13q23 0 36.5 18.5t13.5 49.5v10h25v-19q0 -43 -20.5 -70t-54.5 -27q-22 0 -40.5 13t-29.5 29t-27 29t-33 13q-22 0 -36 -19t-14 -50v-10h-25zM529 0l-399 640v-640h-41v690h76l398 -635v635
h41v-690h-75z" />
    <glyph glyph-name="Ograve" unicode="&#xd2;" horiz-adv-x="722" 
d="M375 788h-29l-103 129h66zM368 -11q-136 0 -221.5 96.5t-85.5 257.5v4q0 161 85.5 257.5t221.5 96.5q135 0 220.5 -96.5t85.5 -257.5v-4q0 -161 -85.5 -257.5t-220.5 -96.5zM368 25q109 0 177 85.5t68 231.5v6q0 146 -68 231.5t-177 85.5t-177 -85.5t-68 -231.5v-6
q0 -146 68 -231.5t177 -85.5z" />
    <glyph glyph-name="Oacute" unicode="&#xd3;" horiz-adv-x="722" 
d="M375 788h-29l66 129h66zM368 -11q-136 0 -221.5 96.5t-85.5 257.5v4q0 161 85.5 257.5t221.5 96.5q135 0 220.5 -96.5t85.5 -257.5v-4q0 -161 -85.5 -257.5t-220.5 -96.5zM368 25q109 0 177 85.5t68 231.5v6q0 146 -68 231.5t-177 85.5t-177 -85.5t-68 -231.5v-6
q0 -146 68 -231.5t177 -85.5z" />
    <glyph glyph-name="Ocircumflex" unicode="&#xd4;" horiz-adv-x="722" 
d="M453 788l-92 103l-92 -103h-34l95 130h62l95 -130h-34zM368 -11q-136 0 -221.5 96.5t-85.5 257.5v4q0 161 85.5 257.5t221.5 96.5q135 0 220.5 -96.5t85.5 -257.5v-4q0 -161 -85.5 -257.5t-220.5 -96.5zM368 25q109 0 177 85.5t68 231.5v6q0 146 -68 231.5t-177 85.5
t-177 -85.5t-68 -231.5v-6q0 -146 68 -231.5t177 -85.5z" />
    <glyph glyph-name="Otilde" unicode="&#xd5;" horiz-adv-x="722" 
d="M221 799v20q0 43 20.5 69.5t55.5 26.5q22 0 40.5 -13t29 -28.5t26.5 -28.5t33 -13q23 0 36.5 18.5t13.5 49.5v10h25v-19q0 -43 -20.5 -70t-54.5 -27q-22 0 -40.5 13t-29.5 29t-27 29t-33 13q-22 0 -36 -19t-14 -50v-10h-25zM368 -11q-136 0 -221.5 96.5t-85.5 257.5v4
q0 161 85.5 257.5t221.5 96.5q135 0 220.5 -96.5t85.5 -257.5v-4q0 -161 -85.5 -257.5t-220.5 -96.5zM368 25q109 0 177 85.5t68 231.5v6q0 146 -68 231.5t-177 85.5t-177 -85.5t-68 -231.5v-6q0 -146 68 -231.5t177 -85.5z" />
    <glyph glyph-name="Odieresis" unicode="&#xd6;" horiz-adv-x="722" 
d="M409 788v129h44v-129h-44zM269 788v129h44v-129h-44zM368 -11q-136 0 -221.5 96.5t-85.5 257.5v4q0 161 85.5 257.5t221.5 96.5q135 0 220.5 -96.5t85.5 -257.5v-4q0 -161 -85.5 -257.5t-220.5 -96.5zM368 25q109 0 177 85.5t68 231.5v6q0 146 -68 231.5t-177 85.5
t-177 -85.5t-68 -231.5v-6q0 -146 68 -231.5t177 -85.5z" />
    <glyph glyph-name="multiply" unicode="&#xd7;" horiz-adv-x="600" 
d="M469 150l-168 169l-171 -171l-27 27l171 171l-169 168l26 26l169 -168l170 170l27 -27l-170 -170l168 -168z" />
    <glyph glyph-name="Oslash" unicode="&#xd8;" horiz-adv-x="725" 
d="M123 342q0 -127 54 -211l355 464q-67 70 -164 70q-109 0 -177 -85.5t-68 -231.5v-6zM368 25q109 0 177 85.5t68 231.5v6q0 133 -59 219l-355 -466q67 -76 169 -76zM368 -11q-117 0 -199 73l-83 -109h-45l103 135q-83 97 -83 255v4q0 161 85.5 257.5t221.5 96.5
q113 0 192 -68l80 104h44l-98 -129q88 -99 88 -261v-4q0 -161 -85.5 -257.5t-220.5 -96.5z" />
    <glyph glyph-name="Ugrave" unicode="&#xd9;" horiz-adv-x="669" 
d="M357 788h-29l-103 129h66zM545 690h40v-452q0 -117 -67 -183t-183 -66q-115 0 -182.5 66t-67.5 183v452h60v-446q0 -99 52.5 -156.5t146.5 -57.5q93 0 147 57.5t54 156.5v446z" />
    <glyph glyph-name="Uacute" unicode="&#xda;" horiz-adv-x="669" 
d="M358 788h-29l66 129h66zM545 690h40v-452q0 -117 -67 -183t-183 -66q-115 0 -182.5 66t-67.5 183v452h60v-446q0 -99 52.5 -156.5t146.5 -57.5q93 0 147 57.5t54 156.5v446z" />
    <glyph glyph-name="Ucircumflex" unicode="&#xdb;" horiz-adv-x="669" 
d="M435 788l-92 103l-92 -103h-34l95 130h62l95 -130h-34zM545 690h40v-452q0 -117 -67 -183t-183 -66q-115 0 -182.5 66t-67.5 183v452h60v-446q0 -99 52.5 -156.5t146.5 -57.5q93 0 147 57.5t54 156.5v446z" />
    <glyph glyph-name="Udieresis" unicode="&#xdc;" horiz-adv-x="669" 
d="M391 788v129h44v-129h-44zM251 788v129h44v-129h-44zM545 690h40v-452q0 -117 -67 -183t-183 -66q-115 0 -182.5 66t-67.5 183v452h60v-446q0 -99 52.5 -156.5t146.5 -57.5q93 0 147 57.5t54 156.5v446z" />
    <glyph glyph-name="Yacute" unicode="&#xdd;" horiz-adv-x="584" 
d="M312 788h-29l66 129h66zM323 290v-290h-58v290l-240 400h65l214 -361l216 361h43z" />
    <glyph glyph-name="Thorn" unicode="&#xde;" horiz-adv-x="592" 
d="M305 520h-160v-333h160q90 0 139 43.5t49 120.5v4q0 77 -49 121t-139 44zM307 149h-162v-149h-59v690h59v-133h162q114 0 180 -52.5t66 -149.5v-3q0 -98 -66 -150.5t-180 -52.5z" />
    <glyph glyph-name="germandbls" unicode="&#xdf;" horiz-adv-x="0" 
 />
    <glyph glyph-name="agrave" unicode="&#xe0;" horiz-adv-x="542" 
d="M271 597h-29l-103 129h66zM219 23q74 0 121 57.5t47 136.5v59l-128 -27q-151 -32 -151 -124q0 -47 33 -74.5t78 -27.5zM201 -11q-62 0 -106 35.5t-44 96.5q0 118 195 157l141 28v26q0 71 -32.5 108.5t-96.5 37.5q-55 0 -95.5 -29t-40.5 -81q0 -22 9 -44l-54 10
q-7 26 -7 38q0 64 55 101.5t134 37.5q88 0 134.5 -47.5t46.5 -134.5v-218q0 -84 48 -84q22 0 39 16l5 -28q-18 -21 -57 -21q-42 0 -65.5 31t-23.5 88v13h1v8q-19 -65 -69 -105t-117 -40z" />
    <glyph glyph-name="aacute" unicode="&#xe1;" horiz-adv-x="542" 
d="M272 597h-29l66 129h66zM219 23q74 0 121 57.5t47 136.5v59l-128 -27q-151 -32 -151 -124q0 -47 33 -74.5t78 -27.5zM201 -11q-62 0 -106 35.5t-44 96.5q0 118 195 157l141 28v26q0 71 -32.5 108.5t-96.5 37.5q-55 0 -95.5 -29t-40.5 -81q0 -22 9 -44l-54 10q-7 26 -7 38
q0 64 55 101.5t134 37.5q88 0 134.5 -47.5t46.5 -134.5v-218q0 -84 48 -84q22 0 39 16l5 -28q-18 -21 -57 -21q-42 0 -65.5 31t-23.5 88v13h1v8q-19 -65 -69 -105t-117 -40z" />
    <glyph glyph-name="acircumflex" unicode="&#xe2;" horiz-adv-x="542" 
d="M349 597l-92 103l-92 -103h-34l95 130h62l95 -130h-34zM219 23q74 0 121 57.5t47 136.5v59l-128 -27q-151 -32 -151 -124q0 -47 33 -74.5t78 -27.5zM201 -11q-62 0 -106 35.5t-44 96.5q0 118 195 157l141 28v26q0 71 -32.5 108.5t-96.5 37.5q-55 0 -95.5 -29t-40.5 -81
q0 -22 9 -44l-54 10q-7 26 -7 38q0 64 55 101.5t134 37.5q88 0 134.5 -47.5t46.5 -134.5v-218q0 -84 48 -84q22 0 39 16l5 -28q-18 -21 -57 -21q-42 0 -65.5 31t-23.5 88v13h1v8q-19 -65 -69 -105t-117 -40z" />
    <glyph glyph-name="atilde" unicode="&#xe3;" horiz-adv-x="542" 
d="M117 608v20q0 43 20.5 69.5t55.5 26.5q22 0 40.5 -13t29 -28.5t26.5 -28.5t33 -13q23 0 36.5 18.5t13.5 49.5v10h25v-19q0 -43 -20.5 -70t-54.5 -27q-22 0 -40.5 13t-29.5 29t-27 29t-33 13q-22 0 -36 -19t-14 -50v-10h-25zM219 23q74 0 121 57.5t47 136.5v59l-128 -27
q-151 -32 -151 -124q0 -47 33 -74.5t78 -27.5zM201 -11q-62 0 -106 35.5t-44 96.5q0 118 195 157l141 28v26q0 71 -32.5 108.5t-96.5 37.5q-55 0 -95.5 -29t-40.5 -81q0 -22 9 -44l-54 10q-7 26 -7 38q0 64 55 101.5t134 37.5q88 0 134.5 -47.5t46.5 -134.5v-218
q0 -84 48 -84q22 0 39 16l5 -28q-18 -21 -57 -21q-42 0 -65.5 31t-23.5 88v13h1v8q-19 -65 -69 -105t-117 -40z" />
    <glyph glyph-name="adieresis" unicode="&#xe4;" horiz-adv-x="542" 
d="M305 597v129h44v-129h-44zM165 597v129h44v-129h-44zM219 23q74 0 121 57.5t47 136.5v59l-128 -27q-151 -32 -151 -124q0 -47 33 -74.5t78 -27.5zM201 -11q-62 0 -106 35.5t-44 96.5q0 118 195 157l141 28v26q0 71 -32.5 108.5t-96.5 37.5q-55 0 -95.5 -29t-40.5 -81
q0 -22 9 -44l-54 10q-7 26 -7 38q0 64 55 101.5t134 37.5q88 0 134.5 -47.5t46.5 -134.5v-218q0 -84 48 -84q22 0 39 16l5 -28q-18 -21 -57 -21q-42 0 -65.5 31t-23.5 88v13h1v8q-19 -65 -69 -105t-117 -40z" />
    <glyph glyph-name="aring" unicode="&#xe5;" horiz-adv-x="542" 
d="M257 594q-42 0 -70 22t-28 57t28 57t70 22q41 0 69.5 -22t28.5 -57t-28 -57t-70 -22zM257 613q27 0 44 17t17 43t-17 43t-44 17t-44 -17t-17 -43t17 -43t44 -17zM219 23q74 0 121 57.5t47 136.5v59l-128 -27q-151 -32 -151 -124q0 -47 33 -74.5t78 -27.5zM201 -11
q-62 0 -106 35.5t-44 96.5q0 118 195 157l141 28v26q0 71 -32.5 108.5t-96.5 37.5q-55 0 -95.5 -29t-40.5 -81q0 -22 9 -44l-54 10q-7 26 -7 38q0 64 55 101.5t134 37.5q88 0 134.5 -47.5t46.5 -134.5v-218q0 -84 48 -84q22 0 39 16l5 -28q-18 -21 -57 -21q-42 0 -65.5 31
t-23.5 88v13h1v8q-19 -65 -69 -105t-117 -40z" />
    <glyph glyph-name="ae" unicode="&#xe6;" horiz-adv-x="0" 
 />
    <glyph glyph-name="ccedilla" unicode="&#xe7;" horiz-adv-x="528" 
d="M312 -201q-62 0 -116 40l13 25q47 -38 98 -38q32 0 51 13t19 36q0 22 -15 35.5t-40 13.5q-33 0 -66 -24l-21 11l34 79q-95 6 -156.5 76t-61.5 182v4q0 118 66 188.5t169 70.5q81 0 138 -42.5t57 -108.5q0 -20 -3 -31l-53 -13q5 16 5 37q0 55 -42.5 89.5t-101.5 34.5
q-80 0 -128.5 -62t-48.5 -162v-6q0 -100 49 -162t130 -62q61 0 103 33.5t42 88.5q0 20 -4 36l52 -13q4 -13 4 -29q0 -64 -55 -106t-135 -44l-30 -68q29 27 71 27q35 0 57.5 -20t22.5 -53q0 -35 -28.5 -55.5t-75.5 -20.5z" />
    <glyph glyph-name="egrave" unicode="&#xe8;" horiz-adv-x="549" 
d="M291 597h-29l-103 129h66zM281 477q-70 0 -118 -52.5t-53 -147.5h336q-4 97 -49 148.5t-116 51.5zM499 164q-1 -77 -62.5 -126t-147.5 -49q-100 0 -169 69.5t-69 189.5v4q0 120 66 189.5t164 69.5t161 -68t63 -188v-11h-396q1 -105 53 -163t127 -58q66 0 113 43.5
t41 111.5z" />
    <glyph glyph-name="eacute" unicode="&#xe9;" horiz-adv-x="549" 
d="M292 597h-29l66 129h66zM281 477q-70 0 -118 -52.5t-53 -147.5h336q-4 97 -49 148.5t-116 51.5zM499 164q-1 -77 -62.5 -126t-147.5 -49q-100 0 -169 69.5t-69 189.5v4q0 120 66 189.5t164 69.5t161 -68t63 -188v-11h-396q1 -105 53 -163t127 -58q66 0 113 43.5t41 111.5
z" />
    <glyph glyph-name="ecircumflex" unicode="&#xea;" horiz-adv-x="549" 
d="M369 597l-92 103l-92 -103h-34l95 130h62l95 -130h-34zM281 477q-70 0 -118 -52.5t-53 -147.5h336q-4 97 -49 148.5t-116 51.5zM499 164q-1 -77 -62.5 -126t-147.5 -49q-100 0 -169 69.5t-69 189.5v4q0 120 66 189.5t164 69.5t161 -68t63 -188v-11h-396q1 -105 53 -163
t127 -58q66 0 113 43.5t41 111.5z" />
    <glyph glyph-name="edieresis" unicode="&#xeb;" horiz-adv-x="549" 
d="M325 597v129h44v-129h-44zM185 597v129h44v-129h-44zM281 477q-70 0 -118 -52.5t-53 -147.5h336q-4 97 -49 148.5t-116 51.5zM499 164q-1 -77 -62.5 -126t-147.5 -49q-100 0 -169 69.5t-69 189.5v4q0 120 66 189.5t164 69.5t161 -68t63 -188v-11h-396q1 -105 53 -163
t127 -58q66 0 113 43.5t41 111.5z" />
    <glyph glyph-name="igrave" unicode="&#xec;" horiz-adv-x="207" 
d="M118 597h-29l-103 129h66zM79 0v500h54v-500h-54z" />
    <glyph glyph-name="iacute" unicode="&#xed;" horiz-adv-x="207" 
d="M118 597h-29l66 129h66zM79 0v500h54v-500h-54z" />
    <glyph glyph-name="icircumflex" unicode="&#xee;" horiz-adv-x="207" 
d="M195 597l-92 103l-92 -103h-34l95 130h62l95 -130h-34zM79 0v500h54v-500h-54z" />
    <glyph glyph-name="idieresis" unicode="&#xef;" horiz-adv-x="207" 
d="M151 597v129h44v-129h-44zM11 597v129h44v-129h-44zM79 0v500h54v-500h-54z" />
    <glyph glyph-name="eth" unicode="&#xf0;" horiz-adv-x="557" 
d="M279 -11q-95 0 -161.5 65t-66.5 175v2q0 106 63.5 169.5t150.5 63.5q65 0 116 -39.5t71 -110.5q-18 174 -186 303l-81 -81l-22 22l78 78q-52 36 -111 65l31 36q59 -28 114 -67l68 68l22 -22l-65 -65q104 -82 155.5 -184.5t51.5 -213.5v-7q0 -117 -66.5 -187t-161.5 -70z
M279 23q72 0 121 54t49 147v5q0 94 -49 148t-121 54q-71 0 -120.5 -54.5t-49.5 -147.5v-5q0 -93 49.5 -147t120.5 -54z" />
    <glyph glyph-name="ntilde" unicode="&#xf1;" 
d="M163 608v20q0 43 20.5 69.5t55.5 26.5q22 0 40.5 -13t29 -28.5t26.5 -28.5t33 -13q23 0 36.5 18.5t13.5 49.5v10h25v-19q0 -43 -20.5 -70t-54.5 -27q-22 0 -40.5 13t-29.5 29t-27 29t-33 13q-22 0 -36 -19t-14 -50v-10h-25zM132 272v-272h-53v500h51l-1 -145
q17 72 66 114t121 42q77 0 124.5 -51t47.5 -149v-311h-53v308q0 77 -38 119.5t-102 42.5q-74 0 -118.5 -53.5t-44.5 -144.5z" />
    <glyph glyph-name="ograve" unicode="&#xf2;" 
d="M293 597h-29l-103 129h66zM282 -11q-99 0 -165 69.5t-66 189.5v4q0 120 66 189.5t165 69.5q98 0 164.5 -69.5t66.5 -189.5v-4q0 -120 -66.5 -189.5t-164.5 -69.5zM282 23q74 0 123 58.5t49 164.5v7q0 106 -49 165t-123 59q-75 0 -124 -59t-49 -165v-7q0 -106 49 -164.5
t124 -58.5z" />
    <glyph glyph-name="oacute" unicode="&#xf3;" 
d="M294 597h-29l66 129h66zM282 -11q-99 0 -165 69.5t-66 189.5v4q0 120 66 189.5t165 69.5q98 0 164.5 -69.5t66.5 -189.5v-4q0 -120 -66.5 -189.5t-164.5 -69.5zM282 23q74 0 123 58.5t49 164.5v7q0 106 -49 165t-123 59q-75 0 -124 -59t-49 -165v-7q0 -106 49 -164.5
t124 -58.5z" />
    <glyph glyph-name="ocircumflex" unicode="&#xf4;" 
d="M371 597l-92 103l-92 -103h-34l95 130h62l95 -130h-34zM282 -11q-99 0 -165 69.5t-66 189.5v4q0 120 66 189.5t165 69.5q98 0 164.5 -69.5t66.5 -189.5v-4q0 -120 -66.5 -189.5t-164.5 -69.5zM282 23q74 0 123 58.5t49 164.5v7q0 106 -49 165t-123 59q-75 0 -124 -59
t-49 -165v-7q0 -106 49 -164.5t124 -58.5z" />
    <glyph glyph-name="otilde" unicode="&#xf5;" 
d="M139 608v20q0 43 20.5 69.5t55.5 26.5q22 0 40.5 -13t29 -28.5t26.5 -28.5t33 -13q23 0 36.5 18.5t13.5 49.5v10h25v-19q0 -43 -20.5 -70t-54.5 -27q-22 0 -40.5 13t-29.5 29t-27 29t-33 13q-22 0 -36 -19t-14 -50v-10h-25zM282 -11q-99 0 -165 69.5t-66 189.5v4
q0 120 66 189.5t165 69.5q98 0 164.5 -69.5t66.5 -189.5v-4q0 -120 -66.5 -189.5t-164.5 -69.5zM282 23q74 0 123 58.5t49 164.5v7q0 106 -49 165t-123 59q-75 0 -124 -59t-49 -165v-7q0 -106 49 -164.5t124 -58.5z" />
    <glyph glyph-name="odieresis" unicode="&#xf6;" 
d="M327 597v129h44v-129h-44zM187 597v129h44v-129h-44zM282 -11q-99 0 -165 69.5t-66 189.5v4q0 120 66 189.5t165 69.5q98 0 164.5 -69.5t66.5 -189.5v-4q0 -120 -66.5 -189.5t-164.5 -69.5zM282 23q74 0 123 58.5t49 164.5v7q0 106 -49 165t-123 59q-75 0 -124 -59
t-49 -165v-7q0 -106 49 -164.5t124 -58.5z" />
    <glyph glyph-name="divide" unicode="&#xf7;" horiz-adv-x="600" 
d="M278 462v99h44v-99h-44zM74 326v38h452v-38h-452zM278 129v99h44v-99h-44z" />
    <glyph glyph-name="oslash" unicode="&#xf8;" horiz-adv-x="563" 
d="M109 246q0 -89 37 -147l253 326q-47 52 -117 52q-75 0 -124 -59t-49 -165v-7zM282 23q74 0 123 58.5t49 164.5v7q0 88 -36 147l-254 -326q46 -51 118 -51zM282 -11q-84 0 -145 50l-67 -86h-38l83 107q-64 72 -64 188v4q0 120 66 189.5t165 69.5q86 0 144 -51l67 86h38
l-83 -106q65 -72 65 -188v-4q0 -120 -66.5 -189.5t-164.5 -69.5z" />
    <glyph glyph-name="ugrave" unicode="&#xf9;" 
d="M292 597h-29l-103 129h66zM434 0l1 145q-17 -72 -66 -114t-121 -42q-77 0 -124.5 51t-47.5 149v311h53v-308q0 -77 38 -119.5t102 -42.5q74 0 118.5 53.5t44.5 144.5v272h53v-500h-51z" />
    <glyph glyph-name="uacute" unicode="&#xfa;" 
d="M292 597h-29l66 129h66zM434 0l1 145q-17 -72 -66 -114t-121 -42q-77 0 -124.5 51t-47.5 149v311h53v-308q0 -77 38 -119.5t102 -42.5q74 0 118.5 53.5t44.5 144.5v272h53v-500h-51z" />
    <glyph glyph-name="ucircumflex" unicode="&#xfb;" 
d="M370 597l-92 103l-92 -103h-34l95 130h62l95 -130h-34zM434 0l1 145q-17 -72 -66 -114t-121 -42q-77 0 -124.5 51t-47.5 149v311h53v-308q0 -77 38 -119.5t102 -42.5q74 0 118.5 53.5t44.5 144.5v272h53v-500h-51z" />
    <glyph glyph-name="udieresis" unicode="&#xfc;" 
d="M326 597v129h44v-129h-44zM186 597v129h44v-129h-44zM434 0l1 145q-17 -72 -66 -114t-121 -42q-77 0 -124.5 51t-47.5 149v311h53v-308q0 -77 38 -119.5t102 -42.5q74 0 118.5 53.5t44.5 144.5v272h53v-500h-51z" />
    <glyph glyph-name="yacute" unicode="&#xfd;" horiz-adv-x="485" 
d="M274 597h-29l66 129h66zM110 -201q-50 0 -86 30l11 49q33 -30 77 -30q29 0 54.5 19.5t39.5 56.5l22 58l-207 518h59l176 -446l166 446h39l-219 -586q-44 -115 -132 -115z" />
    <glyph glyph-name="thorn" unicode="&#xfe;" horiz-adv-x="590" 
d="M297 23q74 0 122 58.5t48 164.5v7q0 106 -48 165t-122 59q-73 0 -121.5 -59.5t-48.5 -164.5v-7q0 -104 48.5 -163.5t121.5 -59.5zM313 -11q-63 0 -111.5 36.5t-71.5 104.5v-322h-54v918h53v-364q22 72 71.5 110.5t113.5 38.5q90 0 150.5 -69t60.5 -190v-4
q0 -121 -60.5 -190t-151.5 -69z" />
    <glyph glyph-name="ydieresis" unicode="&#xff;" horiz-adv-x="485" 
d="M308 597v129h44v-129h-44zM168 597v129h44v-129h-44zM110 -201q-50 0 -86 30l11 49q33 -30 77 -30q29 0 54.5 19.5t39.5 56.5l22 58l-207 518h59l176 -446l166 446h39l-219 -586q-44 -115 -132 -115z" />
    <glyph glyph-name="Amacron" unicode="&#x100;" horiz-adv-x="616" 
d="M185 866h246v-36h-246v36zM450 242l-146 405l-145 -405h291zM537 0l-74 204h-318l-73 -204h-43l250 690h68l251 -690h-61z" />
    <glyph glyph-name="amacron" unicode="&#x101;" horiz-adv-x="542" 
d="M134 675h246v-36h-246v36zM219 23q74 0 121 57.5t47 136.5v59l-128 -27q-151 -32 -151 -124q0 -47 33 -74.5t78 -27.5zM201 -11q-62 0 -106 35.5t-44 96.5q0 118 195 157l141 28v26q0 71 -32.5 108.5t-96.5 37.5q-55 0 -95.5 -29t-40.5 -81q0 -22 9 -44l-54 10
q-7 26 -7 38q0 64 55 101.5t134 37.5q88 0 134.5 -47.5t46.5 -134.5v-218q0 -84 48 -84q22 0 39 16l5 -28q-18 -21 -57 -21q-42 0 -65.5 31t-23.5 88v13h1v8q-19 -65 -69 -105t-117 -40z" />
    <glyph glyph-name="Abreve" unicode="&#x102;" horiz-adv-x="616" 
d="M308 828q39 0 64.5 25.5t25.5 63.5h29q0 -55 -33.5 -91t-85.5 -36t-85.5 36t-33.5 91h29q0 -38 25.5 -63.5t64.5 -25.5zM450 242l-146 405l-145 -405h291zM537 0l-74 204h-318l-73 -204h-43l250 690h68l251 -690h-61z" />
    <glyph glyph-name="abreve" unicode="&#x103;" horiz-adv-x="542" 
d="M257 637q39 0 64.5 25.5t25.5 63.5h29q0 -55 -33.5 -91t-85.5 -36t-85.5 36t-33.5 91h29q0 -38 25.5 -63.5t64.5 -25.5zM219 23q74 0 121 57.5t47 136.5v59l-128 -27q-151 -32 -151 -124q0 -47 33 -74.5t78 -27.5zM201 -11q-62 0 -106 35.5t-44 96.5q0 118 195 157
l141 28v26q0 71 -32.5 108.5t-96.5 37.5q-55 0 -95.5 -29t-40.5 -81q0 -22 9 -44l-54 10q-7 26 -7 38q0 64 55 101.5t134 37.5q88 0 134.5 -47.5t46.5 -134.5v-218q0 -84 48 -84q22 0 39 16l5 -28q-18 -21 -57 -21q-42 0 -65.5 31t-23.5 88v13h1v8q-19 -65 -69 -105
t-117 -40z" />
    <glyph glyph-name="Aogonek" unicode="&#x104;" horiz-adv-x="616" 
d="M450 242l-146 405l-145 -405h291zM641 -165q-41 -36 -92 -36q-41 0 -67 20.5t-26 54.5q0 66 102 126h-21l-74 204h-318l-73 -204h-43l250 690h68l251 -690h-6q-91 -66 -91 -120q0 -24 16 -38t42 -14q34 0 68 31z" />
    <glyph glyph-name="aogonek" unicode="&#x105;" horiz-adv-x="542" 
d="M490 -186q-41 0 -67 20.5t-26 54.5q0 54 71 105q-39 3 -60.5 33.5t-21.5 85.5v13h1v8q-19 -65 -69 -105t-117 -40q-62 0 -106 35.5t-44 96.5q0 118 195 157l141 28v26q0 71 -32.5 108.5t-96.5 37.5q-55 0 -95.5 -29t-40.5 -81q0 -22 9 -44l-54 10q-7 26 -7 38
q0 64 55 101.5t134 37.5q88 0 134.5 -47.5t46.5 -134.5v-218q0 -84 48 -84q22 0 39 16l5 -28h1q-2 -2 -3 -2q-4 -4 -10 -8q-78 -59 -78 -110q0 -24 16 -38t42 -14q34 0 68 31l14 -24q-41 -36 -92 -36zM219 23q74 0 121 57.5t47 136.5v59l-128 -27q-151 -32 -151 -124
q0 -47 33 -74.5t78 -27.5z" />
    <glyph glyph-name="Cacute" unicode="&#x106;" horiz-adv-x="675" 
d="M379 788h-29l66 129h66zM568 248l57 -15q4 -20 4 -44q0 -88 -73.5 -144t-183.5 -56q-137 0 -224 95.5t-87 258.5v4q0 162 87 258t223 96q108 0 180.5 -56.5t72.5 -145.5q0 -25 -5 -45l-57 -15q7 27 7 53q0 77 -57.5 125t-140.5 48q-108 0 -178 -85.5t-70 -232.5v-5
q0 -147 70 -232t180 -85q85 0 143.5 48t58.5 126q0 24 -7 49z" />
    <glyph glyph-name="cacute" unicode="&#x107;" horiz-adv-x="528" 
d="M298 597h-29l66 129h66zM425 316q5 16 5 37q0 55 -42.5 89.5t-101.5 34.5q-80 0 -128.5 -62t-48.5 -162v-6q0 -100 49 -162t130 -62q61 0 103 33.5t42 88.5q0 20 -4 36l52 -13q4 -13 4 -29q0 -66 -57.5 -108t-139.5 -42q-103 0 -170 70.5t-67 188.5v4q0 118 66 188.5
t169 70.5q81 0 138 -42.5t57 -108.5q0 -20 -3 -31z" />
    <glyph glyph-name="Ccircumflex" unicode="&#x108;" horiz-adv-x="675" 
d="M457 788l-92 103l-92 -103h-34l95 130h62l95 -130h-34zM568 248l57 -15q4 -20 4 -44q0 -88 -73.5 -144t-183.5 -56q-137 0 -224 95.5t-87 258.5v4q0 162 87 258t223 96q108 0 180.5 -56.5t72.5 -145.5q0 -25 -5 -45l-57 -15q7 27 7 53q0 77 -57.5 125t-140.5 48
q-108 0 -178 -85.5t-70 -232.5v-5q0 -147 70 -232t180 -85q85 0 143.5 48t58.5 126q0 24 -7 49z" />
    <glyph glyph-name="ccircumflex" unicode="&#x109;" horiz-adv-x="528" 
d="M376 597l-92 103l-92 -103h-34l95 130h62l95 -130h-34zM425 316q5 16 5 37q0 55 -42.5 89.5t-101.5 34.5q-80 0 -128.5 -62t-48.5 -162v-6q0 -100 49 -162t130 -62q61 0 103 33.5t42 88.5q0 20 -4 36l52 -13q4 -13 4 -29q0 -66 -57.5 -108t-139.5 -42q-103 0 -170 70.5
t-67 188.5v4q0 118 66 188.5t169 70.5q81 0 138 -42.5t57 -108.5q0 -20 -3 -31z" />
    <glyph glyph-name="Cdotaccent" unicode="&#x10a;" horiz-adv-x="675" 
d="M338 788v129h54v-129h-54zM568 248l57 -15q4 -20 4 -44q0 -88 -73.5 -144t-183.5 -56q-137 0 -224 95.5t-87 258.5v4q0 162 87 258t223 96q108 0 180.5 -56.5t72.5 -145.5q0 -25 -5 -45l-57 -15q7 27 7 53q0 77 -57.5 125t-140.5 48q-108 0 -178 -85.5t-70 -232.5v-5
q0 -147 70 -232t180 -85q85 0 143.5 48t58.5 126q0 24 -7 49z" />
    <glyph glyph-name="cdotaccent" unicode="&#x10b;" horiz-adv-x="528" 
d="M257 597v129h54v-129h-54zM425 316q5 16 5 37q0 55 -42.5 89.5t-101.5 34.5q-80 0 -128.5 -62t-48.5 -162v-6q0 -100 49 -162t130 -62q61 0 103 33.5t42 88.5q0 20 -4 36l52 -13q4 -13 4 -29q0 -66 -57.5 -108t-139.5 -42q-103 0 -170 70.5t-67 188.5v4q0 118 66 188.5
t169 70.5q81 0 138 -42.5t57 -108.5q0 -20 -3 -31z" />
    <glyph glyph-name="Ccaron" unicode="&#x10c;" horiz-adv-x="675" 
d="M334 787l-95 130h34l92 -103l92 103h34l-95 -130h-62zM568 248l57 -15q4 -20 4 -44q0 -88 -73.5 -144t-183.5 -56q-137 0 -224 95.5t-87 258.5v4q0 162 87 258t223 96q108 0 180.5 -56.5t72.5 -145.5q0 -25 -5 -45l-57 -15q7 27 7 53q0 77 -57.5 125t-140.5 48
q-108 0 -178 -85.5t-70 -232.5v-5q0 -147 70 -232t180 -85q85 0 143.5 48t58.5 126q0 24 -7 49z" />
    <glyph glyph-name="ccaron" unicode="&#x10d;" horiz-adv-x="528" 
d="M253 596l-95 130h34l92 -103l92 103h34l-95 -130h-62zM425 316q5 16 5 37q0 55 -42.5 89.5t-101.5 34.5q-80 0 -128.5 -62t-48.5 -162v-6q0 -100 49 -162t130 -62q61 0 103 33.5t42 88.5q0 20 -4 36l52 -13q4 -13 4 -29q0 -66 -57.5 -108t-139.5 -42q-103 0 -170 70.5
t-67 188.5v4q0 118 66 188.5t169 70.5q81 0 138 -42.5t57 -108.5q0 -20 -3 -31z" />
    <glyph glyph-name="Dcaron" unicode="&#x10e;" horiz-adv-x="664" 
d="M292 653h-143v-616h143q127 0 199 79t72 226v6q0 147 -72 226t-199 79zM90 0v690h204q153 0 241.5 -90t88.5 -254v-3q0 -163 -88.5 -253t-241.5 -90h-204z" />
    <glyph glyph-name="dcaron" unicode="&#x10f;" horiz-adv-x="574" 
d="M606 605h-27l18 121h59zM109 246q0 -106 48 -164.5t122 -58.5q73 0 121.5 59.5t48.5 163.5v7q0 105 -48.5 164.5t-121.5 59.5q-74 0 -122 -59t-48 -165v-7zM450 0v143q-20 -75 -70.5 -114.5t-116.5 -39.5q-91 0 -151.5 69t-60.5 190v4q0 121 60.5 190t150.5 69
q64 0 113.5 -38.5t71.5 -110.5v364h53v-726h-50z" />
    <glyph glyph-name="Dcroat" unicode="&#x110;" horiz-adv-x="687" 
d="M381 338h-211v-301h143q127 0 199 79t72 226v6q0 147 -72 226t-199 79h-143v-277h211v-38zM111 0v338h-97v38h97v314h204q153 0 241.5 -90t88.5 -254v-3q0 -163 -88.5 -253t-241.5 -90h-204z" />
    <glyph glyph-name="dcroat" unicode="&#x111;" horiz-adv-x="587" 
d="M109 246q0 -106 48 -164.5t122 -58.5q73 0 121.5 59.5t48.5 163.5v7q0 105 -48.5 164.5t-121.5 59.5q-74 0 -122 -59t-48 -165v-7zM450 0v143q-20 -75 -70.5 -114.5t-116.5 -39.5q-91 0 -151.5 69t-60.5 190v4q0 121 60.5 190t150.5 69q64 0 113.5 -38.5t71.5 -110.5v243
h-161v34h161v87h53v-87h93v-34h-93v-605h-50z" />
    <glyph glyph-name="Emacron" unicode="&#x112;" horiz-adv-x="554" 
d="M171 866h246v-36h-246v36zM89 0v690h419v-37h-360v-275h318v-37h-318v-304h371v-37h-430z" />
    <glyph glyph-name="emacron" unicode="&#x113;" horiz-adv-x="549" 
d="M154 675h246v-36h-246v36zM281 477q-70 0 -118 -52.5t-53 -147.5h336q-4 97 -49 148.5t-116 51.5zM499 164q-1 -77 -62.5 -126t-147.5 -49q-100 0 -169 69.5t-69 189.5v4q0 120 66 189.5t164 69.5t161 -68t63 -188v-11h-396q1 -105 53 -163t127 -58q66 0 113 43.5
t41 111.5z" />
    <glyph glyph-name="Ebreve" unicode="&#x114;" horiz-adv-x="554" 
d="M293 828q39 0 64.5 25.5t25.5 63.5h29q0 -55 -33.5 -91t-85.5 -36t-85.5 36t-33.5 91h29q0 -38 25.5 -63.5t64.5 -25.5zM89 0v690h419v-37h-360v-275h318v-37h-318v-304h371v-37h-430z" />
    <glyph glyph-name="ebreve" unicode="&#x115;" horiz-adv-x="549" 
d="M277 637q39 0 64.5 25.5t25.5 63.5h29q0 -55 -33.5 -91t-85.5 -36t-85.5 36t-33.5 91h29q0 -38 25.5 -63.5t64.5 -25.5zM281 477q-70 0 -118 -52.5t-53 -147.5h336q-4 97 -49 148.5t-116 51.5zM499 164q-1 -77 -62.5 -126t-147.5 -49q-100 0 -169 69.5t-69 189.5v4
q0 120 66 189.5t164 69.5t161 -68t63 -188v-11h-396q1 -105 53 -163t127 -58q66 0 113 43.5t41 111.5z" />
    <glyph glyph-name="Edotaccent" unicode="&#x116;" horiz-adv-x="554" 
d="M266 788v129h54v-129h-54zM89 0v690h419v-37h-360v-275h318v-37h-318v-304h371v-37h-430z" />
    <glyph glyph-name="edotaccent" unicode="&#x117;" horiz-adv-x="549" 
d="M250 597v129h54v-129h-54zM281 477q-70 0 -118 -52.5t-53 -147.5h336q-4 97 -49 148.5t-116 51.5zM499 164q-1 -77 -62.5 -126t-147.5 -49q-100 0 -169 69.5t-69 189.5v4q0 120 66 189.5t164 69.5t161 -68t63 -188v-11h-396q1 -105 53 -163t127 -58q66 0 113 43.5
t41 111.5z" />
    <glyph glyph-name="Eogonek" unicode="&#x118;" horiz-adv-x="554" 
d="M561 -165q-41 -36 -92 -36q-41 0 -67 20.5t-26 54.5q0 66 102 126h-389v690h419v-37h-360v-275h318v-37h-318v-304h371v-37h-7q-91 -66 -91 -120q0 -24 16 -38t42 -14q34 0 68 31z" />
    <glyph glyph-name="eogonek" unicode="&#x119;" horiz-adv-x="549" 
d="M281 477q-70 0 -118 -52.5t-53 -147.5h336q-4 97 -49 148.5t-116 51.5zM364 -165q-41 -36 -92 -36q-41 0 -67 20.5t-26 54.5q0 60 87 116q-92 9 -153.5 77t-61.5 181v4q0 120 66 189.5t164 69.5t161 -68t63 -188v-11h-396q1 -105 53 -163t127 -58q66 0 113 43.5t41 111.5
l56 -14q-1 -74 -58 -122.5t-140 -52.5q-77 -58 -77 -109q0 -24 16 -38t42 -14q34 0 68 31z" />
    <glyph glyph-name="Ecaron" unicode="&#x11a;" horiz-adv-x="554" 
d="M262 787l-95 130h34l92 -103l92 103h34l-95 -130h-62zM89 0v690h419v-37h-360v-275h318v-37h-318v-304h371v-37h-430z" />
    <glyph glyph-name="ecaron" unicode="&#x11b;" horiz-adv-x="549" 
d="M246 596l-95 130h34l92 -103l92 103h34l-95 -130h-62zM281 477q-70 0 -118 -52.5t-53 -147.5h336q-4 97 -49 148.5t-116 51.5zM499 164q-1 -77 -62.5 -126t-147.5 -49q-100 0 -169 69.5t-69 189.5v4q0 120 66 189.5t164 69.5t161 -68t63 -188v-11h-396q1 -105 53 -163
t127 -58q66 0 113 43.5t41 111.5z" />
    <glyph glyph-name="Gcircumflex" unicode="&#x11c;" horiz-adv-x="681" 
d="M456 788l-92 103l-92 -103h-34l95 130h62l95 -130h-34zM589 0l-7 197q-19 -96 -78.5 -152t-149.5 -56q-124 0 -208.5 96.5t-84.5 257.5v5q0 160 88 256.5t224 96.5q105 0 178.5 -54t73.5 -142q0 -20 -6 -44l-56 -15q7 25 7 50q0 76 -58 122.5t-140 46.5
q-107 0 -178 -85.5t-71 -230.5v-7q0 -147 68.5 -231t171.5 -84q94 0 153 71t59 186v7h-219v37h272v-328h-39z" />
    <glyph glyph-name="gcircumflex" unicode="&#x11d;" horiz-adv-x="535" 
d="M356 597l-92 103l-92 -103h-34l95 130h62l95 -130h-34zM414 337v3q0 61 -42 100t-105 39t-106 -39t-43 -100v-3q0 -62 42.5 -100.5t106.5 -38.5q63 0 105 38.5t42 100.5zM511 -56q0 -39 -21.5 -68.5t-58 -45.5t-78 -23.5t-86.5 -7.5q-106 0 -168 34.5t-62 89.5
q0 38 32.5 65.5t86.5 38.5q-42 7 -67 29t-25 54q0 30 23 52t63 33q-87 48 -87 143v2q0 76 58.5 123.5t145.5 47.5q64 0 113 -26q5 46 34 74t69 28q22 0 46 -10l-9 -44q-20 10 -40 10q-30 0 -55.5 -19t-31.5 -47q77 -49 77 -137v-2q0 -77 -57.5 -124t-145.5 -47q-52 0 -95 17
q-62 -12 -62 -57q0 -26 24.5 -41.5t64.5 -15.5h131q86 0 133.5 -34t47.5 -92zM268 -169q48 0 89 9.5t70.5 34t29.5 60.5q0 39 -35.5 64.5t-101.5 25.5h-97q-57 0 -95 -26.5t-38 -65.5q0 -45 47 -73.5t131 -28.5z" />
    <glyph glyph-name="Gbreve" unicode="&#x11e;" horiz-adv-x="681" 
d="M364 828q39 0 64.5 25.5t25.5 63.5h29q0 -55 -33.5 -91t-85.5 -36t-85.5 36t-33.5 91h29q0 -38 25.5 -63.5t64.5 -25.5zM589 0l-7 197q-19 -96 -78.5 -152t-149.5 -56q-124 0 -208.5 96.5t-84.5 257.5v5q0 160 88 256.5t224 96.5q105 0 178.5 -54t73.5 -142q0 -20 -6 -44
l-56 -15q7 25 7 50q0 76 -58 122.5t-140 46.5q-107 0 -178 -85.5t-71 -230.5v-7q0 -147 68.5 -231t171.5 -84q94 0 153 71t59 186v7h-219v37h272v-328h-39z" />
    <glyph glyph-name="gbreve" unicode="&#x11f;" horiz-adv-x="535" 
d="M264 637q39 0 64.5 25.5t25.5 63.5h29q0 -55 -33.5 -91t-85.5 -36t-85.5 36t-33.5 91h29q0 -38 25.5 -63.5t64.5 -25.5zM414 337v3q0 61 -42 100t-105 39t-106 -39t-43 -100v-3q0 -62 42.5 -100.5t106.5 -38.5q63 0 105 38.5t42 100.5zM511 -56q0 -39 -21.5 -68.5
t-58 -45.5t-78 -23.5t-86.5 -7.5q-106 0 -168 34.5t-62 89.5q0 38 32.5 65.5t86.5 38.5q-42 7 -67 29t-25 54q0 30 23 52t63 33q-87 48 -87 143v2q0 76 58.5 123.5t145.5 47.5q64 0 113 -26q5 46 34 74t69 28q22 0 46 -10l-9 -44q-20 10 -40 10q-30 0 -55.5 -19t-31.5 -47
q77 -49 77 -137v-2q0 -77 -57.5 -124t-145.5 -47q-52 0 -95 17q-62 -12 -62 -57q0 -26 24.5 -41.5t64.5 -15.5h131q86 0 133.5 -34t47.5 -92zM268 -169q48 0 89 9.5t70.5 34t29.5 60.5q0 39 -35.5 64.5t-101.5 25.5h-97q-57 0 -95 -26.5t-38 -65.5q0 -45 47 -73.5t131 -28.5
z" />
    <glyph glyph-name="Gdotaccent" unicode="&#x120;" horiz-adv-x="681" 
d="M337 788v129h54v-129h-54zM589 0l-7 197q-19 -96 -78.5 -152t-149.5 -56q-124 0 -208.5 96.5t-84.5 257.5v5q0 160 88 256.5t224 96.5q105 0 178.5 -54t73.5 -142q0 -20 -6 -44l-56 -15q7 25 7 50q0 76 -58 122.5t-140 46.5q-107 0 -178 -85.5t-71 -230.5v-7
q0 -147 68.5 -231t171.5 -84q94 0 153 71t59 186v7h-219v37h272v-328h-39z" />
    <glyph glyph-name="gdotaccent" unicode="&#x121;" horiz-adv-x="535" 
d="M237 597v129h54v-129h-54zM414 337v3q0 61 -42 100t-105 39t-106 -39t-43 -100v-3q0 -62 42.5 -100.5t106.5 -38.5q63 0 105 38.5t42 100.5zM511 -56q0 -39 -21.5 -68.5t-58 -45.5t-78 -23.5t-86.5 -7.5q-106 0 -168 34.5t-62 89.5q0 38 32.5 65.5t86.5 38.5
q-42 7 -67 29t-25 54q0 30 23 52t63 33q-87 48 -87 143v2q0 76 58.5 123.5t145.5 47.5q64 0 113 -26q5 46 34 74t69 28q22 0 46 -10l-9 -44q-20 10 -40 10q-30 0 -55.5 -19t-31.5 -47q77 -49 77 -137v-2q0 -77 -57.5 -124t-145.5 -47q-52 0 -95 17q-62 -12 -62 -57
q0 -26 24.5 -41.5t64.5 -15.5h131q86 0 133.5 -34t47.5 -92zM268 -169q48 0 89 9.5t70.5 34t29.5 60.5q0 39 -35.5 64.5t-101.5 25.5h-97q-57 0 -95 -26.5t-38 -65.5q0 -45 47 -73.5t131 -28.5z" />
    <glyph glyph-name="uni0122" unicode="&#x122;" horiz-adv-x="681" 
d="M589 0l-7 197q-19 -96 -78.5 -152t-149.5 -56q-124 0 -208.5 96.5t-84.5 257.5v5q0 160 88 256.5t224 96.5q105 0 178.5 -54t73.5 -142q0 -20 -6 -44l-56 -15q7 25 7 50q0 76 -58 122.5t-140 46.5q-107 0 -178 -85.5t-71 -230.5v-7q0 -147 68.5 -231t171.5 -84
q94 0 153 71t59 186v7h-219v37h272v-328h-39zM379 -161q0 -77 -74 -78v25q41 3 41 53v10h-19v90h52v-100z" />
    <glyph glyph-name="uni0123" unicode="&#x123;" horiz-adv-x="535" 
d="M269 583h-17v33q0 26 24 26v-8q-13 -1 -13 -18v-3h6v-30zM414 337v3q0 61 -42 100t-105 39t-106 -39t-43 -100v-3q0 -62 42.5 -100.5t106.5 -38.5q63 0 105 38.5t42 100.5zM511 -56q0 -39 -21.5 -68.5t-58 -45.5t-78 -23.5t-86.5 -7.5q-106 0 -168 34.5t-62 89.5
q0 38 32.5 65.5t86.5 38.5q-42 7 -67 29t-25 54q0 30 23 52t63 33q-87 48 -87 143v2q0 76 58.5 123.5t145.5 47.5q64 0 113 -26q5 46 34 74t69 28q22 0 46 -10l-9 -44q-20 10 -40 10q-30 0 -55.5 -19t-31.5 -47q77 -49 77 -137v-2q0 -77 -57.5 -124t-145.5 -47q-52 0 -95 17
q-62 -12 -62 -57q0 -26 24.5 -41.5t64.5 -15.5h131q86 0 133.5 -34t47.5 -92zM268 -169q48 0 89 9.5t70.5 34t29.5 60.5q0 39 -35.5 64.5t-101.5 25.5h-97q-57 0 -95 -26.5t-38 -65.5q0 -45 47 -73.5t131 -28.5z" />
    <glyph glyph-name="Hcircumflex" unicode="&#x124;" horiz-adv-x="683" 
d="M434 788l-92 103l-92 -103h-34l95 130h62l95 -130h-34zM548 0v342h-400v-342h-59v690h59v-310h400v310h59v-690h-59z" />
    <glyph glyph-name="hcircumflex" unicode="&#x125;" 
d="M396 823l-92 103l-92 -103h-34l95 130h62l95 -130h-34zM132 272v-272h-53v726h52l-1 -367q17 70 66 111t120 41q77 0 124.5 -51t47.5 -149v-311h-53v308q0 77 -38 119.5t-102 42.5q-74 0 -118.5 -53.5t-44.5 -144.5z" />
    <glyph glyph-name="Hbar" unicode="&#x126;" horiz-adv-x="0" 
 />
    <glyph glyph-name="hbar" unicode="&#x127;" horiz-adv-x="571" 
d="M145 272v-272h-53v605h-98v34h98v87h52v-87h157v-34h-157l-1 -246q17 70 66 111t120 41q77 0 124.5 -51t47.5 -149v-311h-53v308q0 77 -38 119.5t-102 42.5q-74 0 -118.5 -53.5t-44.5 -144.5z" />
    <glyph glyph-name="Itilde" unicode="&#x128;" horiz-adv-x="232" 
d="M-24 799v20q0 43 20.5 69.5t55.5 26.5q22 0 40.5 -13t29 -28.5t26.5 -28.5t33 -13q23 0 36.5 18.5t13.5 49.5v10h25v-19q0 -43 -20.5 -70t-54.5 -27q-22 0 -40.5 13t-29.5 29t-27 29t-33 13q-22 0 -36 -19t-14 -50v-10h-25zM148 690v-690h-59v690h59z" />
    <glyph glyph-name="itilde" unicode="&#x129;" horiz-adv-x="207" 
d="M-37 608v20q0 43 20.5 69.5t55.5 26.5q22 0 40.5 -13t29 -28.5t26.5 -28.5t33 -13q23 0 36.5 18.5t13.5 49.5v10h25v-19q0 -43 -20.5 -70t-54.5 -27q-22 0 -40.5 13t-29.5 29t-27 29t-33 13q-22 0 -36 -19t-14 -50v-10h-25zM79 0v500h54v-500h-54z" />
    <glyph glyph-name="Imacron" unicode="&#x12a;" horiz-adv-x="232" 
d="M-6 866h246v-36h-246v36zM148 690v-690h-59v690h59z" />
    <glyph glyph-name="imacron" unicode="&#x12b;" horiz-adv-x="207" 
d="M-19 675h246v-36h-246v36zM79 0v500h54v-500h-54z" />
    <glyph glyph-name="Ibreve" unicode="&#x12c;" horiz-adv-x="232" 
d="M116 828q39 0 64.5 25.5t25.5 63.5h29q0 -55 -33.5 -91t-85.5 -36t-85.5 36t-33.5 91h29q0 -38 25.5 -63.5t64.5 -25.5zM148 690v-690h-59v690h59z" />
    <glyph glyph-name="ibreve" unicode="&#x12d;" horiz-adv-x="207" 
d="M103 637q39 0 64.5 25.5t25.5 63.5h29q0 -55 -33.5 -91t-85.5 -36t-85.5 36t-33.5 91h29q0 -38 25.5 -63.5t64.5 -25.5zM79 0v500h54v-500h-54z" />
    <glyph glyph-name="Iogonek" unicode="&#x12e;" horiz-adv-x="232" 
d="M196 -165q-41 -36 -92 -36q-41 0 -67 20.5t-26 54.5q0 66 102 126h-24v690h59v-690h-1q-91 -66 -91 -120q0 -24 16 -38t42 -14q34 0 68 31z" />
    <glyph glyph-name="iogonek" unicode="&#x12f;" horiz-adv-x="207" 
d="M77 608v118h58v-118h-58zM181 -165q-41 -36 -92 -36q-41 0 -67 20.5t-26 54.5q0 66 102 126h-19v500h54v-500h-1q-91 -66 -91 -120q0 -24 16 -38t42 -14q34 0 68 31z" />
    <glyph glyph-name="Idotaccent" unicode="&#x130;" horiz-adv-x="232" 
d="M89 788v129h54v-129h-54zM148 690v-690h-59v690h59z" />
    <glyph glyph-name="dotlessi" unicode="&#x131;" horiz-adv-x="212" 
d="M79 0v500h54v-500h-54z" />
    <glyph glyph-name="IJ" unicode="&#x132;" horiz-adv-x="0" 
 />
    <glyph glyph-name="Jcircumflex" unicode="&#x134;" horiz-adv-x="551" 
d="M527 788l-92 103l-92 -103h-34l95 130h62l95 -130h-34zM65 271l58 15q-15 -43 -15 -79q0 -79 42 -130.5t113 -51.5q74 0 114.5 55t40.5 153v457h58v-454q0 -117 -56 -182t-157 -65q-94 0 -153 58t-59 150q0 34 14 74z" />
    <glyph glyph-name="jcircumflex" unicode="&#x135;" horiz-adv-x="207" 
d="M196 597l-92 103l-92 -103h-34l95 130h62l95 -130h-34zM24 -200q-47 0 -83 25l8 37q32 -26 64 -26q66 0 66 86v578h54v-581q0 -57 -28 -88t-81 -31z" />
    <glyph glyph-name="uni0136" unicode="&#x136;" horiz-adv-x="612" 
d="M520 0l-250 358l-122 -133v-225h-59v690h59v-410l375 410h50l-264 -288l281 -402h-70zM344 -161q0 -77 -74 -78v25q41 3 41 53v10h-19v90h52v-100z" />
    <glyph glyph-name="uni0137" unicode="&#x137;" horiz-adv-x="490" 
d="M415 0l-178 275l-105 -106v-169h-53v726h53v-508l280 282h49l-187 -188l203 -312h-62zM278 -161q0 -77 -74 -78v25q41 3 41 53v10h-19v90h52v-100z" />
    <glyph glyph-name="Lacute" unicode="&#x139;" horiz-adv-x="537" 
d="M130 788h-29l66 129h66zM89 0v690h59v-653h353v-37h-412z" />
    <glyph glyph-name="lacute" unicode="&#x13a;" horiz-adv-x="207" 
d="M118 824h-29l66 129h66zM79 0v726h54v-726h-54z" />
    <glyph glyph-name="uni013B" unicode="&#x13b;" horiz-adv-x="537" 
d="M89 0v690h59v-653h353v-37h-412zM318 -161q0 -77 -74 -78v25q41 3 41 53v10h-19v90h52v-100z" />
    <glyph glyph-name="uni013C" unicode="&#x13c;" horiz-adv-x="206" 
d="M79 0v726h54v-726h-54zM129 -161q0 -77 -74 -78v25q41 3 41 53v10h-19v90h52v-100z" />
    <glyph glyph-name="Lcaron" unicode="&#x13d;" horiz-adv-x="537" 
d="M321 569h-27l18 121h59zM89 0v690h59v-653h353v-37h-412z" />
    <glyph glyph-name="lcaron" unicode="&#x13e;" horiz-adv-x="207" 
d="M242 605h-27l18 121h59zM79 0v726h54v-726h-54z" />
    <glyph glyph-name="Ldot" unicode="&#x13f;" horiz-adv-x="538" 
d="M291 298v129h54v-129h-54zM89 0v690h59v-653h353v-37h-412z" />
    <glyph glyph-name="ldot" unicode="&#x140;" horiz-adv-x="302" 
d="M214 284v129h54v-129h-54zM79 0v726h54v-726h-54z" />
    <glyph glyph-name="Lslash" unicode="&#x141;" horiz-adv-x="576" 
d="M127 0v342l-106 -57v40l106 57v308h59v-276l178 96v-40l-178 -96v-337h353v-37h-412z" />
    <glyph glyph-name="lslash" unicode="&#x142;" horiz-adv-x="309" 
d="M185 0h-54v369l-106 -71v39l106 71v318h54v-282l99 66v-39l-99 -66v-405z" />
    <glyph glyph-name="Nacute" unicode="&#x143;" horiz-adv-x="681" 
d="M366 788h-29l66 129h66zM529 0l-399 640v-640h-41v690h76l398 -635v635h41v-690h-75z" />
    <glyph glyph-name="nacute" unicode="&#x144;" 
d="M318 597h-29l66 129h66zM132 272v-272h-53v500h51l-1 -145q17 72 66 114t121 42q77 0 124.5 -51t47.5 -149v-311h-53v308q0 77 -38 119.5t-102 42.5q-74 0 -118.5 -53.5t-44.5 -144.5z" />
    <glyph glyph-name="uni0145" unicode="&#x145;" horiz-adv-x="681" 
d="M529 0l-399 640v-640h-41v690h76l398 -635v635h41v-690h-75zM346 -161q0 -77 -74 -78v25q41 3 41 53v10h-19v90h52v-100z" />
    <glyph glyph-name="uni0146" unicode="&#x146;" 
d="M132 272v-272h-53v500h51l-1 -145q17 72 66 114t121 42q77 0 124.5 -51t47.5 -149v-311h-53v308q0 77 -38 119.5t-102 42.5q-74 0 -118.5 -53.5t-44.5 -144.5zM308 -161q0 -77 -74 -78v25q41 3 41 53v10h-19v90h52v-100z" />
    <glyph glyph-name="Ncaron" unicode="&#x147;" horiz-adv-x="681" 
d="M321 787l-95 130h34l92 -103l92 103h34l-95 -130h-62zM529 0l-399 640v-640h-41v690h76l398 -635v635h41v-690h-75z" />
    <glyph glyph-name="ncaron" unicode="&#x148;" 
d="M272 596l-95 130h34l92 -103l92 103h34l-95 -130h-62zM132 272v-272h-53v500h51l-1 -145q17 72 66 114t121 42q77 0 124.5 -51t47.5 -149v-311h-53v308q0 77 -38 119.5t-102 42.5q-74 0 -118.5 -53.5t-44.5 -144.5z" />
    <glyph glyph-name="Eng" unicode="&#x14a;" horiz-adv-x="681" 
d="M529 0l-399 640v-640h-41v690h76l398 -635v635h41v-690h-75z" />
    <glyph glyph-name="eng" unicode="&#x14b;" horiz-adv-x="557" 
d="M379 -200q-47 0 -83 25l8 37q32 -26 64 -26q66 0 66 86v386q0 77 -38 119.5t-102 42.5q-74 0 -118.5 -53.5t-44.5 -144.5v-272h-53v500h51l-1 -145q17 72 66 114t121 42q73 0 119 -46v35h54v-581q0 -57 -28 -88t-81 -31z" />
    <glyph glyph-name="Omacron" unicode="&#x14c;" horiz-adv-x="722" 
d="M238 866h246v-36h-246v36zM368 -11q-136 0 -221.5 96.5t-85.5 257.5v4q0 161 85.5 257.5t221.5 96.5q135 0 220.5 -96.5t85.5 -257.5v-4q0 -161 -85.5 -257.5t-220.5 -96.5zM368 25q109 0 177 85.5t68 231.5v6q0 146 -68 231.5t-177 85.5t-177 -85.5t-68 -231.5v-6
q0 -146 68 -231.5t177 -85.5z" />
    <glyph glyph-name="omacron" unicode="&#x14d;" 
d="M156 675h246v-36h-246v36zM282 -11q-99 0 -165 69.5t-66 189.5v4q0 120 66 189.5t165 69.5q98 0 164.5 -69.5t66.5 -189.5v-4q0 -120 -66.5 -189.5t-164.5 -69.5zM282 23q74 0 123 58.5t49 164.5v7q0 106 -49 165t-123 59q-75 0 -124 -59t-49 -165v-7q0 -106 49 -164.5
t124 -58.5z" />
    <glyph glyph-name="Obreve" unicode="&#x14e;" horiz-adv-x="722" 
d="M361 828q39 0 64.5 25.5t25.5 63.5h29q0 -55 -33.5 -91t-85.5 -36t-85.5 36t-33.5 91h29q0 -38 25.5 -63.5t64.5 -25.5zM368 -11q-136 0 -221.5 96.5t-85.5 257.5v4q0 161 85.5 257.5t221.5 96.5q135 0 220.5 -96.5t85.5 -257.5v-4q0 -161 -85.5 -257.5t-220.5 -96.5z
M368 25q109 0 177 85.5t68 231.5v6q0 146 -68 231.5t-177 85.5t-177 -85.5t-68 -231.5v-6q0 -146 68 -231.5t177 -85.5z" />
    <glyph glyph-name="obreve" unicode="&#x14f;" 
d="M279 637q39 0 64.5 25.5t25.5 63.5h29q0 -55 -33.5 -91t-85.5 -36t-85.5 36t-33.5 91h29q0 -38 25.5 -63.5t64.5 -25.5zM282 -11q-99 0 -165 69.5t-66 189.5v4q0 120 66 189.5t165 69.5q98 0 164.5 -69.5t66.5 -189.5v-4q0 -120 -66.5 -189.5t-164.5 -69.5zM282 23
q74 0 123 58.5t49 164.5v7q0 106 -49 165t-123 59q-75 0 -124 -59t-49 -165v-7q0 -106 49 -164.5t124 -58.5z" />
    <glyph glyph-name="Ohungarumlaut" unicode="&#x150;" horiz-adv-x="722" 
d="M439 788h-26l65 129h57zM307 788h-26l64 129h58zM368 -11q-136 0 -221.5 96.5t-85.5 257.5v4q0 161 85.5 257.5t221.5 96.5q135 0 220.5 -96.5t85.5 -257.5v-4q0 -161 -85.5 -257.5t-220.5 -96.5zM368 25q109 0 177 85.5t68 231.5v6q0 146 -68 231.5t-177 85.5
t-177 -85.5t-68 -231.5v-6q0 -146 68 -231.5t177 -85.5z" />
    <glyph glyph-name="ohungarumlaut" unicode="&#x151;" 
d="M358 597h-26l65 129h57zM226 597h-26l64 129h58zM282 -11q-99 0 -165 69.5t-66 189.5v4q0 120 66 189.5t165 69.5q98 0 164.5 -69.5t66.5 -189.5v-4q0 -120 -66.5 -189.5t-164.5 -69.5zM282 23q74 0 123 58.5t49 164.5v7q0 106 -49 165t-123 59q-75 0 -124 -59t-49 -165
v-7q0 -106 49 -164.5t124 -58.5z" />
    <glyph glyph-name="OE" unicode="&#x152;" horiz-adv-x="973" 
d="M402 36h95v618h-95q-124 0 -201.5 -82.5t-77.5 -223.5v-6q0 -141 77.5 -223.5t201.5 -82.5zM402 0q-151 0 -246 93.5t-95 249.5v4q0 156 95 249.5t246 93.5h514v-37h-360v-275h318v-37h-318v-304h371v-37h-525z" />
    <glyph glyph-name="oe" unicode="&#x153;" horiz-adv-x="952" 
d="M684 477q-70 0 -118 -52.5t-53 -147.5h336q-4 97 -49 148.5t-116 51.5zM282 23q74 0 123 58.5t49 164.5v7q0 106 -49 165t-123 59q-75 0 -124 -59t-49 -165v-7q0 -106 49 -164.5t124 -58.5zM902 164q-1 -77 -62.5 -126t-147.5 -49q-67 0 -122.5 32t-85.5 92
q-30 -59 -83.5 -91.5t-118.5 -32.5q-99 0 -165 69.5t-66 189.5v4q0 120 66 189.5t165 69.5q65 0 118 -32t83 -91q30 59 83 91t118 32q98 0 161 -68t63 -188v-11h-395q0 -12 -1 -17q5 -97 56.5 -150.5t123.5 -53.5q66 0 113 43.5t41 111.5z" />
    <glyph glyph-name="Racute" unicode="&#x154;" horiz-adv-x="620" 
d="M317 788h-29l66 129h66zM333 653h-185v-305h178q88 0 136.5 39.5t48.5 111.5v4q0 71 -46.5 110.5t-131.5 39.5zM313 311h-165v-311h-59v690h253q105 0 166.5 -47t61.5 -136v-2q0 -74 -45.5 -118.5t-127.5 -56.5q70 -9 105.5 -47t41.5 -81t16.5 -103.5t31.5 -96.5v-2h-62
q-15 27 -23.5 65.5t-11.5 70.5t-13 65.5t-26 56.5t-52 38t-91 15z" />
    <glyph glyph-name="racute" unicode="&#x155;" horiz-adv-x="370" 
d="M223 597h-29l66 129h66zM132 248v-248h-53v500h50v-143q14 69 49 111.5t92 42.5q46 0 83 -30l-10 -53q-38 33 -82 33q-65 0 -97 -60.5t-32 -152.5z" />
    <glyph glyph-name="uni0156" unicode="&#x156;" horiz-adv-x="622" 
d="M333 653h-185v-305h178q88 0 136.5 39.5t48.5 111.5v4q0 71 -46.5 110.5t-131.5 39.5zM313 311h-165v-311h-59v690h253q105 0 166.5 -47t61.5 -136v-2q0 -74 -45.5 -118.5t-127.5 -56.5q70 -9 105.5 -47t41.5 -81t16.5 -103.5t31.5 -96.5v-2h-62q-15 27 -23.5 65.5
t-11.5 70.5t-13 65.5t-26 56.5t-52 38t-91 15zM351 -161q0 -77 -74 -78v25q41 3 41 53v10h-19v90h52v-100z" />
    <glyph glyph-name="uni0157" unicode="&#x157;" horiz-adv-x="370" 
d="M132 248v-248h-53v500h50v-143q14 69 49 111.5t92 42.5q46 0 83 -30l-10 -53q-38 33 -82 33q-65 0 -97 -60.5t-32 -152.5zM129 -161q0 -77 -74 -78v25q41 3 41 53v10h-19v90h52v-100z" />
    <glyph glyph-name="Rcaron" unicode="&#x158;" horiz-adv-x="620" 
d="M271 787l-95 130h34l92 -103l92 103h34l-95 -130h-62zM333 653h-185v-305h178q88 0 136.5 39.5t48.5 111.5v4q0 71 -46.5 110.5t-131.5 39.5zM313 311h-165v-311h-59v690h253q105 0 166.5 -47t61.5 -136v-2q0 -74 -45.5 -118.5t-127.5 -56.5q70 -9 105.5 -47t41.5 -81
t16.5 -103.5t31.5 -96.5v-2h-62q-15 27 -23.5 65.5t-11.5 70.5t-13 65.5t-26 56.5t-52 38t-91 15z" />
    <glyph glyph-name="rcaron" unicode="&#x159;" horiz-adv-x="370" 
d="M177 596l-95 130h34l92 -103l92 103h34l-95 -130h-62zM132 248v-248h-53v500h50v-143q14 69 49 111.5t92 42.5q46 0 83 -30l-10 -53q-38 33 -82 33q-65 0 -97 -60.5t-32 -152.5z" />
    <glyph glyph-name="Sacute" unicode="&#x15a;" horiz-adv-x="593" 
d="M309 788h-29l66 129h66zM65 214l56 15q-8 -26 -8 -52q0 -68 56.5 -110t137.5 -42q78 0 131.5 40.5t53.5 110.5q0 49 -32.5 86t-105.5 51l-116 23q-80 16 -124 63t-44 115q0 83 64.5 135t162.5 52q95 0 161 -46t66 -122q0 -22 -8 -46l-56 -15q8 26 8 51q0 65 -50 103.5
t-122 38.5q-73 0 -122.5 -39.5t-49.5 -103.5q0 -51 33 -85t95 -46l112 -22q95 -19 138.5 -68t43.5 -115q0 -90 -67.5 -143.5t-172.5 -53.5q-103 0 -175.5 49t-72.5 128q0 22 7 48z" />
    <glyph glyph-name="sacute" unicode="&#x15b;" horiz-adv-x="488" 
d="M257 597h-29l66 129h66zM58 157l50 13q-5 -14 -5 -35q0 -52 43.5 -82.5t104.5 -30.5q59 0 100 28t41 75q0 80 -108 99l-86 16q-64 12 -99.5 46.5t-35.5 85.5q0 61 51 100t130 39q75 0 128.5 -35t54.5 -95q0 -17 -5 -32l-52 -14q6 16 6 36q-1 51 -39.5 79t-93.5 28
t-92 -27t-37 -71q0 -74 94 -92l87 -16q147 -27 147 -139q0 -66 -54.5 -105t-136.5 -39t-140 37.5t-58 98.5q0 15 5 32z" />
    <glyph glyph-name="Scircumflex" unicode="&#x15c;" horiz-adv-x="593" 
d="M386 788l-92 103l-92 -103h-34l95 130h62l95 -130h-34zM65 214l56 15q-8 -26 -8 -52q0 -68 56.5 -110t137.5 -42q78 0 131.5 40.5t53.5 110.5q0 49 -32.5 86t-105.5 51l-116 23q-80 16 -124 63t-44 115q0 83 64.5 135t162.5 52q95 0 161 -46t66 -122q0 -22 -8 -46
l-56 -15q8 26 8 51q0 65 -50 103.5t-122 38.5q-73 0 -122.5 -39.5t-49.5 -103.5q0 -51 33 -85t95 -46l112 -22q95 -19 138.5 -68t43.5 -115q0 -90 -67.5 -143.5t-172.5 -53.5q-103 0 -175.5 49t-72.5 128q0 22 7 48z" />
    <glyph glyph-name="scircumflex" unicode="&#x15d;" horiz-adv-x="488" 
d="M334 597l-92 103l-92 -103h-34l95 130h62l95 -130h-34zM58 157l50 13q-5 -14 -5 -35q0 -52 43.5 -82.5t104.5 -30.5q59 0 100 28t41 75q0 80 -108 99l-86 16q-64 12 -99.5 46.5t-35.5 85.5q0 61 51 100t130 39q75 0 128.5 -35t54.5 -95q0 -17 -5 -32l-52 -14q6 16 6 36
q-1 51 -39.5 79t-93.5 28t-92 -27t-37 -71q0 -74 94 -92l87 -16q147 -27 147 -139q0 -66 -54.5 -105t-136.5 -39t-140 37.5t-58 98.5q0 15 5 32z" />
    <glyph glyph-name="Scedilla" unicode="&#x15e;" horiz-adv-x="593" 
d="M325 -201q-62 0 -116 40l13 25q48 -38 98 -38q32 0 51 13t19 36q0 22 -15 35.5t-40 13.5q-33 0 -66 -24l-21 11l34 79q-95 5 -159.5 53t-64.5 123q0 22 7 48l56 15q-8 -26 -8 -52q0 -68 56.5 -110t137.5 -42q78 0 131.5 40.5t53.5 110.5q0 49 -32.5 86t-105.5 51l-116 23
q-80 16 -124 63t-44 115q0 83 64.5 135t162.5 52q95 0 161 -46t66 -122q0 -22 -8 -46l-56 -15q8 26 8 51q0 65 -50 103.5t-122 38.5q-73 0 -122.5 -39.5t-49.5 -103.5q0 -51 33 -85t95 -46l112 -22q95 -19 138.5 -68t43.5 -115q0 -90 -67.5 -143.5t-170.5 -53.5l-30 -68
q29 27 71 27q35 0 57.5 -20t22.5 -53q0 -35 -28.5 -55.5t-75.5 -20.5z" />
    <glyph glyph-name="scedilla" unicode="&#x15f;" horiz-adv-x="488" 
d="M271 -201q-62 0 -116 40l13 25q48 -38 98 -38q32 0 51 13t19 36q0 22 -15 35.5t-40 13.5q-33 0 -66 -24l-21 11l35 79q-75 6 -125.5 42t-50.5 93q0 15 5 32l50 13q-5 -14 -5 -35q0 -52 43.5 -82.5t104.5 -30.5q59 0 100 28t41 75q0 80 -108 99l-86 16q-64 12 -99.5 46.5
t-35.5 85.5q0 61 51 100t130 39q75 0 128.5 -35t54.5 -95q0 -17 -5 -32l-52 -14q6 16 6 36q-1 51 -39.5 79t-93.5 28t-92 -27t-37 -71q0 -74 94 -92l87 -16q147 -27 147 -139q0 -66 -54 -105t-134 -39l-30 -68q29 27 71 27q35 0 57.5 -20t22.5 -53q0 -35 -28.5 -55.5
t-75.5 -20.5z" />
    <glyph glyph-name="Scaron" unicode="&#x160;" horiz-adv-x="593" 
d="M263 787l-95 130h34l92 -103l92 103h34l-95 -130h-62zM65 214l56 15q-8 -26 -8 -52q0 -68 56.5 -110t137.5 -42q78 0 131.5 40.5t53.5 110.5q0 49 -32.5 86t-105.5 51l-116 23q-80 16 -124 63t-44 115q0 83 64.5 135t162.5 52q95 0 161 -46t66 -122q0 -22 -8 -46l-56 -15
q8 26 8 51q0 65 -50 103.5t-122 38.5q-73 0 -122.5 -39.5t-49.5 -103.5q0 -51 33 -85t95 -46l112 -22q95 -19 138.5 -68t43.5 -115q0 -90 -67.5 -143.5t-172.5 -53.5q-103 0 -175.5 49t-72.5 128q0 22 7 48z" />
    <glyph glyph-name="scaron" unicode="&#x161;" horiz-adv-x="488" 
d="M211 596l-95 130h34l92 -103l92 103h34l-95 -130h-62zM58 157l50 13q-5 -14 -5 -35q0 -52 43.5 -82.5t104.5 -30.5q59 0 100 28t41 75q0 80 -108 99l-86 16q-64 12 -99.5 46.5t-35.5 85.5q0 61 51 100t130 39q75 0 128.5 -35t54.5 -95q0 -17 -5 -32l-52 -14q6 16 6 36
q-1 51 -39.5 79t-93.5 28t-92 -27t-37 -71q0 -74 94 -92l87 -16q147 -27 147 -139q0 -66 -54.5 -105t-136.5 -39t-140 37.5t-58 98.5q0 15 5 32z" />
    <glyph glyph-name="Tcedilla" unicode="&#x162;" horiz-adv-x="581" 
d="M313 -201q-62 0 -116 40l13 25q48 -38 98 -38q32 0 51 13t19 36q0 22 -15 35.5t-40 13.5q-33 0 -66 -24l-21 11l39 89h-10v653h-240v37h538v-37h-240v-653h-22l-35 -79q29 27 71 27q35 0 57.5 -20t22.5 -53q0 -35 -28.5 -55.5t-75.5 -20.5z" />
    <glyph glyph-name="tcedilla" unicode="&#x163;" horiz-adv-x="379" 
d="M273 -201q-62 0 -116 40l13 25q48 -38 98 -38q32 0 51 13t19 36q0 22 -15 35.5t-40 13.5q-33 0 -66 -24l-21 11l35 79q-45 7 -72 42t-27 103v332h-104v33h104v155h53v-155h154v-33h-154v-332q0 -54 21.5 -82t57.5 -28q40 0 78 32l5 -37q-42 -29 -91 -31l-30 -68
q29 27 71 27q35 0 57.5 -20t22.5 -53q0 -35 -28.5 -55.5t-75.5 -20.5z" />
    <glyph glyph-name="Tcaron" unicode="&#x164;" horiz-adv-x="581" 
d="M259 787l-95 130h34l92 -103l92 103h34l-95 -130h-62zM563 653h-240v-653h-58v653h-240v37h538v-37z" />
    <glyph glyph-name="tcaron" unicode="&#x165;" horiz-adv-x="379" 
d="M295 605h-27l18 121h59zM347 20q-45 -31 -96 -31q-53 0 -86 35.5t-33 110.5v332h-104v33h104v155h53v-155h154v-33h-154v-332q0 -54 21.5 -82t57.5 -28q40 0 78 32z" />
    <glyph glyph-name="Tbar" unicode="&#x166;" horiz-adv-x="0" 
 />
    <glyph glyph-name="tbar" unicode="&#x167;" horiz-adv-x="380" 
d="M348 20q-45 -31 -96 -31q-53 0 -86 35.5t-33 110.5v189h-104v34h104v109h-104v33h104v155h53v-155h154v-33h-154v-109h150v-34h-150v-189q0 -54 21.5 -82t57.5 -28q40 0 78 32z" />
    <glyph glyph-name="Utilde" unicode="&#x168;" horiz-adv-x="669" 
d="M203 799v20q0 43 20.5 69.5t55.5 26.5q22 0 40.5 -13t29 -28.5t26.5 -28.5t33 -13q23 0 36.5 18.5t13.5 49.5v10h25v-19q0 -43 -20.5 -70t-54.5 -27q-22 0 -40.5 13t-29.5 29t-27 29t-33 13q-22 0 -36 -19t-14 -50v-10h-25zM545 690h40v-452q0 -117 -67 -183t-183 -66
q-115 0 -182.5 66t-67.5 183v452h60v-446q0 -99 52.5 -156.5t146.5 -57.5q93 0 147 57.5t54 156.5v446z" />
    <glyph glyph-name="utilde" unicode="&#x169;" 
d="M138 608v20q0 43 20.5 69.5t55.5 26.5q22 0 40.5 -13t29 -28.5t26.5 -28.5t33 -13q23 0 36.5 18.5t13.5 49.5v10h25v-19q0 -43 -20.5 -70t-54.5 -27q-22 0 -40.5 13t-29.5 29t-27 29t-33 13q-22 0 -36 -19t-14 -50v-10h-25zM434 0l1 145q-17 -72 -66 -114t-121 -42
q-77 0 -124.5 51t-47.5 149v311h53v-308q0 -77 38 -119.5t102 -42.5q74 0 118.5 53.5t44.5 144.5v272h53v-500h-51z" />
    <glyph glyph-name="Umacron" unicode="&#x16a;" horiz-adv-x="669" 
d="M220 866h246v-36h-246v36zM545 690h40v-452q0 -117 -67 -183t-183 -66q-115 0 -182.5 66t-67.5 183v452h60v-446q0 -99 52.5 -156.5t146.5 -57.5q93 0 147 57.5t54 156.5v446z" />
    <glyph glyph-name="umacron" unicode="&#x16b;" 
d="M155 675h246v-36h-246v36zM434 0l1 145q-17 -72 -66 -114t-121 -42q-77 0 -124.5 51t-47.5 149v311h53v-308q0 -77 38 -119.5t102 -42.5q74 0 118.5 53.5t44.5 144.5v272h53v-500h-51z" />
    <glyph glyph-name="Ubreve" unicode="&#x16c;" horiz-adv-x="669" 
d="M343 828q39 0 64.5 25.5t25.5 63.5h29q0 -55 -33.5 -91t-85.5 -36t-85.5 36t-33.5 91h29q0 -38 25.5 -63.5t64.5 -25.5zM545 690h40v-452q0 -117 -67 -183t-183 -66q-115 0 -182.5 66t-67.5 183v452h60v-446q0 -99 52.5 -156.5t146.5 -57.5q93 0 147 57.5t54 156.5v446z
" />
    <glyph glyph-name="ubreve" unicode="&#x16d;" 
d="M278 637q39 0 64.5 25.5t25.5 63.5h29q0 -55 -33.5 -91t-85.5 -36t-85.5 36t-33.5 91h29q0 -38 25.5 -63.5t64.5 -25.5zM434 0l1 145q-17 -72 -66 -114t-121 -42q-77 0 -124.5 51t-47.5 149v311h53v-308q0 -77 38 -119.5t102 -42.5q74 0 118.5 53.5t44.5 144.5v272h53
v-500h-51z" />
    <glyph glyph-name="Uring" unicode="&#x16e;" horiz-adv-x="669" 
d="M343 785q-42 0 -70 22t-28 57t28 57t70 22q41 0 69.5 -22t28.5 -57t-28 -57t-70 -22zM343 804q27 0 44 17t17 43t-17 43t-44 17t-44 -17t-17 -43t17 -43t44 -17zM545 690h40v-452q0 -117 -67 -183t-183 -66q-115 0 -182.5 66t-67.5 183v452h60v-446q0 -99 52.5 -156.5
t146.5 -57.5q93 0 147 57.5t54 156.5v446z" />
    <glyph glyph-name="uring" unicode="&#x16f;" 
d="M278 594q-42 0 -70 22t-28 57t28 57t70 22q41 0 69.5 -22t28.5 -57t-28 -57t-70 -22zM278 613q27 0 44 17t17 43t-17 43t-44 17t-44 -17t-17 -43t17 -43t44 -17zM434 0l1 145q-17 -72 -66 -114t-121 -42q-77 0 -124.5 51t-47.5 149v311h53v-308q0 -77 38 -119.5
t102 -42.5q74 0 118.5 53.5t44.5 144.5v272h53v-500h-51z" />
    <glyph glyph-name="Uhungarumlaut" unicode="&#x170;" horiz-adv-x="669" 
d="M422 788h-26l65 129h57zM290 788h-26l64 129h58zM545 690h40v-452q0 -117 -67 -183t-183 -66q-115 0 -182.5 66t-67.5 183v452h60v-446q0 -99 52.5 -156.5t146.5 -57.5q93 0 147 57.5t54 156.5v446z" />
    <glyph glyph-name="uhungarumlaut" unicode="&#x171;" 
d="M356 597h-26l65 129h57zM224 597h-26l64 129h58zM434 0l1 145q-17 -72 -66 -114t-121 -42q-77 0 -124.5 51t-47.5 149v311h53v-308q0 -77 38 -119.5t102 -42.5q74 0 118.5 53.5t44.5 144.5v272h53v-500h-51z" />
    <glyph glyph-name="Uogonek" unicode="&#x172;" horiz-adv-x="669" 
d="M316 -201q-41 0 -67 20.5t-26 54.5q0 59 86 116q-104 8 -164 73t-60 175v452h60v-446q0 -99 52.5 -156.5t146.5 -57.5q93 0 147 57.5t54 156.5v446h40v-452q0 -115 -64.5 -180.5t-175.5 -68.5q-77 -58 -77 -109q0 -24 16 -38t42 -14q34 0 68 31l14 -24q-41 -36 -92 -36z
" />
    <glyph glyph-name="uogonek" unicode="&#x173;" 
d="M533 -165q-41 -36 -92 -36q-41 0 -67 20.5t-26 54.5q0 66 102 126h-16l1 145q-17 -72 -66 -114t-121 -42q-77 0 -124.5 51t-47.5 149v311h53v-308q0 -77 38 -119.5t102 -42.5q74 0 118.5 53.5t44.5 144.5v272h53v-500h-1q-91 -66 -91 -120q0 -24 16 -38t42 -14
q34 0 68 31z" />
    <glyph glyph-name="Wcircumflex" unicode="&#x174;" horiz-adv-x="946" 
d="M570 788l-92 103l-92 -103h-34l95 130h62l95 -130h-34zM225 0l-195 690h60l177 -643l181 643h71l183 -642l176 642h44l-192 -690h-69l-186 638l-180 -638h-70z" />
    <glyph glyph-name="wcircumflex" unicode="&#x175;" horiz-adv-x="750" 
d="M473 597l-92 103l-92 -103h-34l95 130h62l95 -130h-34zM173 0l-149 500h56l134 -461l136 461h63l138 -460l135 460h40l-149 -500h-66l-137 456l-135 -456h-66z" />
    <glyph glyph-name="Ycircumflex" unicode="&#x176;" horiz-adv-x="584" 
d="M390 788l-92 103l-92 -103h-34l95 130h62l95 -130h-34zM323 290v-290h-58v290l-240 400h65l214 -361l216 361h43z" />
    <glyph glyph-name="ycircumflex" unicode="&#x177;" horiz-adv-x="485" 
d="M352 597l-92 103l-92 -103h-34l95 130h62l95 -130h-34zM110 -201q-50 0 -86 30l11 49q33 -30 77 -30q29 0 54.5 19.5t39.5 56.5l22 58l-207 518h59l176 -446l166 446h39l-219 -586q-44 -115 -132 -115z" />
    <glyph glyph-name="Ydieresis" unicode="&#x178;" horiz-adv-x="584" 
d="M346 788v129h44v-129h-44zM206 788v129h44v-129h-44zM323 290v-290h-58v290l-240 400h65l214 -361l216 361h43z" />
    <glyph glyph-name="Zacute" unicode="&#x179;" horiz-adv-x="562" 
d="M297 788h-29l66 129h66zM522 0h-474v32l396 621h-386v37h454v-32l-395 -621h405v-37z" />
    <glyph glyph-name="zacute" unicode="&#x17a;" horiz-adv-x="454" 
d="M244 597h-29l66 129h66zM414 0h-373v30l305 436h-295v34h357v-30l-305 -436h311v-34z" />
    <glyph glyph-name="Zdotaccent" unicode="&#x17b;" horiz-adv-x="562" 
d="M256 788v129h54v-129h-54zM522 0h-474v32l396 621h-386v37h454v-32l-395 -621h405v-37z" />
    <glyph glyph-name="zdotaccent" unicode="&#x17c;" horiz-adv-x="454" 
d="M203 597v129h54v-129h-54zM414 0h-373v30l305 436h-295v34h357v-30l-305 -436h311v-34z" />
    <glyph glyph-name="Zcaron" unicode="&#x17d;" horiz-adv-x="562" 
d="M252 787l-95 130h34l92 -103l92 103h34l-95 -130h-62zM522 0h-474v32l396 621h-386v37h454v-32l-395 -621h405v-37z" />
    <glyph glyph-name="zcaron" unicode="&#x17e;" horiz-adv-x="454" 
d="M199 596l-95 130h34l92 -103l92 103h34l-95 -130h-62zM414 0h-373v30l305 436h-295v34h357v-30l-305 -436h311v-34z" />
    <glyph glyph-name="florin" unicode="&#x192;" horiz-adv-x="466" 
d="M185 0h-53v26q-33 -26 -84 -26q-56 0 -99 34l9 40q33 -38 85 -38q89 0 89 126v75h-166v33h166v197h-104v33h104v237h53v-26q33 26 84 26q56 0 99 -34l-9 -40q-33 38 -85 38q-89 0 -89 -126v-75h166v-33h-166v-197h104v-33h-104v-237z" />
    <glyph glyph-name="Acaron" unicode="&#x1cd;" horiz-adv-x="616" 
d="M277 787l-95 130h34l92 -103l92 103h34l-95 -130h-62zM450 242l-146 405l-145 -405h291zM537 0l-74 204h-318l-73 -204h-43l250 690h68l251 -690h-61z" />
    <glyph glyph-name="acaron" unicode="&#x1ce;" horiz-adv-x="542" 
d="M226 596l-95 130h34l92 -103l92 103h34l-95 -130h-62zM219 23q74 0 121 57.5t47 136.5v59l-128 -27q-151 -32 -151 -124q0 -47 33 -74.5t78 -27.5zM201 -11q-62 0 -106 35.5t-44 96.5q0 118 195 157l141 28v26q0 71 -32.5 108.5t-96.5 37.5q-55 0 -95.5 -29t-40.5 -81
q0 -22 9 -44l-54 10q-7 26 -7 38q0 64 55 101.5t134 37.5q88 0 134.5 -47.5t46.5 -134.5v-218q0 -84 48 -84q22 0 39 16l5 -28q-18 -21 -57 -21q-42 0 -65.5 31t-23.5 88v13h1v8q-19 -65 -69 -105t-117 -40z" />
    <glyph glyph-name="Icaron" unicode="&#x1cf;" horiz-adv-x="232" 
d="M85 787l-95 130h34l92 -103l92 103h34l-95 -130h-62zM148 690v-690h-59v690h59z" />
    <glyph glyph-name="icaron" unicode="&#x1d0;" horiz-adv-x="207" 
d="M72 596l-95 130h34l92 -103l92 103h34l-95 -130h-62zM79 0v500h54v-500h-54z" />
    <glyph glyph-name="Ocaron" unicode="&#x1d1;" horiz-adv-x="722" 
d="M330 787l-95 130h34l92 -103l92 103h34l-95 -130h-62zM368 -11q-136 0 -221.5 96.5t-85.5 257.5v4q0 161 85.5 257.5t221.5 96.5q135 0 220.5 -96.5t85.5 -257.5v-4q0 -161 -85.5 -257.5t-220.5 -96.5zM368 25q109 0 177 85.5t68 231.5v6q0 146 -68 231.5t-177 85.5
t-177 -85.5t-68 -231.5v-6q0 -146 68 -231.5t177 -85.5z" />
    <glyph glyph-name="ocaron" unicode="&#x1d2;" 
d="M248 596l-95 130h34l92 -103l92 103h34l-95 -130h-62zM282 -11q-99 0 -165 69.5t-66 189.5v4q0 120 66 189.5t165 69.5q98 0 164.5 -69.5t66.5 -189.5v-4q0 -120 -66.5 -189.5t-164.5 -69.5zM282 23q74 0 123 58.5t49 164.5v7q0 106 -49 165t-123 59q-75 0 -124 -59
t-49 -165v-7q0 -106 49 -164.5t124 -58.5z" />
    <glyph glyph-name="Ucaron" unicode="&#x1d3;" horiz-adv-x="669" 
d="M312 787l-95 130h34l92 -103l92 103h34l-95 -130h-62zM545 690h40v-452q0 -117 -67 -183t-183 -66q-115 0 -182.5 66t-67.5 183v452h60v-446q0 -99 52.5 -156.5t146.5 -57.5q93 0 147 57.5t54 156.5v446z" />
    <glyph glyph-name="ucaron" unicode="&#x1d4;" 
d="M247 596l-95 130h34l92 -103l92 103h34l-95 -130h-62zM434 0l1 145q-17 -72 -66 -114t-121 -42q-77 0 -124.5 51t-47.5 149v311h53v-308q0 -77 38 -119.5t102 -42.5q74 0 118.5 53.5t44.5 144.5v272h53v-500h-51z" />
    <glyph glyph-name="Udieresismacron" unicode="&#x1d5;" horiz-adv-x="669" 
d="M220 1057h246v-36h-246v36zM391 788v129h44v-129h-44zM251 788v129h44v-129h-44zM545 690h40v-452q0 -117 -67 -183t-183 -66q-115 0 -182.5 66t-67.5 183v452h60v-446q0 -99 52.5 -156.5t146.5 -57.5q93 0 147 57.5t54 156.5v446z" />
    <glyph glyph-name="udieresismacron" unicode="&#x1d6;" 
d="M155 866h246v-36h-246v36zM326 597v129h44v-129h-44zM186 597v129h44v-129h-44zM434 0l1 145q-17 -72 -66 -114t-121 -42q-77 0 -124.5 51t-47.5 149v311h53v-308q0 -77 38 -119.5t102 -42.5q74 0 118.5 53.5t44.5 144.5v272h53v-500h-51z" />
    <glyph glyph-name="Udieresisacute" unicode="&#x1d7;" horiz-adv-x="669" 
d="M356 988h-29l66 129h66zM391 788v129h44v-129h-44zM251 788v129h44v-129h-44zM545 690h40v-452q0 -117 -67 -183t-183 -66q-115 0 -182.5 66t-67.5 183v452h60v-446q0 -99 52.5 -156.5t146.5 -57.5q93 0 147 57.5t54 156.5v446z" />
    <glyph glyph-name="udieresisacute" unicode="&#x1d8;" 
d="M291 797h-29l66 129h66zM326 597v129h44v-129h-44zM186 597v129h44v-129h-44zM434 0l1 145q-17 -72 -66 -114t-121 -42q-77 0 -124.5 51t-47.5 149v311h53v-308q0 -77 38 -119.5t102 -42.5q74 0 118.5 53.5t44.5 144.5v272h53v-500h-51z" />
    <glyph glyph-name="Udieresiscaron" unicode="&#x1d9;" horiz-adv-x="669" 
d="M312 985l-95 130h34l92 -103l92 103h34l-95 -130h-62zM391 788v129h44v-129h-44zM251 788v129h44v-129h-44zM545 690h40v-452q0 -117 -67 -183t-183 -66q-115 0 -182.5 66t-67.5 183v452h60v-446q0 -99 52.5 -156.5t146.5 -57.5q93 0 147 57.5t54 156.5v446z" />
    <glyph glyph-name="udieresiscaron" unicode="&#x1da;" 
d="M247 794l-95 130h34l92 -103l92 103h34l-95 -130h-62zM326 597v129h44v-129h-44zM186 597v129h44v-129h-44zM434 0l1 145q-17 -72 -66 -114t-121 -42q-77 0 -124.5 51t-47.5 149v311h53v-308q0 -77 38 -119.5t102 -42.5q74 0 118.5 53.5t44.5 144.5v272h53v-500h-51z" />
    <glyph glyph-name="Udieresisgrave" unicode="&#x1db;" horiz-adv-x="669" 
d="M358 988h-29l-103 129h66zM391 788v129h44v-129h-44zM251 788v129h44v-129h-44zM545 690h40v-452q0 -117 -67 -183t-183 -66q-115 0 -182.5 66t-67.5 183v452h60v-446q0 -99 52.5 -156.5t146.5 -57.5q93 0 147 57.5t54 156.5v446z" />
    <glyph glyph-name="udieresisgrave" unicode="&#x1dc;" 
d="M293 797h-29l-103 129h66zM326 597v129h44v-129h-44zM186 597v129h44v-129h-44zM434 0l1 145q-17 -72 -66 -114t-121 -42q-77 0 -124.5 51t-47.5 149v311h53v-308q0 -77 38 -119.5t102 -42.5q74 0 118.5 53.5t44.5 144.5v272h53v-500h-51z" />
    <glyph glyph-name="AEmacron" unicode="&#x1e2;" horiz-adv-x="892" 
d="M326 866h246v-36h-246v36zM450 242l-146 405l-145 -405h291zM537 0l-74 204h-318l-73 -204h-43l250 690h553v-39h-471l99 -272h331v-39h-317l110 -301h260v-39h-307z" />
    <glyph glyph-name="Aringacute" unicode="&#x1fa;" horiz-adv-x="616" 
d="M322 988h-29l66 129h66zM308 785q-42 0 -70 22t-28 57t28 57t70 22q41 0 69.5 -22t28.5 -57t-28 -57t-70 -22zM308 804q27 0 44 17t17 43t-17 43t-44 17t-44 -17t-17 -43t17 -43t44 -17zM450 242l-146 405l-145 -405h291zM537 0l-74 204h-318l-73 -204h-43l250 690h68
l251 -690h-61z" />
    <glyph glyph-name="aringacute" unicode="&#x1fb;" horiz-adv-x="542" 
d="M271 797h-29l66 129h66zM257 594q-42 0 -70 22t-28 57t28 57t70 22q41 0 69.5 -22t28.5 -57t-28 -57t-70 -22zM257 613q27 0 44 17t17 43t-17 43t-44 17t-44 -17t-17 -43t17 -43t44 -17zM219 23q74 0 121 57.5t47 136.5v59l-128 -27q-151 -32 -151 -124q0 -47 33 -74.5
t78 -27.5zM201 -11q-62 0 -106 35.5t-44 96.5q0 118 195 157l141 28v26q0 71 -32.5 108.5t-96.5 37.5q-55 0 -95.5 -29t-40.5 -81q0 -22 9 -44l-54 10q-7 26 -7 38q0 64 55 101.5t134 37.5q88 0 134.5 -47.5t46.5 -134.5v-218q0 -84 48 -84q22 0 39 16l5 -28
q-18 -21 -57 -21q-42 0 -65.5 31t-23.5 88v13h1v8q-19 -65 -69 -105t-117 -40z" />
    <glyph glyph-name="AEacute" unicode="&#x1fc;" horiz-adv-x="892" 
d="M463 788h-29l66 129h66zM450 242l-146 405l-145 -405h291zM537 0l-74 204h-318l-73 -204h-43l250 690h553v-39h-471l99 -272h331v-39h-317l110 -301h260v-39h-307z" />
    <glyph glyph-name="aeacute" unicode="&#x1fd;" horiz-adv-x="887" 
d="M446 597h-29l66 129h66z" />
    <glyph glyph-name="Oslashacute" unicode="&#x1fe;" horiz-adv-x="722" 
d="M376 788h-29l66 129h66zM123 342q0 -127 54 -211l355 464q-67 70 -164 70q-109 0 -177 -85.5t-68 -231.5v-6zM368 25q109 0 177 85.5t68 231.5v6q0 133 -59 219l-355 -466q67 -76 169 -76zM368 -11q-117 0 -199 73l-83 -109h-45l103 135q-83 97 -83 255v4
q0 161 85.5 257.5t221.5 96.5q113 0 192 -68l80 104h44l-98 -129q88 -99 88 -261v-4q0 -161 -85.5 -257.5t-220.5 -96.5z" />
    <glyph glyph-name="oslashacute" unicode="&#x1ff;" 
d="M293 597h-29l66 129h66zM109 246q0 -89 37 -147l253 326q-47 52 -117 52q-75 0 -124 -59t-49 -165v-7zM282 23q74 0 123 58.5t49 164.5v7q0 88 -36 147l-254 -326q46 -51 118 -51zM282 -11q-84 0 -145 50l-67 -86h-38l83 107q-64 72 -64 188v4q0 120 66 189.5t165 69.5
q86 0 144 -51l67 86h38l-83 -106q65 -72 65 -188v-4q0 -120 -66.5 -189.5t-164.5 -69.5z" />
    <glyph glyph-name="uni0218" unicode="&#x218;" horiz-adv-x="592" 
d="M65 214l56 15q-8 -26 -8 -52q0 -68 56.5 -110t137.5 -42q78 0 131.5 40.5t53.5 110.5q0 49 -32.5 86t-105.5 51l-116 23q-80 16 -124 63t-44 115q0 83 64.5 135t162.5 52q95 0 161 -46t66 -122q0 -22 -8 -46l-56 -15q8 26 8 51q0 65 -50 103.5t-122 38.5
q-73 0 -122.5 -39.5t-49.5 -103.5q0 -51 33 -85t95 -46l112 -22q95 -19 138.5 -68t43.5 -115q0 -90 -67.5 -143.5t-172.5 -53.5q-103 0 -175.5 49t-72.5 128q0 22 7 48zM328 -161q0 -77 -74 -78v25q41 3 41 53v10h-19v90h52v-100z" />
    <glyph glyph-name="scommaaccent" unicode="&#x219;" horiz-adv-x="488" 
d="M58 157l50 13q-5 -14 -5 -35q0 -52 43.5 -82.5t104.5 -30.5q59 0 100 28t41 75q0 80 -108 99l-86 16q-64 12 -99.5 46.5t-35.5 85.5q0 61 51 100t130 39q75 0 128.5 -35t54.5 -95q0 -17 -5 -32l-52 -14q6 16 6 36q-1 51 -39.5 79t-93.5 28t-92 -27t-37 -71q0 -74 94 -92
l87 -16q147 -27 147 -139q0 -66 -54.5 -105t-136.5 -39t-140 37.5t-58 98.5q0 15 5 32zM353 -161q0 -77 -74 -78v25q41 3 41 53v10h-19v90h52v-100z" />
    <glyph glyph-name="uni021A" unicode="&#x21a;" horiz-adv-x="581" 
d="M563 653h-240v-653h-58v653h-240v37h538v-37zM316 -161q0 -77 -74 -78v25q41 3 41 53v10h-19v90h52v-100z" />
    <glyph glyph-name="uni021B" unicode="&#x21b;" horiz-adv-x="379" 
d="M347 20q-45 -31 -96 -31q-53 0 -86 35.5t-33 110.5v332h-104v33h104v155h53v-155h154v-33h-154v-332q0 -54 21.5 -82t57.5 -28q40 0 78 32zM277 -161q0 -77 -74 -78v25q41 3 41 53v10h-19v90h52v-100z" />
    <glyph glyph-name="dotlessj" unicode="&#x237;" horiz-adv-x="212" 
d="M24 -200q-47 0 -83 25l8 37q32 -26 64 -26q66 0 66 86v578h54v-581q0 -57 -28 -88t-81 -31z" />
    <glyph glyph-name="circumflex" unicode="&#x2c6;" horiz-adv-x="420" 
d="M302 597l-92 103l-92 -103h-34l95 130h62l95 -130h-34z" />
    <glyph glyph-name="caron" unicode="&#x2c7;" horiz-adv-x="420" 
d="M179 596l-95 130h34l92 -103l92 103h34l-95 -130h-62z" />
    <glyph glyph-name="breve" unicode="&#x2d8;" horiz-adv-x="420" 
d="M210 637q39 0 64.5 25.5t25.5 63.5h29q0 -55 -33.5 -91t-85.5 -36t-85.5 36t-33.5 91h29q0 -38 25.5 -63.5t64.5 -25.5z" />
    <glyph glyph-name="dotaccent" unicode="&#x2d9;" horiz-adv-x="420" 
d="M183 597v129h54v-129h-54z" />
    <glyph glyph-name="ring" unicode="&#x2da;" horiz-adv-x="420" 
d="M210 594q-42 0 -70 22t-28 57t28 57t70 22q41 0 69.5 -22t28.5 -57t-28 -57t-70 -22zM210 613q27 0 44 17t17 43t-17 43t-44 17t-44 -17t-17 -43t17 -43t44 -17z" />
    <glyph glyph-name="ogonek" unicode="&#x2db;" horiz-adv-x="420" 
d="M222 5l25 -5q-91 -66 -91 -120q0 -24 16 -38t42 -14q34 0 68 31l14 -24q-41 -36 -92 -36q-41 0 -67 20.5t-26 54.5q0 68 111 131z" />
    <glyph glyph-name="tilde" unicode="&#x2dc;" horiz-adv-x="420" 
d="M70 608v20q0 43 20.5 69.5t55.5 26.5q22 0 40.5 -13t29 -28.5t26.5 -28.5t33 -13q23 0 36.5 18.5t13.5 49.5v10h25v-19q0 -43 -20.5 -70t-54.5 -27q-22 0 -40.5 13t-29.5 29t-27 29t-33 13q-22 0 -36 -19t-14 -50v-10h-25z" />
    <glyph glyph-name="hungarumlaut" unicode="&#x2dd;" horiz-adv-x="420" 
d="M256 597h-26l65 129h57zM124 597h-26l64 129h58z" />
    <glyph glyph-name="uni0326" unicode="&#x326;" horiz-adv-x="420" 
d="M236 -161q0 -77 -74 -78v25q41 3 41 53v10h-19v90h52v-100z" />
    <glyph glyph-name="mu" unicode="&#x3bc;" horiz-adv-x="580" 
d="M249 -11q-76 0 -122 49v-230h-51v443h1v249h53v-308q0 -77 38 -119.5t102 -42.5q74 0 118.5 53.5t44.5 144.5v272h53v-500h-51l1 145q-17 -72 -66 -114t-121 -42z" />
    <glyph glyph-name="pi" unicode="&#x3c0;" horiz-adv-x="639" 
d="M605 16q-40 -26 -89 -26q-112 0 -112 134v341h-165l-60 -465h-53l59 465h-141v35h553v-35h-141v-336q0 -103 73 -103q39 0 70 27z" />
    <glyph glyph-name="uni0E3F" unicode="&#xe3f;" horiz-adv-x="592" 
d="M143 376h138v277h-138v-277zM472 514q0 67 -42 103t-121 36v-277q163 7 163 138zM143 37h141v302h-141v-302zM498 189q0 68 -48 109t-137 41v-302h6q86 0 132.5 41.5t46.5 110.5zM318 0h-5v-110h-29v110h-195v690h192v110h28v-110q105 -2 161.5 -45t56.5 -126
q0 -134 -158 -160q87 -12 135 -56t48 -118q0 -87 -61 -136t-173 -49z" />
    <glyph glyph-name="Wgrave" unicode="&#x1e80;" horiz-adv-x="946" 
d="M493 788h-29l-103 129h66zM225 0l-195 690h60l177 -643l181 643h71l183 -642l176 642h44l-192 -690h-69l-186 638l-180 -638h-70z" />
    <glyph glyph-name="wgrave" unicode="&#x1e81;" horiz-adv-x="750" 
d="M395 597h-29l-103 129h66zM173 0l-149 500h56l134 -461l136 461h63l138 -460l135 460h40l-149 -500h-66l-137 456l-135 -456h-66z" />
    <glyph glyph-name="Wacute" unicode="&#x1e82;" horiz-adv-x="946" 
d="M493 788h-29l66 129h66zM225 0l-195 690h60l177 -643l181 643h71l183 -642l176 642h44l-192 -690h-69l-186 638l-180 -638h-70z" />
    <glyph glyph-name="wacute" unicode="&#x1e83;" horiz-adv-x="750" 
d="M395 597h-29l66 129h66zM173 0l-149 500h56l134 -461l136 461h63l138 -460l135 460h40l-149 -500h-66l-137 456l-135 -456h-66z" />
    <glyph glyph-name="Wdieresis" unicode="&#x1e84;" horiz-adv-x="946" 
d="M526 788v129h44v-129h-44zM386 788v129h44v-129h-44zM225 0l-195 690h60l177 -643l181 643h71l183 -642l176 642h44l-192 -690h-69l-186 638l-180 -638h-70z" />
    <glyph glyph-name="wdieresis" unicode="&#x1e85;" horiz-adv-x="750" 
d="M429 597v129h44v-129h-44zM289 597v129h44v-129h-44zM173 0l-149 500h56l134 -461l136 461h63l138 -460l135 460h40l-149 -500h-66l-137 456l-135 -456h-66z" />
    <glyph glyph-name="Ygrave" unicode="&#x1ef2;" horiz-adv-x="584" 
d="M312 788h-29l-103 129h66zM323 290v-290h-58v290l-240 400h65l214 -361l216 361h43z" />
    <glyph glyph-name="ygrave" unicode="&#x1ef3;" horiz-adv-x="485" 
d="M274 597h-29l-103 129h66zM110 -201q-50 0 -86 30l11 49q33 -30 77 -30q29 0 54.5 19.5t39.5 56.5l22 58l-207 518h59l176 -446l166 446h39l-219 -586q-44 -115 -132 -115z" />
    <glyph glyph-name="endash" unicode="&#x2013;" horiz-adv-x="566" 
d="M57 246v39h452v-39h-452z" />
    <glyph glyph-name="emdash" unicode="&#x2014;" horiz-adv-x="806" 
d="M57 246v39h692v-39h-692z" />
    <glyph glyph-name="quoteleft" unicode="&#x2018;" horiz-adv-x="209" 
d="M135 610v-114h-62v164q0 34 16.5 53.5t44.5 19.5q18 0 32 -8l-7 -38q-13 8 -25 8q-28 0 -28 -40v-45h29z" />
    <glyph glyph-name="quoteright" unicode="&#x2019;" horiz-adv-x="209" 
d="M75 486q-18 0 -32 8l7 38q13 -8 25 -8q28 0 28 40v45h-29v114h62v-164q0 -34 -16.5 -53.5t-44.5 -19.5z" />
    <glyph glyph-name="quotesinglbase" unicode="&#x201a;" horiz-adv-x="209" 
d="M75 -123q-18 0 -32 8l7 38q13 -8 25 -8q28 0 28 40v45h-29v114h62v-164q0 -34 -16.5 -53.5t-44.5 -19.5z" />
    <glyph glyph-name="quotedblleft" unicode="&#x201c;" horiz-adv-x="358" 
d="M284 609v-114h-62v164q0 34 16.5 53.5t44.5 19.5q18 0 32 -8l-7 -38q-13 8 -25 8q-28 0 -28 -40v-45h29zM135 609v-114h-62v164q0 34 16.5 53.5t44.5 19.5q18 0 32 -8l-7 -38q-13 8 -25 8q-28 0 -28 -40v-45h29z" />
    <glyph glyph-name="quotedblright" unicode="&#x201d;" horiz-adv-x="358" 
d="M75 486q-18 0 -32 8l7 38q13 -8 25 -8q28 0 28 40v45h-29v114h62v-164q0 -34 -16.5 -53.5t-44.5 -19.5zM224 486q-18 0 -32 8l7 38q13 -8 25 -8q28 0 28 40v45h-29v114h62v-164q0 -34 -16.5 -53.5t-44.5 -19.5z" />
    <glyph glyph-name="quotedblbase" unicode="&#x201e;" horiz-adv-x="358" 
d="M75 -126q-18 0 -32 8l7 38q13 -8 25 -8q28 0 28 40v45h-29v114h62v-164q0 -34 -16.5 -53.5t-44.5 -19.5zM224 -126q-18 0 -32 8l7 38q13 -8 25 -8q28 0 28 40v45h-29v114h62v-164q0 -34 -16.5 -53.5t-44.5 -19.5z" />
    <glyph glyph-name="dagger" unicode="&#x2020;" horiz-adv-x="428" 
d="M225 534h-21l-19 148v8h58v-8zM45 471h-8v57h8l127 -21v-16zM256 491v16l127 21h8v-57h-8zM224 0h-20l-19 286l19 179h21l18 -179z" />
    <glyph glyph-name="daggerdbl" unicode="&#x2021;" horiz-adv-x="436" 
d="M229 534h-21l-19 143v13h58v-13zM55 471h-14v57h14l121 -21v-16zM260 491v16l122 21h13v-57h-13zM229 226h-21l-19 120l19 119h21l18 -119zM55 162h-14v58h14l121 -21v-16zM260 183v16l122 21h13v-58h-13zM189 13l19 143h21l18 -143v-13h-58v13z" />
    <glyph glyph-name="ellipsis" unicode="&#x2026;" horiz-adv-x="592" 
d="M453 0v114h62v-114h-62zM265 0v114h62v-114h-62zM77 0v114h62v-114h-62z" />
    <glyph glyph-name="perthousand" unicode="&#x2030;" horiz-adv-x="1129" 
d="M343 519v-5q0 -82 -41 -133t-108 -51q-68 0 -109.5 51t-41.5 133v5q0 81 41.5 131t109.5 50q67 0 108 -50.5t41 -130.5zM194 0h-44l445 690h44zM298 513v7q0 69 -28 110.5t-76 41.5t-76 -41.5t-28 -110.5v-7q0 -70 28 -112.5t76 -42.5t76 42.5t28 112.5zM743 178v-4
q0 -83 -41 -133.5t-108 -50.5t-108.5 50.5t-41.5 133.5v4q0 81 41.5 131.5t108.5 50.5t108 -50.5t41 -131.5zM1084 178v-4q0 -83 -39 -133.5t-105 -50.5t-105.5 50.5t-39.5 133.5v4q0 81 39.5 131.5t105.5 50.5t105 -50t39 -132zM698 172v7q0 69 -28 111t-76 42
q-47 0 -75.5 -42t-28.5 -111v-7q0 -70 28.5 -112t75.5 -42q48 0 76 42t28 112zM1039 172v7q0 71 -26.5 112t-72.5 41t-72.5 -41t-26.5 -112v-7q0 -71 26.5 -112.5t72.5 -41.5t72.5 41.5t26.5 112.5z" />
    <glyph glyph-name="guilsinglleft" unicode="&#x2039;" horiz-adv-x="288" 
d="M242 58l-203 182v35l203 182v-53l-164 -146l164 -147v-53z" />
    <glyph glyph-name="guilsinglright" unicode="&#x203a;" horiz-adv-x="288" 
d="M46 58v53l164 147l-164 146v53l203 -182v-35z" />
    <glyph glyph-name="fraction" unicode="&#x2044;" horiz-adv-x="102" 
d="M75 335l-220 -337h-82l254 367l220 337h82z" />
    <glyph glyph-name="uni20A6" unicode="&#x20a6;" horiz-adv-x="797" 
d="M187 433h134l-134 221v-221zM620 405h-222l66 -109h156v109zM187 294h218l-66 109h-152v-109zM620 40v227h-138zM583 0l-159 262h-237v-262h-40v263h-108v32h108v110h-108v32h108v253h77l154 -253h242v253h40v-253h98v-32h-98v-110h98v-32h-98v-263h-77z" />
    <glyph glyph-name="uni20A9" unicode="&#x20a9;" horiz-adv-x="1055" 
d="M471 431h125l-63 223zM830 298l29 107h-203l30 -107h144zM393 298l30 107h-202l29 -107h143zM433 294h201l-30 107h-141zM758 36l63 231h-127zM321 35l64 232h-127zM279 0l-73 264h-164v32h155l-30 107h-125v32h117l-71 255h56l68 -253h219l70 253h77l70 -253h220l69 253
h44l-71 -255h103v-32h-112l-30 -107h142v-32h-151l-73 -264h-72l-74 262h-218l-73 -262h-73z" />
    <glyph glyph-name="Euro" unicode="&#x20ac;" horiz-adv-x="682" 
d="M622 189q0 -88 -63 -144t-158 -56q-107 0 -180.5 74t-90.5 206h-91v32h87q-1 14 -1 42v4q0 28 1 41h-87v32h90q17 132 90.5 206.5t179.5 74.5q94 0 156 -56t62 -146q0 -25 -5 -45l-55 -15q7 27 7 53q0 78 -48 126.5t-119 48.5q-81 0 -138.5 -65.5t-71.5 -181.5h242v-32
h-245q-1 -12 -1 -38v-10q0 -26 1 -39h245v-32h-242q14 -116 71.5 -181t140.5 -65q72 0 121 48.5t49 126.5q0 25 -7 49l56 -14q4 -20 4 -44z" />
    <glyph glyph-name="uni20B1" unicode="&#x20b1;" horiz-adv-x="712" 
d="M347 654h-151v-151h343q-5 72 -54.5 111.5t-137.5 39.5zM347 318q88 0 137.5 40t54.5 113h-343v-153h151zM346 282h-150v-282h-54v471h-108v32h108v187h204q111 0 176.5 -48t71.5 -139h85v-32h-85q-5 -92 -70.5 -140.5t-177.5 -48.5z" />
    <glyph glyph-name="uni20B9" unicode="&#x20b9;" horiz-adv-x="590" 
d="M219 307l-72 3l380 -310h-79l-382 312v23h147q84 0 132.5 37.5t53.5 106.5h-333v32h332q-5 68 -53 105.5t-132 37.5h-147v36h492v-32h-198q88 -44 94 -147h100v-32h-100q-6 -85 -68.5 -128.5t-166.5 -43.5z" />
    <glyph glyph-name="uni20BA" unicode="&#x20ba;" horiz-adv-x="591" 
d="M296 -11q-76 0 -143 44v254l-108 -49v37l108 49v105l-108 -49v38l108 49v223h54v-199l254 115v-37l-254 -115v-106l254 115v-36l-254 -115v-266q45 -21 90 -21q83 0 140.5 52t57.5 136q0 23 -6 49l53 -13q4 -21 4 -44q0 -95 -72 -155.5t-178 -60.5z" />
    <glyph glyph-name="uni20BD" unicode="&#x20bd;" horiz-adv-x="625" 
d="M334 654h-137v-289h137q91 0 142 38t51 105v4q0 67 -51 104.5t-142 37.5zM489 192h-292v-192h-59v192h-104v34h104v104h-104v35h104v325h198q115 0 182.5 -46t67.5 -132v-3q0 -87 -67.5 -133t-182.5 -46h-139v-104h292v-34z" />
    <glyph glyph-name="numero" unicode="&#x2116;" horiz-adv-x="1187" 
d="M917 197q-93 0 -159 68t-66 182v3q0 114 66 182.5t159 68.5t158.5 -68.5t65.5 -182.5v-3q0 -114 -65.5 -182t-158.5 -68zM917 229q70 0 119 58t49 158v7q0 100 -49 158t-119 58t-119 -58t-49 -158v-7q0 -100 49 -158t119 -58zM529 0l-399 640v-640h-41v690h76l398 -635
v635h41v-690h-75zM804 0v39h227v-39h-227z" />
    <glyph glyph-name="uni2117" unicode="&#x2117;" horiz-adv-x="804" 
d="M754 347v-4q0 -151 -102.5 -252.5t-249.5 -101.5t-249.5 101.5t-102.5 252.5v4q0 151 102.5 252.5t249.5 101.5t249.5 -101.5t102.5 -252.5zM716 347q0 140 -91 233.5t-223 93.5t-223 -93.5t-91 -233.5v-4q0 -140 91 -233.5t223 -93.5t223 93.5t91 233.5v4zM422 517h-89
v-186h89q51 0 77.5 24t26.5 68v2q0 44 -26.5 68t-77.5 24zM428 305h-95v-158h-46v396h141q68 0 107 -30.5t39 -88.5v-1q0 -57 -39 -87.5t-107 -30.5z" />
    <glyph glyph-name="uni2120" unicode="&#x2120;" horiz-adv-x="798" 
d="M546 330l-132 331v-331h-27v360h52l127 -319l125 319h51v-360h-36v334l-130 -334h-30zM50 442l35 9q-5 -13 -5 -26q0 -34 29 -55.5t69 -21.5t67 20t27 55q0 57 -69 70l-61 11q-43 8 -66.5 33t-23.5 61q0 44 34.5 72t87.5 28q50 0 85 -24.5t35 -63.5q0 -8 -4 -24l-35 -9
q4 12 4 27q0 32 -25 51t-61 19q-37 0 -62.5 -19t-25.5 -51q0 -54 66 -67l59 -11q96 -19 96 -96q0 -47 -36 -75.5t-92 -28.5t-94 25t-38 67q0 15 4 24z" />
    <glyph glyph-name="trademark" unicode="&#x2122;" horiz-adv-x="807" 
d="M323 666h-127v-336h-37v336h-127v24h291v-24zM547 330l-132 334v-334h-26v360h51l127 -320l125 320h51v-360h-35v334l-130 -334h-31z" />
    <glyph glyph-name="Omega" unicode="&#x2126;" horiz-adv-x="723" 
d="M288 22v-22h-235v35h181q-76 46 -125.5 134.5t-49.5 197.5q0 146 82 239.5t221 93.5t221 -93.5t82 -239.5q0 -109 -49.5 -197.5t-124.5 -134.5h179v-35h-235v22q75 43 122.5 131.5t47.5 204.5q0 136 -66 222t-177 86q-110 0 -177 -86.5t-67 -221.5q0 -116 48 -204.5
t122 -131.5z" />
    <glyph glyph-name="arrowleft" unicode="&#x2190;" horiz-adv-x="601" 
d="M568 284h-482l157 -155h-51l-171 171v5l171 171h52l-159 -156h483v-36z" />
    <glyph glyph-name="arrowup" unicode="&#x2191;" horiz-adv-x="601" 
d="M474 384l-156 159v-483h-36v482l-155 -157v51l171 171h5l171 -171v-52z" />
    <glyph glyph-name="arrowright" unicode="&#x2192;" horiz-adv-x="601" 
d="M354 129l157 155h-482v36h483l-159 156h52l171 -171v-5l-171 -171h-51z" />
    <glyph glyph-name="arrowdown" unicode="&#x2193;" horiz-adv-x="601" 
d="M303 35h-5l-171 171v52l156 -159v483h36v-482l155 157v-51z" />
    <glyph glyph-name="arrowupleft" unicode="&#x2196;" horiz-adv-x="601" 
d="M511 136l-26 -26l-341 341l2 -221l-36 36v242l4 4h241l37 -37l-223 2z" />
    <glyph glyph-name="arrowupright" unicode="&#x2197;" horiz-adv-x="602" 
d="M455 239l2 223l-341 -342l-26 26l341 341l-221 -2l36 36h242l4 -4v-241z" />
    <glyph glyph-name="arrowdownright" unicode="&#x2198;" horiz-adv-x="601" 
d="M494 124h-241l-37 37l223 -2l-342 341l26 26l341 -341l-2 221l36 -36v-242z" />
    <glyph glyph-name="arrowdownleft" unicode="&#x2199;" horiz-adv-x="602" 
d="M336 115h-242l-4 4v241l37 37l-2 -223l341 342l26 -26l-341 -341l221 2z" />
    <glyph glyph-name="partialdiff" unicode="&#x2202;" horiz-adv-x="0" 
 />
    <glyph glyph-name="Delta" unicode="&#x2206;" horiz-adv-x="586" 
d="M496 38l-210 605l-211 -605h421zM18 0l242 690h65l242 -690h-549z" />
    <glyph glyph-name="product" unicode="&#x220f;" horiz-adv-x="667" 
d="M524 -192v843h-381v-843h-56v882h494v-882h-57z" />
    <glyph glyph-name="summation" unicode="&#x2211;" horiz-adv-x="605" 
d="M545 -135v-57h-486v46l381 398l-381 393l1 5h-1v40h486v-40h-410l347 -361v-51l-357 -373h420z" />
    <glyph glyph-name="minus" unicode="&#x2212;" horiz-adv-x="600" 
d="M74 326v38h452v-38h-452z" />
    <glyph glyph-name="radical" unicode="&#x221a;" horiz-adv-x="626" 
d="M270 0l-192 432h-60v38h92l182 -415l293 727h56l-316 -782h-55z" />
    <glyph glyph-name="integral" unicode="&#x222b;" horiz-adv-x="461" 
d="M120 -201q-54 0 -95 33l8 40q33 -36 81 -36q89 0 89 119v629q0 75 38 113.5t100 38.5q54 0 96 -33l-9 -40q-33 36 -81 36q-89 0 -89 -119v-629q0 -75 -38 -113.5t-100 -38.5z" />
    <glyph glyph-name="approxequal" unicode="&#x2248;" horiz-adv-x="600" 
d="M76 364v34q0 49 32 82t82 33q32 0 63.5 -17t53 -38t50 -38t56.5 -17q36 0 59 23t23 58v22h29v-34q0 -50 -31 -82.5t-81 -32.5q-32 0 -64 17.5t-53.5 38t-50 38t-56.5 17.5q-36 0 -59.5 -23t-23.5 -59v-22h-29zM76 171v34q0 50 32 82.5t82 32.5q32 0 63.5 -17t53 -38
t50 -38t56.5 -17q36 0 59 23t23 58v22h29v-33q0 -50 -31 -82.5t-81 -32.5q-32 0 -64 17t-53.5 38t-50 38t-56.5 17q-36 0 -59.5 -23.5t-23.5 -58.5v-22h-29z" />
    <glyph glyph-name="notequal" unicode="&#x2260;" horiz-adv-x="600" 
d="M526 234h-266l-65 -117h-42l65 117h-144v39h166l79 144h-245v39h267l65 117h42l-65 -117h143v-39h-165l-79 -144h244v-39z" />
    <glyph glyph-name="lessequal" unicode="&#x2264;" horiz-adv-x="600" 
d="M526 120l-452 188v56l452 186v-43l-415 -171l415 -171v-45zM74 0v38h452v-38h-452z" />
    <glyph glyph-name="greaterequal" unicode="&#x2265;" horiz-adv-x="600" 
d="M74 120v45l415 171l-415 171v43l452 -186v-56zM526 38v-38h-452v38h452z" />
    <glyph glyph-name="lozenge" unicode="&#x25ca;" horiz-adv-x="517" 
d="M88 345l171 -316l171 316l-171 316zM233 0l-187 345l187 345h52l187 -345l-187 -345h-52z" />
    <glyph glyph-name="uni27F7" unicode="&#x27f7;" horiz-adv-x="899" 
d="M707 128h-52l159 156h-729l157 -155h-51l-171 171v5l171 171h52l-159 -156h729l-157 155h51l171 -171v-5z" />
    <glyph glyph-name="commaaccent" unicode="&#xf6c3;" horiz-adv-x="259" 
d="M73 -124q-17 0 -33 7l7 39q11 -8 24 -8q14 0 23 11t9 29v46h-29v114h62v-165q0 -34 -17.5 -53.5t-45.5 -19.5z" />
    <glyph glyph-name="dieresisacute" unicode="&#xf6d7;" horiz-adv-x="420" 
d="M223 797h-29l66 129h66zM258 597v129h44v-129h-44zM118 597v129h44v-129h-44z" />
    <glyph glyph-name="dieresisgrave" unicode="&#xf6d8;" horiz-adv-x="420" 
d="M225 797h-29l-103 129h66zM258 597v129h44v-129h-44zM118 597v129h44v-129h-44z" />
    <glyph glyph-name="fi" unicode="&#xfb01;" horiz-adv-x="572" 
d="M437 608v118h58v-118h-58zM439 0v467h-254v-467h-53v467h-104v33h104v76q0 80 37 120.5t100 40.5q56 0 99 -34l-9 -40q-33 38 -85 38q-89 0 -89 -126v-75h308v-500h-54z" />
    <glyph glyph-name="fl" unicode="&#xfb02;" horiz-adv-x="572" 
d="M439 0v467h-254v-467h-53v467h-104v33h104v76q0 80 37 120.5t100 40.5q56 0 99 -34l-9 -40q-33 38 -85 38q-89 0 -89 -126v-75h254v226h54v-726h-54z" />
    <glyph glyph-name="Scommaaccent" horiz-adv-x="596" 
d="M65 214l56 15q-8 -26 -8 -52q0 -68 56.5 -110t137.5 -42q78 0 131.5 40.5t53.5 110.5q0 49 -32.5 86t-105.5 51l-116 23q-80 16 -124 63t-44 115q0 83 64.5 135t162.5 52q95 0 161 -46t66 -122q0 -22 -8 -46l-56 -15q8 26 8 51q0 65 -50 103.5t-122 38.5
q-73 0 -122.5 -39.5t-49.5 -103.5q0 -51 33 -85t95 -46l112 -22q95 -19 138.5 -68t43.5 -115q0 -90 -67.5 -143.5t-172.5 -53.5q-103 0 -175.5 49t-72.5 128q0 22 7 48zM407 -161q0 -77 -74 -78v25q41 3 41 53v10h-19v90h52v-100z" />
    <glyph glyph-name="uni0219" horiz-adv-x="488" 
d="M58 157l50 13q-5 -14 -5 -35q0 -52 43.5 -82.5t104.5 -30.5q59 0 100 28t41 75q0 80 -108 99l-86 16q-64 12 -99.5 46.5t-35.5 85.5q0 61 51 100t130 39q75 0 128.5 -35t54.5 -95q0 -17 -5 -32l-52 -14q6 16 6 36q-1 51 -39.5 79t-93.5 28t-92 -27t-37 -71q0 -74 94 -92
l87 -16q147 -27 147 -139q0 -66 -54.5 -105t-136.5 -39t-140 37.5t-58 98.5q0 15 5 32zM275 -161q0 -77 -74 -78v25q41 3 41 53v10h-19v90h52v-100z" />
    <glyph glyph-name="slash" horiz-adv-x="359" 
d="M0 -135l313 935h46l-313 -935h-46z" />
    <glyph glyph-name="Gcommaaccent" horiz-adv-x="740" 
d="M589 0l-7 197q-19 -96 -78.5 -152t-149.5 -56q-124 0 -208.5 96.5t-84.5 257.5v5q0 160 88 256.5t224 96.5q105 0 178.5 -54t73.5 -142q0 -20 -6 -44l-56 -15q7 25 7 50q0 76 -58 122.5t-140 46.5q-107 0 -178 -85.5t-71 -230.5v-7q0 -147 68.5 -231t171.5 -84
q94 0 153 71t59 186v7h-219v37h272v-328h-39zM400 -161q0 -77 -74 -78v25q41 3 41 53v10h-19v90h52v-100z" />
    <glyph glyph-name="baraccent" horiz-adv-x="420" 
d="M57 465v34h307v-34h-307z" />
    <glyph glyph-name="dieresiscaron" horiz-adv-x="420" 
d="M179 794l-95 130h34l92 -103l92 103h34l-95 -130h-62zM258 597v129h44v-129h-44zM118 597v129h44v-129h-44z" />
    <glyph glyph-name="dieresismacron" horiz-adv-x="420" 
d="M87 866h246v-36h-246v36zM258 597v129h44v-129h-44zM118 597v129h44v-129h-44z" />
    <glyph glyph-name="idotaccent" horiz-adv-x="207" 
d="M76 597v129h54v-129h-54zM79 0v500h54v-500h-54z" />
    <glyph glyph-name="ringacute" horiz-adv-x="420" 
d="M224 797h-29l66 129h66zM210 594q-42 0 -70 22t-28 57t28 57t70 22q41 0 69.5 -22t28.5 -57t-28 -57t-70 -22zM210 613q27 0 44 17t17 43t-17 43t-44 17t-44 -17t-17 -43t17 -43t44 -17z" />
    <glyph glyph-name="www" horiz-adv-x="2092" 
d="M173 0l-149 500h56l134 -461l136 461h63l138 -460l135 460h67l134 -461l136 461h63l138 -460l135 460h66l134 -461l136 461h63l138 -460l135 460h40l-149 -500h-66l-137 456l-135 -456h-66l-134 450l-134 -450h-66l-137 456l-135 -456h-66l-134 451l-135 -451h-66
l-137 456l-135 -456h-66z" />
    <glyph glyph-name="f_b" horiz-adv-x="939" 
d="M676 -11q-66 0 -116.5 39.5t-70.5 114.5v-143h-50v467h-254v-467h-53v467h-104v33h104v76q0 80 37 120.5t100 40.5q56 0 99 -34l-9 -40q-33 38 -85 38q-89 0 -89 -126v-75h254v226h53v-364q22 72 71.5 110.5t113.5 38.5q90 0 150.5 -69t60.5 -190v-4q0 -121 -60.5 -190
t-151.5 -69zM660 23q74 0 122 58.5t48 164.5v7q0 106 -48 165t-122 59q-73 0 -121.5 -59.5t-48.5 -164.5v-7q0 -104 48.5 -163.5t121.5 -59.5z" />
    <glyph glyph-name="f_f" horiz-adv-x="682" 
d="M439 0v467h-254v-467h-53v467h-104v33h104v76q0 80 37 120.5t100 40.5q56 0 99 -34l-9 -40q-33 38 -85 38q-89 0 -89 -126v-75h254v76q0 80 37 120.5t100 40.5q56 0 99 -34l-9 -40q-33 38 -85 38q-89 0 -89 -126v-75h166v-33h-166v-467h-53z" />
    <glyph glyph-name="f_f_b" horiz-adv-x="1246" 
d="M983 -11q-66 0 -116.5 39.5t-70.5 114.5v-143h-50v467h-254v-467h-53v467h-254v-467h-53v467h-104v33h104v76q0 80 37 120.5t100 40.5q56 0 99 -34l-9 -40q-33 38 -85 38q-89 0 -89 -126v-75h254v76q0 80 37 120.5t100 40.5q56 0 99 -34l-9 -40q-33 38 -85 38
q-89 0 -89 -126v-75h254v226h53v-364q22 72 71.5 110.5t113.5 38.5q90 0 150.5 -69t60.5 -190v-4q0 -121 -60.5 -190t-151.5 -69zM967 23q74 0 122 58.5t48 164.5v7q0 106 -48 165t-122 59q-73 0 -121.5 -59.5t-48.5 -164.5v-7q0 -104 48.5 -163.5t121.5 -59.5z" />
    <glyph glyph-name="f_f_h" horiz-adv-x="1231" 
d="M439 0v467h-254v-467h-53v467h-104v33h104v76q0 80 37 120.5t100 40.5q56 0 99 -34l-9 -40q-33 38 -85 38q-89 0 -89 -126v-75h254v76q0 80 37 120.5t100 40.5q56 0 99 -34l-9 -40q-33 38 -85 38q-89 0 -89 -126v-75h255v226h52l-1 -367q17 70 66 111t120 41
q77 0 124.5 -51t47.5 -149v-311h-53v308q0 77 -38 119.5t-102 42.5q-74 0 -118.5 -53.5t-44.5 -144.5v-272h-53v467h-255v-467h-53z" />
    <glyph glyph-name="f_f_i" horiz-adv-x="879" 
d="M744 608v118h58v-118h-58zM439 0v467h-254v-467h-53v467h-104v33h104v76q0 80 37 120.5t100 40.5q56 0 99 -34l-9 -40q-33 38 -85 38q-89 0 -89 -126v-75h254v76q0 80 37 120.5t100 40.5q56 0 99 -34l-9 -40q-33 38 -85 38q-89 0 -89 -126v-75h308v-500h-54v467h-254
v-467h-53z" />
    <glyph glyph-name="f_f_j" horiz-adv-x="879" 
d="M744 608v118h58v-118h-58zM688 -201q-42 0 -82 26l8 38q33 -27 66 -27t49.5 25t16.5 67v539h-254v-467h-53v467h-254v-467h-53v467h-104v33h104v76q0 80 37 120.5t100 40.5q56 0 99 -34l-9 -40q-33 38 -85 38q-89 0 -89 -126v-75h254v76q0 80 37 120.5t100 40.5
q56 0 99 -34l-9 -40q-33 38 -85 38q-89 0 -89 -126v-75h308v-572q0 -59 -29.5 -94t-82.5 -35z" />
    <glyph glyph-name="f_f_k" horiz-adv-x="1161" 
d="M439 0v467h-254v-467h-53v467h-104v33h104v76q0 80 37 120.5t100 40.5q56 0 99 -34l-9 -40q-33 38 -85 38q-89 0 -89 -126v-75h254v76q0 80 37 120.5t100 40.5q56 0 99 -34l-9 -40q-33 38 -85 38q-89 0 -89 -126v-75h254v226h53v-508l280 282h49l-187 -188l203 -312h-62
l-178 275l-105 -106v-169h-53v467h-254v-467h-53z" />
    <glyph glyph-name="f_f_l" horiz-adv-x="878" 
d="M439 0v467h-254v-467h-53v467h-104v33h104v76q0 80 37 120.5t100 40.5q56 0 99 -34l-9 -40q-33 38 -85 38q-89 0 -89 -126v-75h254v76q0 80 37 120.5t100 40.5q56 0 99 -34l-9 -40q-33 38 -85 38q-89 0 -89 -126v-75h254v226h54v-726h-54v467h-254v-467h-53z" />
    <glyph glyph-name="f_f_t" horiz-adv-x="994" 
d="M962 20q-45 -31 -96 -31q-53 0 -86 35.5t-33 110.5v332h-255v-467h-53v467h-254v-467h-53v467h-104v33h104v76q0 80 37 120.5t100 40.5q56 0 99 -34l-9 -40q-33 38 -85 38q-89 0 -89 -126v-75h254v76q0 80 37 120.5t100 40.5q56 0 99 -34l-9 -40q-33 38 -85 38
q-89 0 -89 -126v-75h255v155h53v-155h154v-33h-154v-332q0 -54 21.5 -82t57.5 -28q40 0 78 32z" />
    <glyph glyph-name="f_h" horiz-adv-x="924" 
d="M439 0v467h-254v-467h-53v467h-104v33h104v76q0 80 37 120.5t100 40.5q56 0 99 -34l-9 -40q-33 38 -85 38q-89 0 -89 -126v-75h254v226h52l-1 -367q17 70 66 111t120 41q77 0 124.5 -51t47.5 -149v-311h-53v308q0 77 -38 119.5t-102 42.5q-74 0 -118.5 -53.5
t-44.5 -144.5v-272h-53z" />
    <glyph glyph-name="f_j" horiz-adv-x="572" 
d="M437 608v118h58v-118h-58zM381 -201q-42 0 -82 26l8 38q33 -27 66 -27t49.5 25t16.5 67v539h-254v-467h-53v467h-104v33h104v76q0 80 37 120.5t100 40.5q56 0 99 -34l-9 -40q-33 38 -85 38q-89 0 -89 -126v-75h308v-572q0 -59 -29.5 -94t-82.5 -35z" />
    <glyph glyph-name="f_k" horiz-adv-x="854" 
d="M439 0v467h-254v-467h-53v467h-104v33h104v76q0 80 37 120.5t100 40.5q56 0 99 -34l-9 -40q-33 38 -85 38q-89 0 -89 -126v-75h254v226h53v-508l280 282h49l-187 -188l203 -312h-62l-178 275l-105 -106v-169h-53z" />
    <glyph glyph-name="f_t" horiz-adv-x="689" 
d="M654 20q-45 -31 -96 -31q-53 0 -86 35.5t-33 110.5v332h-254v-467h-53v467h-104v33h104v76q0 80 37 120.5t100 40.5q56 0 99 -34l-9 -40q-33 38 -85 38q-89 0 -89 -126v-75h254v155h53v-155h154v-33h-154v-332q0 -54 21.5 -82t57.5 -28q40 0 78 32z" />
    <glyph glyph-name="g_j" horiz-adv-x="873" 
d="M669 602v124h134v-124h-134zM414 337v3q0 61 -42 100t-105 39t-106 -39t-43 -100v-3q0 -62 42.5 -100.5t106.5 -38.5q63 0 105 38.5t42 100.5zM511 -56q0 -39 -21.5 -68.5t-58 -45.5t-78 -23.5t-86.5 -7.5q-106 0 -168 34.5t-62 89.5q0 38 32.5 65.5t86.5 38.5
q-42 7 -67 29t-25 54q0 30 23 52t63 33q-87 48 -87 143v2q0 76 58.5 123.5t145.5 47.5q64 0 113 -26q5 46 34 74t69 28q22 0 46 -10l-9 -44q-20 10 -40 10q-30 0 -55.5 -19t-31.5 -47q77 -49 77 -137v-2q0 -77 -57.5 -124t-145.5 -47q-52 0 -95 17q-62 -12 -62 -57
q0 -26 24.5 -41.5t64.5 -15.5h131q86 0 133.5 -34t47.5 -92zM268 -169q48 0 89 9.5t70.5 34t29.5 60.5q0 39 -35.5 64.5t-101.5 25.5h-97q-57 0 -95 -26.5t-38 -65.5q0 -45 47 -73.5t131 -28.5zM648 -202q-62 0 -87.5 37t-25.5 110l23 19q0 -42 17 -64t42 -22
q27 0 41.5 21.5t14.5 58.5v550h126v-550q0 -75 -41.5 -117.5t-109.5 -42.5z" />
    <glyph glyph-name="t_f" horiz-adv-x="701" 
d="M347 20q-45 -31 -96 -31q-53 0 -86 35.5t-33 110.5v332h-104v33h104v155h53v-155h273v76q0 80 37 120.5t100 40.5q56 0 99 -34l-9 -40q-33 38 -85 38q-89 0 -89 -126v-75h166v-33h-166v-467h-53v467h-273v-332q0 -54 21.5 -82t57.5 -28q40 0 78 32z" />
    <glyph glyph-name="t_t" horiz-adv-x="691" 
d="M656 20q-45 -31 -96 -31q-53 0 -86 35.5t-33 110.5v332h-256v-332q0 -54 21.5 -82t57.5 -28q40 0 78 32l5 -37q-45 -31 -96 -31q-53 0 -86 35.5t-33 110.5v332h-104v33h104v155h53v-155h256v155h53v-155h154v-33h-154v-332q0 -54 21.5 -82t57.5 -28q40 0 78 32z" />
    <glyph glyph-name="zero.oldstyle" horiz-adv-x="623" 
d="M566 252v-4q0 -114 -71.5 -186.5t-182.5 -72.5q-112 0 -183.5 72.5t-71.5 186.5v4q0 114 71.5 186.5t183.5 72.5q111 0 182.5 -72.5t71.5 -186.5zM508 248v4q0 99 -55 162t-141 63t-141.5 -63t-55.5 -162v-4q0 -99 55.5 -162t141.5 -63t141 63t55 162z" />
    <glyph glyph-name="one.oldstyle" horiz-adv-x="377" 
d="M266 0h-54v418q-69 -99 -176 -118v55q143 22 200 145h30v-500z" />
    <glyph glyph-name="two.oldstyle" horiz-adv-x="544" 
d="M496 0h-446v23l223 133q82 49 117 91t35 90v2q0 62 -45 100t-109 38q-73 0 -119.5 -45.5t-46.5 -118.5v-1q0 -38 13 -74l-55 14q-12 34 -12 67v1q0 83 62.5 137t159.5 54q88 0 149 -47t61 -123v-3q0 -110 -171 -198l-178 -94h362v-46z" />
    <glyph glyph-name="three.oldstyle" horiz-adv-x="568" 
d="M281 -168q-96 0 -162 49t-66 130v2q0 36 13 70l54 14q-12 -36 -12 -77v-3q0 -70 51 -110.5t123 -40.5q75 0 125.5 40.5t50.5 108.5v2q0 70 -53 111t-134 41h-60v33h59q73 0 120 37.5t47 100.5v2q0 62 -43.5 98.5t-110.5 36.5q-66 0 -114 -36.5t-48 -101.5v-3
q0 -31 10 -69l-54 15q-10 30 -10 61v2q0 75 64 120.5t153 45.5q92 0 151.5 -45.5t59.5 -119.5v-2q0 -64 -44.5 -105.5t-119.5 -53.5q84 -11 134.5 -55t50.5 -114v-2q0 -81 -67.5 -131.5t-167.5 -50.5z" />
    <glyph glyph-name="four.oldstyle" horiz-adv-x="563" 
d="M364 46v424l-292 -424h292zM532 4h-115v-161h-53v161h-331v44l311 452h73v-454h115v-42z" />
    <glyph glyph-name="five.oldstyle" horiz-adv-x="565" 
d="M282 -168q-92 0 -157 52.5t-65 126.5q0 18 7 48l55 14q-8 -27 -8 -54q0 -64 50 -108.5t118 -44.5q72 0 123.5 53.5t51.5 141.5q0 90 -48.5 143t-120.5 53q-56 0 -100.5 -30t-63.5 -81h-39l44 354h355l-5 -46h-324l-34 -282q21 55 70.5 87t114.5 32q90 0 149.5 -61.5
t59.5 -166.5t-67.5 -168t-165.5 -63z" />
    <glyph glyph-name="six.oldstyle" horiz-adv-x="589" 
d="M535 205q0 -93 -66 -154.5t-166 -61.5q-114 0 -180 84.5t-66 232.5v8q0 172 73.5 263t189.5 91q81 0 139 -42.5t58 -112.5q0 -22 -6 -38l-54 -15q6 21 6 44q0 58 -42.5 94t-102.5 36q-89 0 -146.5 -83t-57.5 -245q0 -40 1 -63q13 77 69 125.5t137 48.5q93 0 153.5 -60.5
t60.5 -151.5zM303 23q75 0 124.5 52t49.5 126v3q0 76 -48 127.5t-124 51.5q-78 0 -128.5 -53t-50.5 -126v-1q0 -72 51 -126t126 -54z" />
    <glyph glyph-name="seven.oldstyle" horiz-adv-x="514" 
d="M238 -157h-61q3 171 67 318.5t192 292.5h-411v46h460v-22q-123 -148 -184 -299t-63 -336z" />
    <glyph glyph-name="eight.oldstyle" horiz-adv-x="591" 
d="M295 -11q-104 0 -174 49.5t-70 130.5v3q0 63 47.5 107.5t123.5 60.5q-64 16 -104.5 57t-40.5 99v3q0 76 63.5 122.5t154.5 46.5q92 0 155.5 -46.5t63.5 -122.5v-3q0 -58 -40.5 -99.5t-105.5 -56.5q77 -15 124.5 -60t47.5 -108v-3q0 -81 -70.5 -130.5t-174.5 -49.5z
M457 494v3q0 62 -47.5 99.5t-114.5 37.5q-66 0 -113 -37.5t-47 -99.5v-3q0 -63 46.5 -101t113.5 -38q68 0 115 38t47 101zM482 171v4q0 66 -54.5 107t-132.5 41q-77 0 -131 -41t-54 -107v-4q0 -68 53 -108t132 -40q80 0 133.5 40t53.5 108z" />
    <glyph glyph-name="nine.oldstyle" horiz-adv-x="589" 
d="M286 477q-75 0 -124.5 -52t-49.5 -126v-3q0 -76 48 -127.5t124 -51.5q78 0 128.5 53t50.5 126v1q0 72 -51 126t-126 54zM269 -168q-81 0 -139 42.5t-58 112.5q0 22 6 38l54 15q-6 -21 -6 -44q0 -58 42.5 -94t102.5 -36q89 0 146.5 83t57.5 245q0 40 -1 63
q-13 -77 -69 -125.5t-137 -48.5q-93 0 -153.5 60.5t-60.5 151.5q0 93 66 154.5t166 61.5q114 0 180 -84.5t66 -232.5v-8q0 -172 -73.5 -263t-189.5 -91z" />
    <glyph glyph-name="zero.slash" horiz-adv-x="623" 
d="M312 -11q-103 0 -170 78l-46 -67h-39l64 94q-64 97 -64 248v6q0 157 69.5 255t185.5 98q102 0 169 -78l46 67h39l-64 -94q64 -97 64 -248v-6q0 -157 -69.5 -255t-184.5 -98zM115 341q0 -119 37 -201l302 442q-54 85 -142 85q-90 0 -143.5 -86.5t-53.5 -231.5v-8zM312 23
q90 0 143 87t53 231v8q0 119 -37 201l-302 -442q55 -85 143 -85z" />
    <glyph glyph-name="Q.alt" horiz-adv-x="795" 
d="M474 -178q-74 0 -117.5 38t-43.5 109v24q-115 18 -185 112t-70 238v4q0 161 85.5 257.5t221.5 96.5q135 0 220.5 -96.5t85.5 -257.5v-4q0 -137 -63 -228.5t-168 -116.5v-9q0 -39 19.5 -59.5t54.5 -20.5q33 0 67 22l9 -82q-52 -27 -116 -27zM313 77h127v-40q78 27 124 107
t46 198v6q0 146 -68 231.5t-177 85.5t-177 -85.5t-68 -231.5v-6q0 -127 52.5 -209.5t140.5 -101.5v46z" />
    <glyph glyph-name="R.alt" horiz-adv-x="627" 
d="M325 653h-177v-305h171q88 0 136 39.5t48 111.5v4q0 71 -46.5 110.5t-131.5 39.5zM319 311h-171v-311h-59v690h245q105 0 166.5 -47t61.5 -136v-2q0 -73 -44 -117t-123 -57q56 -7 88 -31.5t44 -61.5t16.5 -75t13.5 -84t27 -77v-2h-62q-17 31 -25.5 78.5t-13.5 85
t-18.5 73t-49 55t-96.5 19.5z" />
    <glyph glyph-name="S.alt" horiz-adv-x="634" 
d="M592 204q0 -98 -75.5 -155.5t-198.5 -57.5q-117 0 -196.5 50t-79.5 124q0 21 8 42l120 30q-6 -24 -6 -46q0 -51 43 -82.5t111 -31.5q62 0 103.5 26t41.5 78q0 38 -23 62t-61 31l-136 24q-184 33 -184 194q0 97 70.5 152t189.5 55q109 0 182.5 -45t73.5 -113q0 -19 -7 -40
l-121 -30q5 22 5 38q0 47 -37.5 75.5t-95.5 28.5q-55 0 -93.5 -26t-38.5 -75q0 -38 25 -62.5t64 -31.5l129 -22q187 -33 187 -192z" />
    <glyph glyph-name="s.alt" horiz-adv-x="509" 
d="M38 150l116 26q-5 -12 -5 -32q0 -39 30 -59.5t76 -20.5q41 0 70.5 17t29.5 49q0 52 -73 65l-78 13q-162 28 -162 150q0 72 58.5 114.5t154.5 42.5q89 0 149 -35t60 -85q0 -13 -6 -28l-118 -26q5 15 5 33q0 32 -25.5 50t-63.5 18t-65.5 -16t-27.5 -46q0 -53 67 -63l81 -13
q165 -28 165 -150q0 -75 -61 -119t-160 -44q-95 0 -158.5 38t-63.5 97q0 14 5 24z" />
    <glyph glyph-name="y.alt01" horiz-adv-x="482" 
d="M110 -201q-50 0 -86 30l9 38q33 -30 77 -30q29 0 54.5 20.5t39.5 57.5l25 66l-208 519h59l176 -446l165 446h39l-218 -586q-44 -115 -132 -115z" />
    <glyph glyph-name="J.alt0" horiz-adv-x="0" 
 />
    <glyph glyph-name="K.alt0" horiz-adv-x="0" 
 />
    <glyph glyph-name="Q.alt0" horiz-adv-x="769" 
d="M488 -201q-80 0 -127 35.5t-47 89.5q0 35 22 67q-123 11 -199 106t-76 246v4q0 161 85.5 257.5t221.5 96.5q135 0 220.5 -96.5t85.5 -257.5v-4q0 -136 -62.5 -227.5t-167.5 -117.5q-16 -21 -16 -38q0 -23 20 -37.5t53 -14.5q62 0 116 48l16 -118q-61 -39 -145 -39z
M123 342q0 -145 67.5 -231t175.5 -86q2 1 5 3.5t4 4.5l18 16l43 -14q81 24 129 105t48 202v6q0 146 -68 231.5t-177 85.5t-177 -85.5t-68 -231.5v-6z" />
    <glyph glyph-name="W.alt0" horiz-adv-x="1013" 
d="M206 0l-181 690h140l135 -556l148 556h154l153 -557l133 557h100l-175 -690h-149l-159 555l-148 -555h-151z" />
    <glyph glyph-name="Z.alt0" horiz-adv-x="571" 
d="M526 0h-478v65l422 587h-411v38h457v-65l-427 -587h437v-38z" />
    <glyph glyph-name="a.alt0" horiz-adv-x="598" 
d="M279 23q73 0 121.5 59.5t48.5 163.5v7q0 105 -48.5 164.5t-121.5 59.5q-74 0 -122 -59t-48 -165v-7q0 -106 48 -164.5t122 -58.5zM264 -11q-91 0 -152 68.5t-61 190.5v4q0 121 61 190t151 69q63 0 111.5 -37.5t71.5 -106.5v133h54v-389q0 -84 48 -84q22 0 39 16l5 -28
q-18 -21 -57 -21q-42 0 -65.5 31t-23.5 88v13l4 -1v17q-21 -73 -71 -113t-115 -40z" />
    <glyph glyph-name="agrave.alt0" 
d="M224 597h-29l-103 129h66zM279 23q73 0 121.5 59.5t48.5 163.5v7q0 105 -48.5 164.5t-121.5 59.5q-74 0 -122 -59t-48 -165v-7q0 -106 48 -164.5t122 -58.5zM264 -11q-91 0 -152 68.5t-61 190.5v4q0 121 61 190t151 69q63 0 111.5 -37.5t71.5 -106.5v133h54v-389
q0 -84 48 -84q22 0 39 16l5 -28q-18 -21 -57 -21q-42 0 -65.5 31t-23.5 88v13l4 -1v17q-21 -73 -71 -113t-115 -40z" />
    <glyph glyph-name="aacute.alt0" 
d="M217 597h-29l66 129h66zM279 23q73 0 121.5 59.5t48.5 163.5v7q0 105 -48.5 164.5t-121.5 59.5q-74 0 -122 -59t-48 -165v-7q0 -106 48 -164.5t122 -58.5zM264 -11q-91 0 -152 68.5t-61 190.5v4q0 121 61 190t151 69q63 0 111.5 -37.5t71.5 -106.5v133h54v-389
q0 -84 48 -84q22 0 39 16l5 -28q-18 -21 -57 -21q-42 0 -65.5 31t-23.5 88v13l4 -1v17q-21 -73 -71 -113t-115 -40z" />
    <glyph glyph-name="acircumflex.alt0" 
d="M298 597l-92 103l-92 -103h-34l95 130h62l95 -130h-34zM279 23q73 0 121.5 59.5t48.5 163.5v7q0 105 -48.5 164.5t-121.5 59.5q-74 0 -122 -59t-48 -165v-7q0 -106 48 -164.5t122 -58.5zM264 -11q-91 0 -152 68.5t-61 190.5v4q0 121 61 190t151 69q63 0 111.5 -37.5
t71.5 -106.5v133h54v-389q0 -84 48 -84q22 0 39 16l5 -28q-18 -21 -57 -21q-42 0 -65.5 31t-23.5 88v13l4 -1v17q-21 -73 -71 -113t-115 -40z" />
    <glyph glyph-name="atilde.alt0" 
d="M66 608v20q0 43 20.5 69.5t55.5 26.5q22 0 40.5 -13t29 -28.5t26.5 -28.5t33 -13q23 0 36.5 18.5t13.5 49.5v10h25v-19q0 -43 -20.5 -70t-54.5 -27q-22 0 -40.5 13t-29.5 29t-27 29t-33 13q-22 0 -36 -19t-14 -50v-10h-25zM279 23q73 0 121.5 59.5t48.5 163.5v7
q0 105 -48.5 164.5t-121.5 59.5q-74 0 -122 -59t-48 -165v-7q0 -106 48 -164.5t122 -58.5zM264 -11q-91 0 -152 68.5t-61 190.5v4q0 121 61 190t151 69q63 0 111.5 -37.5t71.5 -106.5v133h54v-389q0 -84 48 -84q22 0 39 16l5 -28q-18 -21 -57 -21q-42 0 -65.5 31t-23.5 88
v13l4 -1v17q-21 -73 -71 -113t-115 -40z" />
    <glyph glyph-name="adieresis.alt0" 
d="M254 597v129h44v-129h-44zM114 597v129h44v-129h-44zM279 23q73 0 121.5 59.5t48.5 163.5v7q0 105 -48.5 164.5t-121.5 59.5q-74 0 -122 -59t-48 -165v-7q0 -106 48 -164.5t122 -58.5zM264 -11q-91 0 -152 68.5t-61 190.5v4q0 121 61 190t151 69q63 0 111.5 -37.5
t71.5 -106.5v133h54v-389q0 -84 48 -84q22 0 39 16l5 -28q-18 -21 -57 -21q-42 0 -65.5 31t-23.5 88v13l4 -1v17q-21 -73 -71 -113t-115 -40z" />
    <glyph glyph-name="aring.alt0" 
d="M206 594q-42 0 -70 22t-28 57t28 57t70 22q41 0 69.5 -22t28.5 -57t-28 -57t-70 -22zM206 613q27 0 44 17t17 43t-17 43t-44 17t-44 -17t-17 -43t17 -43t44 -17zM279 23q73 0 121.5 59.5t48.5 163.5v7q0 105 -48.5 164.5t-121.5 59.5q-74 0 -122 -59t-48 -165v-7
q0 -106 48 -164.5t122 -58.5zM264 -11q-91 0 -152 68.5t-61 190.5v4q0 121 61 190t151 69q63 0 111.5 -37.5t71.5 -106.5v133h54v-389q0 -84 48 -84q22 0 39 16l5 -28q-18 -21 -57 -21q-42 0 -65.5 31t-23.5 88v13l4 -1v17q-21 -73 -71 -113t-115 -40z" />
    <glyph glyph-name="amacron.alt0" 
d="M84 675h246v-36h-246v36zM279 23q73 0 121.5 59.5t48.5 163.5v7q0 105 -48.5 164.5t-121.5 59.5q-74 0 -122 -59t-48 -165v-7q0 -106 48 -164.5t122 -58.5zM264 -11q-91 0 -152 68.5t-61 190.5v4q0 121 61 190t151 69q63 0 111.5 -37.5t71.5 -106.5v133h54v-389
q0 -84 48 -84q22 0 39 16l5 -28q-18 -21 -57 -21q-42 0 -65.5 31t-23.5 88v13l4 -1v17q-21 -73 -71 -113t-115 -40z" />
    <glyph glyph-name="abreve.alt0" 
d="M206 637q39 0 64.5 25.5t25.5 63.5h29q0 -55 -33.5 -91t-85.5 -36t-85.5 36t-33.5 91h29q0 -38 25.5 -63.5t64.5 -25.5zM279 23q73 0 121.5 59.5t48.5 163.5v7q0 105 -48.5 164.5t-121.5 59.5q-74 0 -122 -59t-48 -165v-7q0 -106 48 -164.5t122 -58.5zM264 -11
q-91 0 -152 68.5t-61 190.5v4q0 121 61 190t151 69q63 0 111.5 -37.5t71.5 -106.5v133h54v-389q0 -84 48 -84q22 0 39 16l5 -28q-18 -21 -57 -21q-42 0 -65.5 31t-23.5 88v13l4 -1v17q-21 -73 -71 -113t-115 -40z" />
    <glyph glyph-name="aogonek.alt0" 
d="M531 -186q-41 0 -67 20.5t-26 54.5q0 55 74 108q-66 16 -66 116v13l4 -1v17q-21 -73 -71 -113t-115 -40q-91 0 -152 68.5t-61 190.5v4q0 121 61 190t151 69q63 0 111.5 -37.5t71.5 -106.5v133h54v-389q0 -84 48 -84q22 0 39 16l5 -28q-15 -17 -44 -20q-65 -53 -65 -100
q0 -24 16 -38t42 -14q34 0 68 31l14 -24q-41 -36 -92 -36zM279 23q73 0 121.5 59.5t48.5 163.5v7q0 105 -48.5 164.5t-121.5 59.5q-74 0 -122 -59t-48 -165v-7q0 -106 48 -164.5t122 -58.5z" />
    <glyph glyph-name="acaron.alt0" 
d="M175 596l-95 130h34l92 -103l92 103h34l-95 -130h-62zM279 23q73 0 121.5 59.5t48.5 163.5v7q0 105 -48.5 164.5t-121.5 59.5q-74 0 -122 -59t-48 -165v-7q0 -106 48 -164.5t122 -58.5zM264 -11q-91 0 -152 68.5t-61 190.5v4q0 121 61 190t151 69q63 0 111.5 -37.5
t71.5 -106.5v133h54v-389q0 -84 48 -84q22 0 39 16l5 -28q-18 -21 -57 -21q-42 0 -65.5 31t-23.5 88v13l4 -1v17q-21 -73 -71 -113t-115 -40z" />
    <glyph glyph-name="aringacute.alt0" 
d="M220 797h-29l66 129h66zM206 594q-42 0 -70 22t-28 57t28 57t70 22q41 0 69.5 -22t28.5 -57t-28 -57t-70 -22zM206 613q27 0 44 17t17 43t-17 43t-44 17t-44 -17t-17 -43t17 -43t44 -17zM279 23q73 0 121.5 59.5t48.5 163.5v7q0 105 -48.5 164.5t-121.5 59.5
q-74 0 -122 -59t-48 -165v-7q0 -106 48 -164.5t122 -58.5zM264 -11q-91 0 -152 68.5t-61 190.5v4q0 121 61 190t151 69q63 0 111.5 -37.5t71.5 -106.5v133h54v-389q0 -84 48 -84q22 0 39 16l5 -28q-18 -21 -57 -21q-42 0 -65.5 31t-23.5 88v13l4 -1v17q-21 -73 -71 -113
t-115 -40z" />
    <glyph glyph-name="g.alt0" horiz-adv-x="574" 
d="M107 262q0 -99 48 -154t121 -55t121.5 55.5t48.5 153.5v6q0 98 -48.5 154t-121.5 56q-74 0 -121.5 -55.5t-47.5 -154.5v-6zM268 -201q-88 0 -150 40t-62 103q0 17 6 38l55 12q-8 -20 -8 -42q0 -54 48 -86t112 -32q81 0 128 48t47 127v153q-22 -68 -71 -104t-113 -36
q-91 0 -151.5 65t-60.5 179v2q0 115 60.5 180t151.5 65q66 0 116.5 -37.5t70.5 -108.5v136h50v-492q0 -96 -61 -153t-168 -57z" />
    <glyph glyph-name="t.alt0" horiz-adv-x="378" 
d="M343 19q-42 -30 -93 -30q-53 0 -85.5 33.5t-32.5 108.5v334h-104v35h104v135l52 30h1v-165h150v-35h-150v-335q0 -104 78 -104q38 0 75 29z" />
    <glyph glyph-name="y.alt0" horiz-adv-x="0" 
 />
    <glyph glyph-name="z.alt0" horiz-adv-x="454" 
d="M414 0h-374v53l7 -6l-7 14l331 405h-320v34h358v-53l-6 5l6 -13l-331 -405h336v-34z" />
    <glyph glyph-name="germandbls.alt0" horiz-adv-x="568" 
d="M302 -11q-63 0 -111 28l8 38q46 -30 99 -30q71 0 118 46.5t47 126.5v5q0 84 -53 132t-133 48h-49v32h33q64 0 110 39t46 102v7q0 63 -40 101.5t-97 38.5q-67 0 -109 -50.5t-42 -137.5v-515h-52v514q0 102 56 162.5t147 60.5q81 0 136 -47t55 -127v-2q0 -62 -42.5 -104.5
t-110.5 -55.5q90 -10 146 -62.5t56 -138.5v-3q0 -97 -62.5 -152.5t-155.5 -55.5z" />
    <glyph glyph-name="ae.alt0" horiz-adv-x="988" 
d="M680 477q-70 0 -118 -52.5t-53 -147.5h336q-4 97 -49 148.5t-116 51.5zM279 23q73 0 121.5 59.5t48.5 163.5v7q0 105 -48.5 164.5t-121.5 59.5q-74 0 -122 -59t-48 -165v-7q0 -106 48 -164.5t122 -58.5zM898 164q-1 -77 -62.5 -126t-147.5 -49q-54 0 -101 21
q-19 -16 -52 -16q-42 0 -65.5 31t-23.5 88v13l4 -1v17q-21 -73 -71 -113t-115 -40q-91 0 -152 68.5t-61 190.5v4q0 121 61 190t151 69q63 0 111.5 -37.5t71.5 -106.5v133h54v-78q64 89 180 89q98 0 161 -68t63 -188v-11h-396q1 -105 53 -163t127 -58q66 0 113 43.5t41 111.5
zM548 27q5 0 8 1q-29 19 -54 50q9 -51 46 -51z" />
    <glyph glyph-name="aeacute.alt0" horiz-adv-x="988" 
d="M490 597h-29l66 129h66zM680 477q-70 0 -118 -52.5t-53 -147.5h336q-4 97 -49 148.5t-116 51.5zM279 23q73 0 121.5 59.5t48.5 163.5v7q0 105 -48.5 164.5t-121.5 59.5q-74 0 -122 -59t-48 -165v-7q0 -106 48 -164.5t122 -58.5zM898 164q-1 -77 -62.5 -126t-147.5 -49
q-54 0 -101 21q-19 -16 -52 -16q-42 0 -65.5 31t-23.5 88v13l4 -1v17q-21 -73 -71 -113t-115 -40q-91 0 -152 68.5t-61 190.5v4q0 121 61 190t151 69q63 0 111.5 -37.5t71.5 -106.5v133h54v-78q64 89 180 89q98 0 161 -68t63 -188v-11h-396q1 -105 53 -163t127 -58
q66 0 113 43.5t41 111.5zM548 27q5 0 8 1q-29 19 -54 50q9 -51 46 -51z" />
    <glyph glyph-name="caron.alt0" horiz-adv-x="420" 
d="M189 605h-27l18 121h59z" />
    <glyph glyph-name="at.alt0" horiz-adv-x="849" 
d="M417 82q54 0 91 43.5t37 121.5v6q0 78 -37 121.5t-91 43.5t-90 -43.5t-36 -121.5v-6q0 -78 36 -121.5t90 -43.5zM621 -60q-95 -52 -201 -52q-158 0 -263.5 100.5t-105.5 260.5q0 88 33.5 159t88 115t120.5 67.5t135 23.5q160 0 265.5 -90.5t105.5 -245.5
q0 -100 -44 -161.5t-109 -61.5q-44 0 -72 27.5t-28 76.5v3h-1v3q-17 -53 -54 -81.5t-85 -28.5q-67 0 -113.5 51.5t-46.5 142.5v1q0 91 46.5 143t113.5 52q47 0 83 -27t54 -77v96h43v-284q0 -33 18 -52t46 -19q47 0 77 52.5t30 140.5q0 145 -93.5 226t-236.5 81
q-60 0 -118.5 -21.5t-107.5 -61.5t-79 -105t-30 -145q0 -148 94 -238.5t234 -90.5q98 0 186 50z" />
    <glyph glyph-name="sterling.alt0" horiz-adv-x="690" 
d="M503 -12q-60 0 -103.5 22t-90.5 62q-54 -84 -151 -84q-62 0 -100 35t-38 85t37.5 85.5t101.5 35.5q40 0 77 -16q-6 28 -26 70h-142v70h103q-42 75 -42 132q0 89 71 153t182 64q105 0 171 -52t66 -131q0 -24 -5 -44l-125 -33q5 33 5 56q0 55 -31 89.5t-82 34.5
q-53 0 -83.5 -34t-30.5 -84q0 -14 2.5 -28.5t5.5 -25.5t9 -26t10 -23l12.5 -24.5t11.5 -23.5h189v-70h-162q8 -32 8 -66q0 -32 -9 -68q70 -44 130 -44q88 0 145 40l29 -117q-57 -40 -145 -40zM148 58q64 0 86 77q-40 27 -78 27q-31 0 -48.5 -14.5t-17.5 -37.5t16 -37.5
t42 -14.5z" />
    <glyph glyph-name="Kcommaaccent" horiz-adv-x="618" 
d="M520 0l-250 358l-122 -133v-225h-59v690h59v-410l375 410h50l-264 -288l281 -402h-70zM459 -161q0 -77 -74 -78v25q41 3 41 53v10h-19v90h52v-100z" />
    <glyph glyph-name="Lcommaaccent" horiz-adv-x="538" 
d="M89 0v690h59v-653h353v-37h-412zM435 -161q0 -77 -74 -78v25q41 3 41 53v10h-19v90h52v-100z" />
    <glyph glyph-name="Ncommaaccent" horiz-adv-x="681" 
d="M529 0l-399 640v-640h-41v690h76l398 -635v635h41v-690h-75zM462 -161q0 -77 -74 -78v25q41 3 41 53v10h-19v90h52v-100z" />
    <glyph glyph-name="Rcommaaccent" horiz-adv-x="623" 
d="M333 653h-185v-305h178q88 0 136.5 39.5t48.5 111.5v4q0 71 -46.5 110.5t-131.5 39.5zM313 311h-165v-311h-59v690h253q105 0 166.5 -47t61.5 -136v-2q0 -74 -45.5 -118.5t-127.5 -56.5q70 -9 105.5 -47t41.5 -81t16.5 -103.5t31.5 -96.5v-2h-62q-15 27 -23.5 65.5
t-11.5 70.5t-13 65.5t-26 56.5t-52 38t-91 15zM465 -161q0 -77 -74 -78v25q41 3 41 53v10h-19v90h52v-100z" />
    <glyph glyph-name="Z.alt" horiz-adv-x="570" 
d="M524 0h-478v65l419 585h-407v40h457v-65l-425 -585h434v-40z" />
    <glyph glyph-name="ampersand.alt0" horiz-adv-x="874" 
d="M391 558q0 -40 45 -93q49 36 49 89q0 26 -13 42.5t-35 16.5q-20 0 -33 -15t-13 -40zM365 114q28 0 62 17q-8 10 -11 13l-115 133q-25 -31 -25 -69q0 -42 25 -68t64 -26zM716 -15q-79 0 -141.5 28.5t-128.5 97.5q-15 -51 -66.5 -90.5t-133.5 -39.5q-40 0 -78 10
t-73.5 31.5t-57 61t-21.5 91.5q0 71 49.5 117.5t155.5 77.5q-76 90 -76 160q0 80 71.5 129.5t188.5 49.5q108 0 169.5 -44.5t61.5 -116.5q0 -52 -34 -93.5t-105 -62.5l107 -126q25 65 8 155l199 -34q17 -61 -32 -112t-154 -33l33 -39q40 -47 96 -47q44 0 86 31l29 -167
q-62 -35 -153 -35z" />
    <glyph glyph-name="at.uc" horiz-adv-x="807" 
d="M401 -13q-149 0 -251.5 96.5t-102.5 249.5q0 89 33.5 163t89.5 120.5t125 72t143 25.5q150 0 251 -85.5t101 -229.5q0 -108 -52 -176t-124 -68q-45 0 -71.5 26t-24.5 68q-22 -44 -58 -69t-80 -25q-65 0 -105 46t-40 121q0 95 50.5 158.5t126.5 63.5q50 0 84 -29t45 -80
l15 102h44l-35 -250h1l-5 -32q-4 -32 12.5 -52.5t44.5 -20.5q51 0 89 61t38 155q0 134 -89 210.5t-218 76.5q-65 0 -126 -23t-110.5 -66t-79.5 -111.5t-30 -151.5q0 -142 90 -230t221 -88q99 0 196 52l12 -24q-97 -56 -210 -56zM394 181q59 0 99.5 56.5t40.5 141.5
q0 62 -31.5 100.5t-81.5 38.5q-59 0 -99.5 -57t-40.5 -140q0 -63 31.5 -101.5t81.5 -38.5z" />
    <glyph glyph-name="backslash.uc" horiz-adv-x="327" 
d="M46 800l313 -935h-46l-313 935h46z" />
    <glyph glyph-name="bar.uc" horiz-adv-x="161" 
d="M90 -135v935h47v-935h-47z" />
    <glyph glyph-name="braceleft.uc" horiz-adv-x="381" 
d="M387 -136h-78q-85 0 -129.5 39t-44.5 106q0 47 33.5 119.5t33.5 104.5q0 43 -33 62.5t-84 19.5h-35v33h35q50 0 82.5 20t32.5 63q0 31 -32.5 104t-32.5 120q0 67 44.5 106t129.5 39h78v-31h-67q-63 0 -97 -31.5t-34 -84.5q0 -41 31 -111.5t31 -101.5q0 -47 -32 -74.5
t-83 -33.5q51 -6 83 -33.5t32 -74.5q0 -32 -31 -102t-31 -111q0 -53 33.5 -84.5t97.5 -31.5h67v-31z" />
    <glyph glyph-name="braceright.uc" horiz-adv-x="381" 
d="M246 9q0 -67 -44 -106t-130 -39h-78v31h67q63 0 97 31.5t34 84.5q0 41 -31 111.5t-31 101.5q0 47 32 74.5t83 33.5q-51 6 -83 33.5t-32 74.5q0 32 31 102t31 111q0 53 -33.5 84.5t-97.5 31.5h-67v31h78q86 0 130 -39t44 -106q0 -47 -33.5 -119.5t-33.5 -104.5
q0 -43 33 -62.5t84 -19.5h35v-33h-35q-50 0 -82.5 -20t-32.5 -63q0 -31 32.5 -104t32.5 -120z" />
    <glyph glyph-name="bracketleft.uc" horiz-adv-x="278" 
d="M72 -135v935h219v-32h-167v-871h167v-32h-219z" />
    <glyph glyph-name="bracketright.uc" horiz-adv-x="278" 
d="M-13 -135v32h167v871h-167v32h219v-935h-219z" />
    <glyph glyph-name="comma.alt0" horiz-adv-x="191" 
d="M105 -26q0 -37 -10.5 -55t-35.5 -19v16q16 2 21.5 15.5t5.5 42.5v26h-27v56h46v-82z" />
    <glyph glyph-name="emdash.uc" horiz-adv-x="750" 
d="M53 246v39h692v-39h-692z" />
    <glyph glyph-name="endash.uc" horiz-adv-x="544" 
d="M53 246v39h452v-39h-452z" />
    <glyph glyph-name="exclamdown.uc" horiz-adv-x="274" 
d="M144 719v-114h-62v114h62zM142 29h-58v174l19 305h19l20 -305v-174z" />
    <glyph glyph-name="gcommaaccent" horiz-adv-x="0" 
 />
    <glyph glyph-name="guillemotleft.uc" horiz-adv-x="379" 
d="M438 58l-203 182v35l203 182v-53l-164 -146l164 -147v-53zM240 58l-203 182v35l203 182v-53l-164 -146l164 -147v-53z" />
    <glyph glyph-name="guillemotright.uc" horiz-adv-x="379" 
d="M-59 91v53l164 147l-164 146v53l203 -182v-35zM139 91v53l164 147l-164 146v53l203 -182v-35z" />
    <glyph glyph-name="guilsinglleft.uc" horiz-adv-x="214" 
d="M240 58l-203 182v35l203 182v-53l-164 -146l164 -147v-53z" />
    <glyph glyph-name="guilsinglright.uc" horiz-adv-x="214" 
d="M-26 91v53l164 147l-164 146v53l203 -182v-35z" />
    <glyph glyph-name="hyphen.uc" horiz-adv-x="337" 
d="M53 246v39h232v-39h-232z" />
    <glyph glyph-name="kcommaaccent" horiz-adv-x="493" 
d="M415 0l-178 275l-105 -106v-169h-53v726h53v-508l280 282h49l-187 -188l203 -312h-62zM388 -161q0 -77 -74 -78v25q41 3 41 53v10h-19v90h52v-100z" />
    <glyph glyph-name="lcommaaccent" horiz-adv-x="205" 
d="M79 0v726h54v-726h-54zM245 -161q0 -77 -74 -78v25q41 3 41 53v10h-19v90h52v-100z" />
    <glyph glyph-name="ncommaaccent" horiz-adv-x="557" 
d="M132 272v-272h-53v500h51l-1 -145q17 72 66 114t121 42q77 0 124.5 -51t47.5 -149v-311h-53v308q0 77 -38 119.5t-102 42.5q-74 0 -118.5 -53.5t-44.5 -144.5zM435 -161q0 -77 -74 -78v25q41 3 41 53v10h-19v90h52v-100z" />
    <glyph glyph-name="parenleft.uc" horiz-adv-x="309" 
d="M342 787q-95 -78 -147 -199t-52 -256q0 -136 51.5 -257t147.5 -198l-26 -13q-111 81 -170.5 204t-59.5 264t60 263.5t171 204.5z" />
    <glyph glyph-name="parenright.uc" horiz-adv-x="309" 
d="M-33 -123q95 78 147 199t52 256q0 136 -51.5 257t-147.5 198l26 13q111 -81 170.5 -204t59.5 -264t-60 -263.5t-171 -204.5z" />
    <glyph glyph-name="period.alt0" horiz-adv-x="154" 
d="M54 0v56h46v-56h-46z" />
    <glyph glyph-name="questiondown.uc" horiz-adv-x="499" 
d="M308 721v-115h-60v115h60zM267 54q76 0 125 42t49 108q0 34 -11 70l53 -13q10 -33 10 -63q0 -77 -63.5 -127.5t-163.5 -50.5q-96 0 -155 50t-59 129q0 44 21.5 78t52 56l60.5 44.5t51.5 57t21.5 79.5h38q0 -44 -14 -79.5t-35 -56.5t-46 -42l-46 -38t-35 -43t-14 -58
q0 -62 44 -102.5t116 -40.5z" />
    <glyph glyph-name="quotedblleft.alt0" horiz-adv-x="309" 
d="M223 644q0 -37 -10.5 -55t-35.5 -19v16q16 2 21.5 15.5t5.5 42.5v26h-27v56h46v-82zM105 644q0 -37 -10.5 -55t-35.5 -19v16q16 2 21.5 15.5t5.5 42.5v26h-27v56h46v-82z" />
    <glyph glyph-name="quotedblright.alt0" horiz-adv-x="309" 
d="M250 575h-46v82q0 37 10.5 55t35.5 19v-16q-16 -2 -21.5 -15.5t-5.5 -42.5v-26h27v-56zM132 575h-46v82q0 37 10.5 55t35.5 19v-16q-16 -2 -21.5 -15.5t-5.5 -42.5v-26h27v-56z" />
    <glyph glyph-name="rcommaaccent" horiz-adv-x="370" 
d="M132 248v-248h-53v500h50v-143q14 69 49 111.5t92 42.5q46 0 83 -30l-10 -53q-38 33 -82 33q-65 0 -97 -60.5t-32 -152.5zM245 -161q0 -77 -74 -78v25q41 3 41 53v10h-19v90h52v-100z" />
    <glyph glyph-name="slash.uc" horiz-adv-x="327" 
d="M0 -135l313 935h46l-313 -935h-46z" />
    <glyph glyph-name="y.al01" horiz-adv-x="940" 
d="M376 620h-96v-290h-160v290h-96v70h352v-70zM571 330l-61 255v-255h-81v360h182l46 -203l51 203h192v-360h-144v257l-68 -257h-117z" />
    </font>
</defs>
</svg>
