<?xml version="1.0" standalone="no"?>
<!DOCTYPE svg PUBLIC "-//W3C//DTD SVG 20010904//EN"
 "http://www.w3.org/TR/2001/REC-SVG-20010904/DTD/svg10.dtd">
<svg version="1.0" xmlns="http://www.w3.org/2000/svg"
 width="260.000000pt" height="260.000000pt" viewBox="0 0 260.000000 260.000000"
 preserveAspectRatio="xMidYMid meet">
<metadata>
Created by potrace 1.11, written by Peter Selinger 2001-2013
</metadata>
<g transform="translate(0.000000,260.000000) scale(0.100000,-0.100000)"
fill="#000000" stroke="none">
<path d="M1937 2044 c-1 -1 -31 -4 -67 -8 -199 -18 -404 -120 -528 -264 -164
-190 -215 -425 -149 -687 53 -208 243 -403 469 -482 171 -60 340 -62 554 -8
76 19 150 35 165 35 30 0 129 -47 129 -62 0 -5 5 -8 12 -6 8 3 12 93 12 334 1
181 0 337 -3 347 -3 16 -13 17 -120 11 -166 -9 -271 -12 -478 -15 -101 -1
-183 -6 -183 -10 0 -5 60 -9 133 -10 221 -1 473 -12 482 -21 4 -4 8 -292 6
-414 l-1 -91 -87 -40 c-80 -37 -131 -53 -218 -68 -60 -11 -194 -6 -260 10 -97
22 -180 69 -255 145 -132 131 -200 336 -194 582 5 229 68 402 192 527 106 108
227 160 392 166 293 12 471 -129 532 -422 12 -57 25 -103 30 -103 5 0 7 33 4
73 -11 144 -18 273 -19 326 -1 42 -5 56 -22 66 -19 13 -120 42 -175 51 -14 2
-45 8 -70 13 -51 11 -277 31 -283 25z"/>
<path d="M10 2009 c0 -5 22 -9 50 -9 65 0 85 -22 98 -104 10 -68 9 -1164 -2
-1211 -16 -73 -26 -85 -70 -86 -22 -1 -47 -1 -54 0 -6 1 -12 -4 -12 -11 0 -10
48 -13 232 -11 271 2 253 1 244 10 -4 4 -27 9 -52 10 -51 2 -80 16 -88 40 -17
54 -24 177 -22 418 l1 270 65 -1 c155 -1 213 -23 283 -104 32 -38 116 -195
163 -305 64 -153 149 -293 197 -327 26 -19 41 -21 106 -19 239 11 220 9 203
20 -7 4 -31 8 -53 9 -99 4 -139 51 -274 322 -159 319 -223 393 -355 415 l-44
7 74 22 c210 61 340 181 342 314 0 86 -27 158 -81 212 -57 57 -118 86 -231
110 -71 15 -136 18 -402 18 -184 0 -318 -4 -318 -9z m672 -38 c114 -44 171
-138 171 -285 0 -103 -25 -169 -87 -232 -76 -76 -137 -96 -304 -102 l-134 -4
4 298 c3 207 8 308 16 328 l12 29 133 -6 c102 -4 145 -10 189 -26z"/>
</g>
</svg>
